<svg width="33" height="28" xmlns="http://www.w3.org/2000/svg" class="nui-svg nui-svg-mountains">
    <g fill="none" fill-rule="evenodd">
      <path class="fill-nuxt-lightgreen" fill="#00C58E" d="m19.27238,20.20885l-2.02929,-2.02929l-1.13623,-1.13635l-1.2222,-1.2222c-0.38073,-0.38073 -0.99801,-0.38073 -1.37875,0l-4.38784,4.38784c-0.38073,0.38073 -0.38073,0.99801 0,1.37875l4.38784,4.38784c0.38073,0.38073 0.99801,0.38073 1.37875,0l4.38784,-4.38784c0.38051,-0.38073 0.38051,-0.99801 -0.00012,-1.37875z" />
      <path class="fill-nuxt-lightgreen" fill="#00C58E" d="m12.33299,13.26956l-4.38784,-4.38784c-0.38073,-0.38073 -0.99801,-0.38073 -1.37875,0l-4.38784,4.38784c-0.38073,0.38073 -0.38073,0.99801 0,1.37875l4.38784,4.38784c0.38073,0.38073 0.99801,0.38073 1.37875,0l4.38784,-4.38784c0.38073,-0.38084 0.38073,-0.99801 0,-1.37875z" />
      <path class="fill-nuxt-green" fill="#108775" d="m19.27238,6.33017l-4.38784,-4.38784c-0.38073,-0.38073 -0.99801,-0.38073 -1.37875,0l-1.15402,1.15402l-1.13646,1.13646l-2.09724,2.09736c-0.38073,0.38073 -0.38073,0.99801 0,1.37875l4.38784,4.38784c0.38073,0.38073 0.99801,0.38073 1.37875,0l4.38784,-4.38784c0.38051,-0.38073 0.38051,-0.99801 -0.00012,-1.37875l-0.00001,0.00001z" />
      <path class="fill-current" fill="#2f495e" d="m26.21167,13.26956l-4.38784,-4.38784c-0.38073,-0.38073 -0.99801,-0.38073 -1.37864,0l-4.38784,4.38784c-0.38073,0.38073 -0.38073,0.99801 0,1.37875l4.38784,4.38784c0.38073,0.38073 0.99801,0.38073 1.37864,0l4.38784,-4.38784c0.38073,-0.38084 0.38073,-0.99801 0,-1.37875z" fill-rule="nonzero" />
    </g>
  </svg>