<svg width="453.8" height="353.4" xmlns="http://www.w3.org/2000/svg" xmlns:svg="http://www.w3.org/2000/svg">
 <style type="text/css">.st0{opacity:0.3;}
	.st1{fill:#E0E0E0;}
	.st2{fill:#263238;}
	.st3{fill:#D4DAE3;}
	.st4{fill:#E0E5EC;}
	.st5{fill:#FFFFFF;}
	.st6{fill:#108775;}
	.st7{fill:#455A64;}
	.st8{fill:#FAFAFA;}
	.st9{fill:#FFBE9D;}
	.st10{opacity:0.6;}
	.st11{fill:#EB996E;}</style>
 <g class="layer">
  <title>Layer 1</title>
  <g id="freepik--background-complete--inject-5">
   <g class="st0" id="svg_1">
    <path class="st1" d="m54.6,1c0,0.6 -0.4,1 -1,1s-1,-0.4 -1,-1s0.4,-1 1,-1s1,0.4 1,1z" id="svg_2"/>
   </g>
   <g class="st0" id="svg_3">
    <circle class="st1" cx="57" cy="1" id="svg_4" r="1"/>
   </g>
   <g class="st0" id="svg_5">
    <path class="st1" d="m61.4,1c0,0.6 -0.4,1 -1,1s-1,-0.4 -1,-1s0.4,-1 1,-1s1,0.4 1,1z" id="svg_6"/>
   </g>
  </g>
  <g id="freepik--Floor--inject-5">
   <path class="st2" d="m453.8,325.9c0,0.1 -99.8,0.3 -222.8,0.3s-223,-0.1 -223,-0.3s99.8,-0.3 222.9,-0.3s222.9,0.2 222.9,0.3z" id="svg_7"/>
  </g>
  <g id="freepik--Screens--inject-5">
   <rect class="st3" height="114.2" id="svg_8" width="140.1" x="275.9" y="16.3"/>
   <rect class="st4" height="114.2" id="svg_9" width="140.1" x="266" y="23.5"/>
   <rect class="st5" height="117.2" id="svg_10" width="143.9" x="252.2" y="31.5"/>
   <path class="st2" d="m396.1,148.7c0,0 0,-0.8 0,-2.2s0,-3.5 0,-6.3c0,-5.5 0,-13.5 0,-23.8c0,-20.5 -0.1,-49.7 -0.1,-85l0.2,0.2l-143.9,0l0,0l0.3,-0.3c0,42.4 0,82.4 0,117.2l-0.2,-0.2l104,0.1l29.4,0.1l7.8,0l2,0l0.7,0l-2.6,0l-7.8,0l-29.4,0.1l-104.1,0.1l-0.2,0l0,-0.2c0,-34.8 0,-74.8 0,-117.2l0,-0.3l0.3,0l143.8,0l0.2,0l0,0.2c0,35.4 -0.1,64.7 -0.1,85.2c0,10.2 0,18.2 -0.1,23.7c0,2.7 0,4.8 0,6.2s-0.2,2.4 -0.2,2.4z" id="svg_11"/>
   <path class="st6" d="m269.8,48.4l-1.5,0.6l1.5,0.6l0,0.6l-2.2,-0.8l0,-0.6l2.2,-0.8l0,0.4z" id="svg_12"/>
   <path class="st6" d="m273.4,47.3l0,3.2l-0.8,0l0,-1.3l-1.5,0l0,1.3l-0.8,0l0,-3.2l0.8,0l0,1.3l1.5,0l0,-1.3l0.8,0z" id="svg_13"/>
   <path class="st6" d="m274.9,47.9l-1,0l0,-0.6l2.8,0l0,0.6l-1,0l0,2.6l-0.8,0l0,-2.6z" id="svg_14"/>
   <path class="st6" d="m280,50.6l0,-2l-1,1.6l-0.3,0l-1,-1.6l0,1.9l-0.7,0l0,-3.2l0.6,0l1.2,2l1.2,-2l0.6,0l0,3.2l-0.6,0.1z" id="svg_15"/>
   <path class="st6" d="m281.5,47.3l0.8,0l0,2.6l1.7,0l0,0.6l-2.4,0l-0.1,-3.2z" id="svg_16"/>
   <path class="st6" d="m286.4,48.7l0,0.6l-2.2,0.8l0,-0.6l1.5,-0.6l-1.5,-0.6l0,-0.5l2.2,0.9z" id="svg_17"/>
   <path class="st6" d="m268.5,137.3l-1.6,0.6l1.5,0.6l0,0.6l-2.2,-0.8l0,-0.6l2.2,-0.8l0.1,0.4z" id="svg_18"/>
   <path class="st6" d="m270.1,135.6l0.6,0l-1.5,4.4l-0.6,0l1.5,-4.4z" id="svg_19"/>
   <path class="st6" d="m273.9,136.2l0,3.2l-0.8,0l0,-1.3l-1.4,0l0,1.3l-0.7,0l0,-3.2l0.8,0l0,1.3l1.5,0l0,-1.3l0.6,0z" id="svg_20"/>
   <path class="st6" d="m275.4,136.8l-1,0l0,-0.6l2.8,0l0,0.6l-1,0l0,2.6l-0.8,0l0,-2.6z" id="svg_21"/>
   <path class="st6" d="m280.5,139.5l0,-2l-1,1.6l-0.3,0l-1,-1.6l0,1.9l-0.7,0l0,-3.2l0.6,0l1.2,2l1.2,-2l0.6,0l0,3.2l-0.6,0.1z" id="svg_22"/>
   <path class="st6" d="m282,136.2l0.8,0l0,2.6l1.6,0l0,0.6l-2.4,0l0,-3.2z" id="svg_23"/>
   <path class="st6" d="m286.9,137.5l0,0.6l-2.2,0.8l0,-0.6l1.5,-0.6l-1.5,-0.6l0,-0.6l2.2,1z" id="svg_24"/>
   <path d="m280,57.3l-1.6,0.6l1.6,0.6l0,0.4l-2.1,-0.8l0,-0.4l2.1,-0.8l0,0.4z" id="svg_25"/>
   <path d="m283.6,56.3l0,3.2l-0.5,0l0,-1.4l-1.9,0l0,1.4l-0.5,0l0,-3.2l0.5,0l0,1.4l1.9,0l0,-1.4l0.5,0z" id="svg_26"/>
   <path d="m286.9,59.1l0,0.4l-2.4,0l0,-3.2l2.3,0l0,0.4l-1.8,0l0,1l1.6,0l0,0.4l-1.6,0l0,1l1.9,0z" id="svg_27"/>
   <path d="m289.7,58.7l-1.7,0l-0.4,0.8l-0.5,0l1.5,-3.2l0.5,0l1.5,3.2l-0.5,0l-0.4,-0.8zm-0.2,-0.3l-0.7,-1.6l-0.7,1.6l1.4,0z" id="svg_28"/>
   <path d="m291,56.3l1.4,0c0.9,-0.1 1.7,0.6 1.8,1.5c0.1,0.9 -0.6,1.7 -1.5,1.8c-0.1,0 -0.2,0 -0.3,0l-1.4,0l0,-3.3zm1.4,2.8c0.7,0 1.2,-0.5 1.2,-1.2s-0.5,-1.2 -1.2,-1.2l0,0l-0.9,0l0,2.4l0.9,0z" id="svg_29"/>
   <path d="m296.8,57.7l0,0.4l-2.1,0.8l0,-0.4l1.6,-0.6l-1.6,-0.6l0,-0.4l2.1,0.8z" id="svg_30"/>
   <path d="m280,68.4l-1.6,0.6l1.6,0.6l0,0.4l-2.1,-0.8l0,-0.4l2.1,-0.8l0,0.4z" id="svg_31"/>
   <path d="m281.4,67.8l-1.1,0l0,-0.4l2.7,0l0,0.4l-1.1,0l0,2.9l-0.5,0l0,-2.9z" id="svg_32"/>
   <path d="m283.5,67.4l0.5,0l0,3.2l-0.5,0l0,-3.2z" id="svg_33"/>
   <path d="m285.6,67.8l-1.1,0l0,-0.4l2.7,0l0,0.4l-1.2,0l0,2.9l-0.5,0l0.1,-2.9z" id="svg_34"/>
   <path d="m287.6,67.4l0.5,0l0,2.8l1.8,0l0,0.4l-2.2,0l-0.1,-3.2z" id="svg_35"/>
   <path d="m292.8,70.3l0,0.4l-2.4,0l0,-3.2l2.3,0l0,0.4l-1.8,0l0,1l1.6,0l0,0.4l-1.6,0l0,1l1.9,0z" id="svg_36"/>
   <path d="m295.4,68.8l0,0.4l-2.1,0.8l0,-0.4l1.6,-0.6l-1.6,-0.6l0,-0.4l2.1,0.8z" id="svg_37"/>
   <path d="m297.4,67.4l0.5,0l0,2.8l1.8,0l0,0.4l-2.2,0l-0.1,-3.2l0,0z" id="svg_38"/>
   <path d="m299.9,69.4c0,-0.7 0.6,-1.3 1.3,-1.3c0.7,0 1.3,0.6 1.3,1.3s-0.6,1.3 -1.3,1.3l0,0c-0.7,0 -1.2,-0.5 -1.3,-1.2c0,0 0,0 0,-0.1zm2.1,0c0.1,-0.5 -0.3,-0.9 -0.7,-0.9c-0.5,-0.1 -0.9,0.3 -0.9,0.7c0,0.1 0,0.1 0,0.2c-0.1,0.5 0.3,0.9 0.7,0.9c0.5,0.1 0.9,-0.3 0.9,-0.7c0,0 0,-0.1 0,-0.2z" id="svg_39"/>
   <path d="m304.4,68.2l0,0.4l-0.1,0c-0.4,0 -0.8,0.3 -0.8,0.7l0,0.1l0,1.2l-0.5,0l0,-2.5l0.4,0l0,0.4c0.3,-0.2 0.6,-0.4 1,-0.3z" id="svg_40"/>
   <path d="m307.1,69.6l-2,0c0.1,0.4 0.4,0.8 0.9,0.7c0.3,0 0.5,-0.1 0.7,-0.3l0.2,0.3c-0.5,0.5 -1.4,0.5 -1.9,0c-0.2,-0.2 -0.4,-0.5 -0.4,-0.9c0,-0.7 0.5,-1.2 1.2,-1.2c0,0 0,0 0.1,0c0.7,0 1.2,0.5 1.2,1.1l0,0.1c0,0.1 0,0.1 0,0.2zm-2,-0.3l1.6,0c0,-0.4 -0.4,-0.8 -0.8,-0.8c-0.4,0 -0.8,0.3 -0.8,0.8z" id="svg_41"/>
   <path d="m311.8,69.2l0,1.4l-0.5,0l0,-1.4c0,-0.5 -0.2,-0.7 -0.6,-0.7s-0.7,0.3 -0.7,0.7l0,0.1l0,1.3l-0.5,0l0,-1.4c0,-0.5 -0.2,-0.7 -0.6,-0.7s-0.7,0.3 -0.7,0.7l0,0.1l0,1.3l-0.4,0l0,-2.5l0.4,0l0,0.4c0.2,-0.3 0.5,-0.4 0.9,-0.4c0.3,0 0.7,0.1 0.9,0.4c0.2,-0.3 0.6,-0.5 0.9,-0.4c0.5,0 1,0.3 1,0.9c-0.1,0.1 -0.1,0.2 -0.1,0.2z" id="svg_42"/>
   <path d="m313.8,67.4c0,-0.2 0.1,-0.3 0.3,-0.3l0,0c0.2,0 0.3,0.1 0.3,0.3l0,0c0,0.2 -0.1,0.3 -0.3,0.3l0,0c-0.2,0 -0.3,-0.1 -0.3,-0.3l0,0zm0.1,0.8l0.5,0l0,2.5l-0.4,0l-0.1,-2.5z" id="svg_43"/>
   <path d="m317.7,69.4c0,0.7 -0.5,1.2 -1.1,1.3l-0.1,0c-0.3,0 -0.7,-0.1 -0.9,-0.4l0,1.3l-0.5,0l0,-3.4l0.4,0l0,0.4c0.2,-0.3 0.5,-0.4 0.9,-0.4c0.7,0 1.2,0.5 1.2,1.1c0.1,0.1 0.1,0.1 0.1,0.1zm-0.4,0c0,-0.5 -0.4,-0.8 -0.8,-0.8c-0.5,0 -0.8,0.4 -0.8,0.8s0.4,0.8 0.8,0.8c0.4,0.1 0.8,-0.3 0.8,-0.8z" id="svg_44"/>
   <path d="m318,70.4l0.2,-0.4c0.3,0.2 0.6,0.2 0.9,0.2c0.4,0 0.6,-0.1 0.6,-0.3c0,-0.6 -1.6,-0.1 -1.6,-1.1c0,-0.4 0.4,-0.7 1,-0.7c0.3,0 0.6,0.1 0.9,0.2l-0.2,0.4c-0.2,-0.1 -0.5,-0.2 -0.7,-0.2c-0.4,0 -0.6,0.1 -0.6,0.3c0,0.6 1.6,0.1 1.6,1.1c0,0.4 -0.4,0.7 -1.1,0.7c-0.4,0.1 -0.7,0 -1,-0.2z" id="svg_45"/>
   <path d="m322.9,68.2l0,2.5l-0.4,0l0,-0.4c-0.2,0.3 -0.5,0.4 -0.8,0.4c-0.6,0 -1,-0.4 -1.1,-0.9l0,-0.1l0,-1.4l0.5,0l0,1.4c0,0.5 0.2,0.7 0.7,0.7c0.4,0 0.7,-0.3 0.8,-0.7l0,-0.1l0,-1.3l0.3,-0.1z" id="svg_46"/>
   <path d="m327.9,69.2l0,1.4l-0.4,0l0,-1.4c0,-0.5 -0.2,-0.7 -0.6,-0.7s-0.7,0.3 -0.7,0.7l0,0.1l0,1.3l-0.5,0l0,-1.4c0,-0.5 -0.2,-0.7 -0.6,-0.7s-0.7,0.3 -0.7,0.7l0,0.1l0,1.3l-0.5,0l0,-2.5l0.4,0l0,0.4c0.2,-0.3 0.5,-0.4 0.9,-0.4c0.3,0 0.7,0.1 0.9,0.4c0.2,-0.3 0.6,-0.5 1,-0.4c0.5,0 1,0.3 1,0.8c-0.2,0.2 -0.2,0.3 -0.2,0.3z" id="svg_47"/>
   <path d="m331.9,68.4l-1.6,0.6l1.6,0.6l0,0.4l-2.1,-0.8l0,-0.4l2.1,-0.8l0,0.4z" id="svg_48"/>
   <path d="m333.6,66.8l0.4,0l-1.5,4.4l-0.4,0l1.5,-4.4z" id="svg_49"/>
   <path d="m335.1,67.8l-1.1,0l0,-0.4l2.7,0l0,0.4l-1.1,0l0,2.9l-0.5,0l0,-2.9z" id="svg_50"/>
   <path d="m337.2,67.4l0.5,0l0,3.2l-0.5,0l0,-3.2z" id="svg_51"/>
   <path d="m339.3,67.8l-1.1,0l0,-0.4l2.7,0l0,0.4l-1.1,0l0,2.9l-0.5,0l0,-2.9z" id="svg_52"/>
   <path d="m341.3,67.4l0.5,0l0,2.8l1.8,0l0,0.4l-2.2,0l-0.1,-3.2l0,0z" id="svg_53"/>
   <path d="m346.4,70.3l0,0.4l-2.4,0l0,-3.2l2.3,0l0,0.4l-1.8,0l0,1l1.6,0l0,0.4l-1.6,0l0,1l1.9,0z" id="svg_54"/>
   <path d="m349.1,68.8l0,0.4l-2.1,0.8l0,-0.4l1.6,-0.6l-1.6,-0.6l0,-0.4l2.1,0.8z" id="svg_55"/>
   <path d="m280,79.5l-1.6,0.6l1.6,0.6l0,0.4l-2.1,-0.8l0,-0.4l2.1,-0.8l0,0.4z" id="svg_56"/>
   <path d="m281.7,77.8l0.4,0l-1.5,4.4l-0.4,0l1.5,-4.4z" id="svg_57"/>
   <path d="m285.2,78.5l0,3.2l-0.5,0l0,-1.4l-1.8,0l0,1.4l-0.5,0l0,-3.2l0.5,0l0,1.4l1.9,0l0,-1.4l0.4,0z" id="svg_58"/>
   <path d="m288.5,81.4l0,0.4l-2.4,0l0,-3.2l2.3,0l0,0.4l-1.8,0l0,1l1.6,0l0,0.4l-1.6,0l0,1l1.9,0z" id="svg_59"/>
   <path d="m291.3,81l-1.7,0l-0.4,0.8l-0.5,0l1.5,-3.2l0.5,0l1.5,3.2l-0.5,0l-0.4,-0.8zm-0.1,-0.4l-0.7,-1.6l-0.7,1.6l1.4,0z" id="svg_60"/>
   <path d="m292.7,78.5l1.4,0c0.9,-0.1 1.7,0.6 1.8,1.5c0.1,0.9 -0.6,1.7 -1.5,1.8c-0.1,0 -0.2,0 -0.3,0l-1.4,0l0,-3.3zm1.3,2.9c0.7,0.1 1.3,-0.4 1.3,-1.1s-0.4,-1.3 -1.1,-1.3c-0.1,0 -0.1,0 -0.2,0l-0.9,0l0,2.4l0.9,0l0,0z" id="svg_61"/>
   <path d="m298.4,80l0,0.4l-2.1,0.8l0,-0.3l1.6,-0.6l-1.6,-0.6l0,-0.4l2.1,0.7z" id="svg_62"/>
   <path d="m271.4,89.2l-1.6,0.6l1.6,0.6l0,0.4l-2.1,-0.8l0,-0.4l2.1,-0.8l0,0.4z" id="svg_63"/>
   <path d="m274.9,90.6c0,0.6 -0.4,0.9 -1.2,0.9l-1.5,0l0,-3.2l1.5,0c0.8,0 1.2,0.3 1.2,0.8c-0.4,0.2 -0.6,0.7 -0.3,1.1c-0.1,0.1 0.1,0.3 0.3,0.4l0,0zm-2.3,-2l0,1l1,0c0.5,0 0.7,-0.2 0.7,-0.5s-0.3,-0.5 -0.7,-0.5l-1,0zm1.8,2c0,-0.4 -0.3,-0.6 -0.8,-0.6l-1.1,0l0,1.1l1.1,0c0.6,0 0.9,-0.2 0.8,-0.5l0,0z" id="svg_64"/>
   <path d="m275.4,89.8c0,-1 0.7,-1.8 1.7,-1.8s1.8,0.7 1.8,1.7s-0.7,1.8 -1.7,1.8c0,0 0,0 -0.1,0c-0.9,0 -1.7,-0.7 -1.7,-1.7c0,0.1 0,0.1 0,0zm3,0c0,-0.7 -0.5,-1.3 -1.2,-1.3s-1.3,0.5 -1.3,1.2s0.5,1.3 1.2,1.3l0,0c0.7,0.1 1.3,-0.4 1.3,-1.2c0,0.1 0,0.1 0,0l0,0z" id="svg_65"/>
   <path d="m279.6,88.2l1.4,0c0.9,-0.1 1.7,0.6 1.8,1.5c0.1,0.9 -0.6,1.7 -1.5,1.8c-0.1,0 -0.2,0 -0.3,0l-1.4,0l0,-3.3zm1.3,2.8c0.7,0 1.2,-0.5 1.2,-1.2s-0.5,-1.2 -1.2,-1.2l-0.9,0l0,2.4l0.9,0z" id="svg_66"/>
   <path d="m284.5,90.3l0,1.1l-0.5,0l0,-1.1l-1.3,-2.1l0.5,0l1,1.7l1,-1.7l0.5,0l-1.2,2.1z" id="svg_67"/>
   <path d="m288.1,89.6l0,0.4l-2.1,0.8l0,-0.4l1.6,-0.6l-1.6,-0.6l0,-0.3l2.1,0.7z" id="svg_68"/>
   <path d="m271.4,100.3l-1.6,0.6l1.6,0.6l0,0.4l-2.1,-0.8l0,-0.4l2.1,-0.8l0,0.4z" id="svg_69"/>
   <path d="m274.9,99.3l0,3.2l-0.5,0l0,-1.4l-1.9,0l0,1.4l-0.5,0l0,-3.2l0.5,0l0,1.4l1.9,0l0,-1.4l0.5,0z" id="svg_70"/>
   <path d="m276.7,99.3l0,3.2l-0.5,0l0,-2.8l-0.7,0l0,-0.4l1.2,0z" id="svg_71"/>
   <path d="m279.5,100.7l0,0.4l-2.1,0.8l0,-0.3l1.6,-0.6l-1.6,-0.6l0,-0.4l2.1,0.7z" id="svg_72"/>
   <path d="m281.6,99.3l0.3,0l0,2.9l1.8,0l0,0.3l-2.2,0l0,-3.2l0.1,0z" id="svg_73"/>
   <path d="m284,101.3c0,-0.7 0.6,-1.2 1.2,-1.2s1.2,0.6 1.2,1.2c0,0.7 -0.6,1.2 -1.2,1.2c-0.6,0.1 -1.2,-0.4 -1.2,-1.2c0,0.1 0,0.1 0,0zm2.1,0c0,-0.5 -0.4,-0.9 -0.9,-0.9s-0.9,0.4 -0.9,0.9s0.4,0.9 0.9,0.9c0.5,0.1 0.9,-0.3 0.9,-0.9c0,0.1 0,0.1 0,0z" id="svg_74"/>
   <path d="m288.4,100.1l0,0.3l-0.1,0c-0.4,0 -0.8,0.3 -0.8,0.8l0,0.1l0,1.2l-0.3,0l0,-2.4l0.3,0l0,0.5c0.1,-0.3 0.5,-0.5 0.9,-0.5z" id="svg_75"/>
   <path d="m291.1,101.4l-2,0c0,0.5 0.5,0.9 1,0.9l0,0c0.3,0 0.6,-0.1 0.8,-0.3l0.2,0.2c-0.2,0.3 -0.6,0.4 -0.9,0.4c-0.7,0 -1.2,-0.5 -1.3,-1.1l0,-0.1c0,-0.7 0.5,-1.2 1.1,-1.2c0,0 0,0 0.1,0c0.6,0 1.2,0.5 1.2,1.1l0,0.1l-0.2,0zm-2,-0.2l1.7,0c-0.1,-0.5 -0.5,-0.8 -1,-0.8c-0.4,0.1 -0.7,0.4 -0.7,0.8z" id="svg_76"/>
   <path d="m295.8,101.1l0,1.4l-0.3,0l0,-1.4c0,-0.5 -0.3,-0.8 -0.7,-0.8c-0.4,0 -0.8,0.3 -0.8,0.7l0,0.1l0,1.3l-0.3,0l0,-1.4c0,-0.5 -0.3,-0.8 -0.7,-0.8c-0.4,0 -0.8,0.3 -0.8,0.8l0,0.1l0,1.3l-0.3,0l0,-2.4l0.3,0l0,0.4c0.2,-0.3 0.5,-0.5 0.9,-0.5s0.7,0.2 0.9,0.5c0.2,-0.3 0.6,-0.6 1,-0.5c0.5,0 0.9,0.4 1,0.9c-0.2,0.2 -0.2,0.3 -0.2,0.3z" id="svg_77"/>
   <path d="m297.8,99.3c0,-0.1 0.1,-0.2 0.2,-0.2s0.2,0.1 0.2,0.2l0,0c0,0.1 -0.1,0.2 -0.2,0.2s-0.2,0 -0.2,-0.2zm0.1,0.8l0.3,0l0,2.4l-0.3,0l0,-2.4z" id="svg_78"/>
   <path d="m301.6,101.3c0,0.7 -0.5,1.2 -1.1,1.2l-0.1,0c-0.4,0 -0.7,-0.2 -0.9,-0.5l0,1.4l-0.3,0l0,-3.3l0.3,0l0,0.5c0.2,-0.3 0.6,-0.5 0.9,-0.5c0.6,0 1.2,0.5 1.2,1.2l0,0zm-0.3,0c0,-0.5 -0.4,-0.9 -0.9,-0.9s-0.9,0.4 -0.9,0.9s0.4,0.9 0.9,0.9s0.9,-0.4 0.9,-0.9l0,0z" id="svg_79"/>
   <path d="m301.9,102.3l0.1,-0.3c0.3,0.2 0.6,0.3 0.9,0.3c0.5,0 0.6,-0.2 0.6,-0.4c0,-0.6 -1.6,-0.1 -1.6,-1.1c0,-0.4 0.4,-0.7 1,-0.7c0.3,0 0.6,0.1 0.9,0.2l-0.1,0.3c-0.2,-0.1 -0.5,-0.2 -0.7,-0.2c-0.4,0 -0.6,0.2 -0.6,0.4c0,0.7 1.6,0.2 1.6,1.1c0,0.4 -0.4,0.7 -1,0.7c-0.4,0 -0.8,-0.1 -1.1,-0.3z" id="svg_80"/>
   <path d="m306.7,100.1l0,2.4l-0.3,0l0,-0.4c-0.2,0.3 -0.5,0.5 -0.9,0.5c-0.5,0 -1,-0.4 -1,-0.9c0,-0.1 0,-0.1 0,-0.2l0,-1.4l0.3,0l0,1.4c0,0.5 0.3,0.8 0.7,0.8c0.4,0 0.8,-0.3 0.8,-0.7l0,-0.1l0,-1.3l0.4,0l0,-0.1z" id="svg_81"/>
   <path d="m311.7,101.1l0,1.4l-0.3,0l0,-1.4c0,-0.5 -0.3,-0.8 -0.7,-0.8c-0.4,0 -0.8,0.3 -0.8,0.7l0,0.1l0,1.3l-0.3,0l0,-1.4c0,-0.5 -0.3,-0.8 -0.7,-0.8c-0.4,0 -0.8,0.3 -0.8,0.8l0,0.1l0,1.3l-0.3,0l0,-2.4l0.3,0l0,0.4c0.2,-0.3 0.5,-0.5 0.9,-0.5s0.7,0.2 0.9,0.5c0.2,-0.4 0.6,-0.6 1,-0.5c0.5,0 0.9,0.4 0.9,0.9c-0.1,0.2 -0.1,0.3 -0.1,0.3z" id="svg_82"/>
   <path d="m316,99.1l0,3.4l-0.3,0l0,-0.5c-0.2,0.3 -0.6,0.5 -0.9,0.5c-0.7,-0.1 -1.2,-0.7 -1.1,-1.4c0.1,-0.6 0.5,-1.1 1.1,-1.1c0.4,0 0.7,0.2 0.9,0.5l0,-1.5l0.3,0l0,0.1zm-0.3,2.2c0,-0.5 -0.4,-0.9 -0.9,-0.9s-0.9,0.4 -0.9,0.9s0.4,0.9 0.9,0.9c0.5,0.1 0.9,-0.3 0.9,-0.9c0,0.1 0,0.1 0,0z" id="svg_83"/>
   <path d="m316.7,101.3c0,-0.7 0.6,-1.2 1.2,-1.2s1.2,0.6 1.2,1.2s-0.6,1.2 -1.2,1.2c-0.6,0.1 -1.2,-0.4 -1.2,-1.2c0,0.1 0,0.1 0,0zm2.1,0c0,-0.5 -0.4,-0.9 -0.9,-0.9s-0.9,0.4 -0.9,0.9s0.4,0.9 0.9,0.9c0.5,0.1 0.9,-0.3 0.9,-0.9c0,0.1 0,0.1 0,0z" id="svg_84"/>
   <path d="m319.8,99.1l0.3,0l0,3.4l-0.3,0l0,-3.4z" id="svg_85"/>
   <path d="m320.8,101.3c0,-0.7 0.6,-1.2 1.2,-1.2s1.2,0.6 1.2,1.2c0,0.7 -0.6,1.2 -1.2,1.2c-0.6,0.1 -1.1,-0.4 -1.2,-1.2c0,0.1 0,0.1 0,0zm2.2,0c0,-0.5 -0.4,-0.9 -0.9,-0.9s-0.9,0.4 -0.9,0.9s0.4,0.9 0.9,0.9c0.5,0.1 0.9,-0.3 0.9,-0.9c0,0.1 0,0.1 0,0l0,0z" id="svg_86"/>
   <path d="m325.2,100.1l0,0.3l-0.1,0c-0.4,0 -0.8,0.3 -0.8,0.8l0,0.1l0,1.2l-0.3,0l0,-2.4l0.3,0l0,0.5c0.2,-0.3 0.5,-0.5 0.9,-0.5z" id="svg_87"/>
   <path d="m326.7,102.3l0.1,-0.3c0.3,0.2 0.6,0.3 0.9,0.3c0.5,0 0.6,-0.2 0.6,-0.4c0,-0.6 -1.6,-0.1 -1.6,-1.1c0,-0.4 0.3,-0.7 1,-0.7c0.3,0 0.6,0.1 0.9,0.2l-0.1,0.3c-0.2,-0.1 -0.5,-0.2 -0.7,-0.2c-0.4,0 -0.6,0.2 -0.6,0.4c0,0.7 1.6,0.2 1.6,1.1c0,0.4 -0.4,0.7 -1,0.7c-0.4,0 -0.8,-0.1 -1.1,-0.3z" id="svg_88"/>
   <path d="m329.2,99.3c0,-0.1 0.1,-0.2 0.2,-0.2s0.2,0.1 0.2,0.2l0,0c0,0.1 -0.1,0.2 -0.2,0.2s-0.2,0 -0.2,-0.2zm0.1,0.8l0.3,0l0,2.4l-0.3,0l0,-2.4z" id="svg_89"/>
   <path d="m331.8,102.4c-0.1,0.1 -0.3,0.2 -0.5,0.2c-0.4,0 -0.7,-0.2 -0.7,-0.6l0,-0.1l0,-1.5l-0.4,0l0,-0.3l0.4,0l0,-0.5l0.3,0l0,0.5l0.7,0l0,0.3l-0.7,0l0,1.5c0,0.2 0.1,0.4 0.3,0.4l0.1,0c0.1,0 0.3,0 0.4,-0.1l0.1,0.2z" id="svg_90"/>
   <path d="m335.5,101l0,1.5l-0.3,0l0,-0.4c-0.2,0.3 -0.5,0.4 -0.8,0.4c-0.5,0 -0.9,-0.3 -0.9,-0.7s0.2,-0.7 0.9,-0.7l0.8,0l0,-0.1c0,-0.3 -0.2,-0.6 -0.5,-0.7l-0.1,0c-0.3,0 -0.6,0.1 -0.8,0.3l-0.1,-0.2c0.3,-0.2 0.6,-0.3 1,-0.3c0.5,-0.1 0.9,0.3 1,0.7c-0.2,0.1 -0.2,0.2 -0.2,0.2zm-0.3,0.8l0,-0.4l-0.8,0c-0.5,0 -0.6,0.2 -0.6,0.4s0.2,0.5 0.6,0.5c0.3,0 0.6,-0.1 0.8,-0.5l0,0z" id="svg_91"/>
   <path d="m340.4,101.1l0,1.4l-0.3,0l0,-1.4c0,-0.5 -0.3,-0.8 -0.7,-0.8c-0.4,0 -0.8,0.3 -0.8,0.8l0,0.1l0,1.3l-0.3,0l0,-1.4c0,-0.5 -0.3,-0.8 -0.7,-0.8c-0.4,0 -0.8,0.3 -0.8,0.8l0,0.1l0,1.3l-0.3,0l0,-2.4l0.3,0l0,0.4c0.2,-0.3 0.5,-0.5 0.9,-0.5s0.7,0.2 0.9,0.5c0.2,-0.4 0.6,-0.6 1,-0.5c0.5,0 0.9,0.4 1,0.9c-0.2,0.1 -0.2,0.2 -0.2,0.2z" id="svg_92"/>
   <path d="m343.4,101.4l-2,0c0,0.5 0.5,0.9 1,0.9l0,0c0.3,0 0.6,-0.1 0.8,-0.3l0.2,0.2c-0.2,0.3 -0.6,0.4 -0.9,0.4c-0.7,0 -1.2,-0.5 -1.3,-1.1l0,-0.1c0,-0.7 0.5,-1.2 1.2,-1.2s1.2,0.5 1.2,1.2c-0.1,-0.1 -0.2,0 -0.2,0zm-2,-0.2l1.7,0c-0.1,-0.5 -0.5,-0.8 -1,-0.8c-0.3,0.1 -0.6,0.4 -0.7,0.8z" id="svg_93"/>
   <path d="m345.4,102.4c-0.1,0.1 -0.3,0.2 -0.5,0.2c-0.4,0 -0.7,-0.2 -0.7,-0.6l0,-0.1l0,-1.5l-0.4,0l0,-0.3l0.4,0l0,-0.5l0.3,0l0,0.5l0.7,0l0,0.3l-0.7,0l0,1.5c0,0.2 0.1,0.4 0.3,0.4l0.1,0c0.1,0 0.3,0 0.4,-0.1l0.1,0.2z" id="svg_94"/>
   <path d="m346.3,102.3c0,0.1 0,0.2 -0.1,0.3l-0.2,0.6l-0.2,0l0.2,-0.7c-0.1,0 -0.2,-0.1 -0.2,-0.2c0,-0.1 0.1,-0.2 0.2,-0.2c0.2,0 0.3,0.1 0.3,0.2l0,0z" id="svg_95"/>
   <path d="m348,101.3c0,-0.7 0.5,-1.2 1.2,-1.2l0.1,0c0.4,0 0.8,0.2 1,0.5l-0.2,0.2c-0.2,-0.2 -0.4,-0.4 -0.7,-0.4c-0.5,0.2 -0.8,0.7 -0.6,1.3c0.1,0.3 0.3,0.5 0.6,0.6c0.3,0 0.5,-0.1 0.7,-0.4l0.2,0.2c-0.2,0.3 -0.6,0.5 -1,0.5c-0.7,0 -1.3,-0.5 -1.3,-1.3c0,0.1 0,0.1 0,0z" id="svg_96"/>
   <path d="m350.6,101.3c0,-0.7 0.6,-1.2 1.2,-1.2s1.2,0.6 1.2,1.2c0,0.7 -0.6,1.2 -1.2,1.2c-0.7,0.1 -1.2,-0.4 -1.2,-1.2c0,0.1 0,0.1 0,0zm2.1,0c0.1,-0.5 -0.3,-0.9 -0.8,-1l-0.1,0c-0.5,0.2 -0.8,0.7 -0.6,1.3c0.1,0.3 0.3,0.5 0.6,0.6c0.5,0 0.9,-0.4 0.9,-0.9l0,0z" id="svg_97"/>
   <path d="m356,101.1l0,1.4l-0.3,0l0,-1.4c0.1,-0.4 -0.2,-0.7 -0.6,-0.8c-0.1,0 -0.1,0 -0.2,0c-0.4,0 -0.8,0.3 -0.9,0.7l0,0.1l0,1.3l-0.3,0l0,-2.4l0.3,0l0,0.4c0.2,-0.3 0.6,-0.5 0.9,-0.5c0.5,0 1,0.4 1,0.9c0.1,0.2 0.1,0.3 0.1,0.3z" id="svg_98"/>
   <path d="m356.5,102.3l0.1,-0.3c0.3,0.2 0.6,0.3 0.9,0.3c0.5,0 0.6,-0.2 0.6,-0.4c0,-0.6 -1.6,-0.1 -1.6,-1.1c0,-0.4 0.3,-0.7 1,-0.7c0.3,0 0.6,0.1 0.9,0.2l-0.1,0.3c-0.2,-0.1 -0.5,-0.2 -0.7,-0.2c-0.4,0 -0.6,0.2 -0.6,0.4c0,0.7 1.6,0.2 1.6,1.1c0,0.4 -0.4,0.7 -1,0.7c-0.4,0 -0.8,-0.1 -1.1,-0.3z" id="svg_99"/>
   <path d="m361.2,101.4l-2,0c0,0.5 0.5,0.9 1,0.9l0,0c0.3,0 0.6,-0.1 0.8,-0.3l0.2,0.2c-0.2,0.3 -0.6,0.4 -0.9,0.4c-0.7,0 -1.2,-0.5 -1.3,-1.1l0,-0.1c0,-0.7 0.5,-1.2 1.1,-1.2c0,0 0,0 0.1,0c0.6,0 1.2,0.5 1.2,1.1l0,0.1l-0.2,0zm-2,-0.2l1.7,0c-0.1,-0.5 -0.5,-0.8 -1,-0.8c-0.4,0.1 -0.7,0.4 -0.7,0.8l0,0z" id="svg_100"/>
   <path d="m361.7,101.3c0,-0.7 0.5,-1.2 1.2,-1.2l0.1,0c0.4,0 0.8,0.2 1,0.5l-0.2,0.2c-0.2,-0.2 -0.4,-0.4 -0.7,-0.4c-0.5,0.2 -0.8,0.7 -0.6,1.3c0.1,0.3 0.3,0.5 0.6,0.6c0.3,0 0.5,-0.1 0.7,-0.4l0.2,0.2c-0.2,0.3 -0.6,0.5 -1,0.5c-0.7,0 -1.3,-0.5 -1.3,-1.3c0,0.1 0,0.1 0,0z" id="svg_101"/>
   <path d="m365.8,102.4c-0.1,0.1 -0.3,0.2 -0.5,0.2c-0.4,0 -0.7,-0.2 -0.7,-0.6l0,-0.1l0,-1.5l-0.4,0l0,-0.3l0.4,0l0,-0.5l0.3,0l0,0.5l0.7,0l0,0.3l-0.7,0l0,1.5c0,0.2 0.1,0.4 0.3,0.4l0.1,0c0.1,0 0.3,0 0.4,-0.1l0.1,0.2z" id="svg_102"/>
   <path d="m368.5,101.4l-2,0c0,0.5 0.5,0.9 1,0.9l0,0c0.3,0 0.6,-0.1 0.8,-0.3l0.2,0.2c-0.2,0.3 -0.6,0.4 -0.9,0.4c-0.7,0 -1.2,-0.5 -1.3,-1.1l0,-0.1c0,-0.7 0.5,-1.2 1.2,-1.2s1.2,0.5 1.2,1.2c-0.1,-0.1 -0.2,0 -0.2,0zm-2,-0.2l1.7,0c-0.1,-0.5 -0.5,-0.8 -1,-0.8c-0.4,0.1 -0.7,0.4 -0.7,0.8z" id="svg_103"/>
   <path d="m370.4,102.4c-0.1,0.1 -0.3,0.2 -0.5,0.2c-0.4,0 -0.7,-0.2 -0.7,-0.6l0,-0.1l0,-1.5l-0.4,0l0,-0.3l0.4,0l0,-0.5l0.3,0l0,0.5l0.7,0l0,0.3l-0.7,0l0,1.5c0,0.2 0.1,0.4 0.3,0.4l0.1,0c0.1,0 0.3,0 0.4,-0.1l0.1,0.2z" id="svg_104"/>
   <path d="m373.2,100.1l0,2.4l-0.3,0l0,-0.4c-0.2,0.3 -0.5,0.5 -0.9,0.5c-0.6,0 -1,-0.4 -1,-1c0,0 0,0 0,-0.1l0,-1.4l0.3,0l0,1.4c0,0.5 0.3,0.8 0.7,0.8c0.4,0 0.8,-0.3 0.8,-0.7l0,-0.1l0,-1.3l0.4,-0.1l0,0z" id="svg_105"/>
   <path d="m376.3,101.4l-2,0c0,0.5 0.4,0.9 0.9,0.9c0,0 0,0 0.1,0c0.3,0 0.6,-0.1 0.7,-0.3l0.2,0.2c-0.5,0.5 -1.3,0.5 -1.8,0c-0.2,-0.2 -0.4,-0.6 -0.4,-0.9c0,-0.6 0.5,-1.2 1.1,-1.2l0.1,0c0.6,0 1.2,0.5 1.2,1.1l0,0.1l-0.1,0.1zm-2,-0.2l1.7,0c-0.1,-0.5 -0.5,-0.8 -1,-0.8c-0.4,0.1 -0.7,0.4 -0.7,0.8z" id="svg_106"/>
   <path d="m378.2,100.1l0,0.3l-0.1,0c-0.4,0 -0.8,0.3 -0.8,0.8l0,0.1l0,1.2l-0.4,0l0,-2.4l0.3,0l0,0.5c0.2,-0.4 0.6,-0.6 1,-0.5z" id="svg_107"/>
   <path d="m271.3,106.6l0,1.5l-0.3,0l0,-0.4c-0.2,0.3 -0.5,0.4 -0.8,0.4c-0.5,0 -0.9,-0.3 -0.9,-0.7s0.2,-0.7 0.9,-0.7l0.7,0l0,-0.1c0,-0.4 -0.2,-0.6 -0.7,-0.6c-0.3,0 -0.6,0.1 -0.8,0.3l-0.1,-0.2c0.3,-0.2 0.6,-0.3 1,-0.3c0.5,-0.1 0.9,0.2 1,0.7c0,-0.1 0,0 0,0.1zm-0.4,0.8l0,-0.4l-0.8,0c-0.5,0 -0.6,0.2 -0.6,0.4s0.2,0.5 0.6,0.5s0.7,-0.2 0.8,-0.5l0,0z" id="svg_108"/>
   <path d="m274.4,104.7l0,3.4l-0.3,0l0,-0.5c-0.2,0.3 -0.6,0.5 -1,0.5c-0.7,-0.1 -1.2,-0.7 -1.1,-1.4c0.1,-0.6 0.5,-1.1 1.1,-1.1c0.4,0 0.7,0.2 0.9,0.5l0,-1.5l0.4,0l0,0.1zm-0.3,2.2c0,-0.5 -0.4,-0.9 -0.9,-0.9s-0.9,0.4 -0.9,0.9s0.4,0.9 0.9,0.9c0.5,0.1 0.9,-0.3 0.9,-0.9l0,0l0,0z" id="svg_109"/>
   <path d="m275.2,104.9c0,-0.1 0.1,-0.2 0.2,-0.2s0.2,0.1 0.2,0.2l0,0c0,0.1 -0.2,0.2 -0.3,0.2c0,0 0,-0.1 -0.1,-0.2zm0.1,0.8l0.3,0l0,2.4l-0.3,0l0,-2.4z" id="svg_110"/>
   <path d="m279,106.9c0,0.7 -0.5,1.2 -1.1,1.2l-0.1,0c-0.4,0 -0.7,-0.2 -0.9,-0.5l0,1.4l-0.3,0l0,-3.3l0.3,0l0,0.5c0.2,-0.3 0.6,-0.5 0.9,-0.5c0.7,-0.1 1.2,0.5 1.2,1.2l0,0zm-0.3,0c0,-0.5 -0.4,-0.9 -0.9,-0.9s-0.9,0.4 -0.9,0.9s0.4,0.9 0.9,0.9s0.9,-0.4 0.9,-0.9z" id="svg_111"/>
   <path d="m279.6,104.9c0,-0.1 0.1,-0.2 0.2,-0.2s0.2,0.1 0.2,0.2l0,0c0,0.1 -0.1,0.2 -0.2,0.2s-0.2,-0.1 -0.2,-0.2zm0.1,0.8l0.3,0l0,2.4l-0.3,0l0,-2.4z" id="svg_112"/>
   <path d="m280.6,107.8l0.1,-0.3c0.3,0.2 0.6,0.3 0.9,0.3c0.5,0 0.6,-0.2 0.6,-0.4c0,-0.6 -1.6,-0.1 -1.6,-1.1c0,-0.4 0.3,-0.7 1,-0.7c0.3,0 0.6,0.1 0.9,0.2l-0.1,0.3c-0.2,-0.1 -0.5,-0.2 -0.7,-0.2c-0.4,0 -0.6,0.2 -0.6,0.4c0,0.7 1.6,0.2 1.6,1.1c0,0.4 -0.4,0.7 -1,0.7c-0.4,0.1 -0.8,0 -1.1,-0.3z" id="svg_113"/>
   <path d="m283,106.9c0,-0.7 0.5,-1.2 1.2,-1.2l0.1,0c0.4,0 0.8,0.2 1,0.5l-0.2,0.2c-0.2,-0.2 -0.4,-0.4 -0.7,-0.4c-0.5,0.2 -0.8,0.7 -0.6,1.3c0.1,0.3 0.3,0.5 0.6,0.6c0.3,0 0.5,-0.1 0.7,-0.4l0.2,0.2c-0.2,0.3 -0.6,0.5 -1,0.5c-0.7,0 -1.3,-0.6 -1.3,-1.3c0,0.1 0,0 0,0z" id="svg_114"/>
   <path d="m285.7,104.9c0,-0.1 0.1,-0.2 0.2,-0.2s0.2,0.1 0.2,0.2l0,0c0,0.1 -0.1,0.2 -0.2,0.2s-0.2,-0.1 -0.2,-0.2zm0.1,0.8l0.3,0l0,2.4l-0.3,0l0,-2.4z" id="svg_115"/>
   <path d="m289.3,106.7l0,1.4l-0.3,0l0,-1.4c0.1,-0.4 -0.2,-0.7 -0.6,-0.8c-0.1,0 -0.1,0 -0.2,0c-0.4,0 -0.8,0.3 -0.9,0.7l0,0.1l0,1.3l-0.3,0l0,-2.4l0.3,0l0,0.4c0.2,-0.3 0.6,-0.5 0.9,-0.5c0.5,0 1,0.4 1,0.9c0.1,0.2 0.1,0.2 0.1,0.3z" id="svg_116"/>
   <path d="m292.5,105.7l0,2.2c0.1,0.6 -0.3,1.1 -0.9,1.2c-0.1,0 -0.2,0 -0.3,0c-0.4,0 -0.8,-0.1 -1.1,-0.4l0.2,-0.2c0.3,0.2 0.6,0.4 1,0.3c0.6,0 0.9,-0.3 0.9,-0.9l0,-0.3c-0.2,0.3 -0.6,0.5 -1,0.5c-0.7,0.1 -1.2,-0.4 -1.3,-1.1c-0.1,-0.7 0.4,-1.2 1.1,-1.3c0.1,0 0.1,0 0.2,0c0.4,0 0.8,0.2 1,0.5l0,-0.5l0.2,0zm-0.3,1.1c0,-0.5 -0.4,-0.9 -0.9,-1s-0.9,0.4 -1,0.9s0.4,0.9 0.9,1l0,0c0.5,0.1 0.9,-0.3 1,-0.9c0,0.1 0,0.1 0,0l0,0z" id="svg_117"/>
   <path d="m296.7,107l-2,0c0,0.5 0.4,0.9 0.9,0.8c0,0 0,0 0.1,0c0.3,0 0.6,-0.1 0.7,-0.3l0.2,0.2c-0.5,0.5 -1.3,0.5 -1.8,0c-0.2,-0.2 -0.4,-0.6 -0.4,-0.9c0,-0.6 0.5,-1.2 1.1,-1.2l0.1,0c0.6,0 1.2,0.5 1.2,1.1l0,0.1l-0.1,0.2zm-2,-0.2l1.7,0c-0.1,-0.5 -0.5,-0.8 -1,-0.8c-0.3,0 -0.6,0.3 -0.7,0.8z" id="svg_118"/>
   <path d="m297.4,104.7l0.3,0l0,3.4l-0.3,0l0,-3.4z" id="svg_119"/>
   <path d="m298.6,104.9c0,-0.1 0.1,-0.2 0.2,-0.2s0.2,0.1 0.2,0.2l0,0c0,0.1 -0.2,0.2 -0.3,0.2c0,0 -0.1,-0.1 -0.1,-0.2zm0.1,0.8l0.3,0l0,2.4l-0.3,0l0,-2.4z" id="svg_120"/>
   <path d="m301.2,108c-0.1,0.1 -0.3,0.2 -0.5,0.2c-0.4,0 -0.7,-0.2 -0.7,-0.6l0,-0.1l0,-1.5l-0.4,0l0,-0.3l0.4,0l0,-0.5l0.3,0l0,0.5l0.7,0l0,0.3l-0.7,0l0,1.5c0,0.2 0.1,0.4 0.3,0.4l0.1,0c0.1,0 0.3,0 0.4,-0.1l0.1,0.2z" id="svg_121"/>
   <path d="m302.1,107.8c0,0.1 0,0.2 -0.1,0.3l-0.2,0.6l-0.2,0l0.2,-0.7c-0.1,0 -0.2,-0.1 -0.2,-0.2c0,-0.1 0.1,-0.2 0.2,-0.2c0.2,0 0.3,0.1 0.3,0.2l0,0z" id="svg_122"/>
   <path d="m303.7,107.8l0.1,-0.3c0.3,0.2 0.6,0.3 0.9,0.3c0.5,0 0.6,-0.2 0.6,-0.4c0,-0.6 -1.6,-0.1 -1.6,-1.1c0,-0.4 0.3,-0.7 1,-0.7c0.3,0 0.6,0.1 0.9,0.2l-0.1,0.3c-0.2,-0.1 -0.5,-0.2 -0.7,-0.2c-0.4,0 -0.6,0.2 -0.6,0.4c0,0.7 1.6,0.2 1.6,1.1c0,0.4 -0.4,0.7 -1,0.7c-0.4,0.1 -0.8,0 -1.1,-0.3z" id="svg_123"/>
   <path d="m308.4,107l-2,0c0,0.5 0.5,0.9 1,0.8l0,0c0.3,0 0.6,-0.1 0.8,-0.3l0.2,0.2c-0.5,0.5 -1.3,0.5 -1.8,0c-0.2,-0.2 -0.4,-0.6 -0.4,-0.9c0,-0.6 0.5,-1.2 1.1,-1.2l0.1,0c0.6,0 1.2,0.5 1.2,1.1l0,0.1l-0.2,0.2zm-2,-0.2l1.7,0c-0.1,-0.5 -0.5,-0.8 -1,-0.8c-0.3,0 -0.6,0.3 -0.7,0.8z" id="svg_124"/>
   <path d="m311.3,104.7l0,3.4l-0.3,0l0,-0.5c-0.2,0.3 -0.6,0.5 -0.9,0.5c-0.7,-0.1 -1.2,-0.7 -1.1,-1.4c0.1,-0.6 0.5,-1.1 1.1,-1.1c0.4,0 0.7,0.2 0.9,0.5l0,-1.5l0.3,0l0,0.1zm-0.3,2.2c0,-0.5 -0.4,-0.9 -0.9,-0.9s-0.9,0.4 -0.9,0.9s0.4,0.9 0.9,0.9c0.5,0.1 0.9,-0.3 0.9,-0.9l0,0z" id="svg_125"/>
   <path d="m315.7,104.7l0,3.4l-0.3,0l0,-0.5c-0.2,0.3 -0.6,0.5 -0.9,0.5c-0.7,-0.1 -1.2,-0.7 -1.1,-1.4c0.1,-0.6 0.5,-1.1 1.1,-1.1c0.4,0 0.7,0.2 0.9,0.5l0,-1.5l0.3,0l0,0.1zm-0.4,2.2c0,-0.5 -0.4,-0.9 -0.9,-0.9s-0.9,0.4 -0.9,0.9s0.4,0.9 0.9,0.9s0.9,-0.3 0.9,-0.9c0.1,0 0.1,0 0,0z" id="svg_126"/>
   <path d="m316.5,104.9c0,-0.1 0.1,-0.2 0.2,-0.2s0.2,0.1 0.2,0.2c0,0.1 -0.1,0.2 -0.2,0.2l0,0c-0.1,0 -0.2,-0.1 -0.2,-0.2l0,0zm0.1,0.8l0.3,0l0,2.4l-0.3,0l0,-2.4z" id="svg_127"/>
   <path d="m319.7,106.6l0,1.5l-0.3,0l0,-0.4c-0.2,0.3 -0.5,0.4 -0.8,0.4c-0.5,0 -0.9,-0.3 -0.9,-0.7s0.2,-0.7 0.9,-0.7l0.8,0l0,-0.1c0,-0.3 -0.2,-0.6 -0.5,-0.7l-0.1,0c-0.3,0 -0.6,0.1 -0.8,0.3l-0.1,-0.2c0.3,-0.2 0.6,-0.3 1,-0.3c0.5,-0.1 0.9,0.3 1,0.7c-0.2,0.1 -0.2,0.1 -0.2,0.2zm-0.4,0.8l0,-0.4l-0.8,0c-0.5,0 -0.6,0.2 -0.6,0.4s0.2,0.5 0.6,0.5s0.7,-0.2 0.8,-0.5z" id="svg_128"/>
   <path d="m324.6,106.7l0,1.4l-0.3,0l0,-1.4c0,-0.5 -0.3,-0.8 -0.7,-0.8c-0.4,0 -0.8,0.3 -0.8,0.8l0,0.1l0,1.3l-0.3,0l0,-1.4c0,-0.5 -0.3,-0.8 -0.7,-0.8c-0.4,0 -0.8,0.3 -0.8,0.8l0,0.1l0,1.3l-0.3,0l0,-2.4l0.3,0l0,0.4c0.2,-0.3 0.5,-0.5 0.9,-0.5s0.7,0.2 0.9,0.5c0.2,-0.4 0.6,-0.6 1,-0.5c0.5,0 0.9,0.4 0.9,0.9c-0.1,0.1 -0.1,0.2 -0.1,0.2z" id="svg_129"/>
   <path d="m327.4,105.8l-1.6,0.6l1.6,0.6l0,0.4l-2.1,-0.8l0,-0.4l2.1,-0.8l0,0.4z" id="svg_130"/>
   <path d="m329.1,104.2l0.4,0l-1.5,4.4l-0.4,0l1.5,-4.4z" id="svg_131"/>
   <path d="m332.6,104.8l0,3.2l-0.5,0l0,-1.4l-1.9,0l0,1.4l-0.5,0l0,-3.2l0.5,0l0,1.4l1.9,0l0,-1.4l0.5,0z" id="svg_132"/>
   <path d="m334.3,104.8l0,3.2l-0.4,0l0,-2.8l-0.7,0l0,-0.4l1.1,0z" id="svg_133"/>
   <path d="m337.2,106.3l0,0.4l-2.1,0.8l0,-0.4l1.7,-0.6l-1.7,-0.6l0,-0.4l2.1,0.8z" id="svg_134"/>
   <path d="m271.4,117l-1.6,0.6l1.6,0.6l0,0.4l-2.1,-0.8l0,-0.4l2.1,-0.8l0,0.4z" id="svg_135"/>
   <path d="m274.8,117.1c0,0.7 -0.5,1.1 -1.4,1.1l-0.8,0l0,1l-0.5,0l0,-3.2l1.3,0c0.9,0 1.4,0.4 1.4,1.1zm-0.5,0c0,-0.5 -0.3,-0.7 -0.9,-0.7l-0.8,0l0,1.4l0.8,0c0.6,0 0.9,-0.2 0.9,-0.7z" id="svg_136"/>
   <path d="m277.4,117.4l0,0.4l-2.1,0.8l0,-0.4l1.6,-0.6l-1.6,-0.6l0,-0.4l2.1,0.8z" id="svg_137"/>
   <path d="m281.3,117l-1.6,0.6l1.6,0.6l0,0.4l-2.1,-0.8l0,-0.4l2.1,-0.8l0,0.4z" id="svg_138"/>
   <path d="m282.1,116l0.5,0l0,3.2l-0.5,0l0,-3.2z" id="svg_139"/>
   <path d="m286.6,119.2l0,-2.4l-1.2,2l-0.2,0l-1.2,-2l0,2.4l-0.4,0l0,-3.2l0.4,0l1.4,2.3l1.3,-2.3l0.4,0l0,3.2l-0.5,0z" id="svg_140"/>
   <path d="m290.2,117.6l0.5,0l0,1.2c-0.4,0.3 -0.8,0.4 -1.2,0.4c-0.9,0 -1.6,-0.8 -1.6,-1.7s0.8,-1.6 1.7,-1.6c0.4,0 0.8,0.2 1.1,0.5l-0.3,0.3c-0.2,-0.3 -0.6,-0.4 -0.9,-0.4c-0.7,0 -1.2,0.6 -1.2,1.2s0.6,1.2 1.2,1.2c0.3,0 0.5,-0.1 0.8,-0.2l-0.1,-0.9z" id="svg_141"/>
   <path d="m292.5,118.8l0.2,-0.4c0.3,0.2 0.7,0.4 1.1,0.4c0.6,0 0.8,-0.2 0.8,-0.5c0,-0.8 -2,-0.3 -2,-1.5c0,-0.5 0.4,-0.9 1.2,-0.9c0.4,0 0.7,0.1 1,0.3l-0.2,0.4c-0.3,-0.2 -0.6,-0.3 -0.9,-0.3c-0.5,0 -0.8,0.2 -0.8,0.5c0,0.8 2,0.3 2,1.5c0,0.5 -0.4,0.9 -1.3,0.9c-0.3,0.1 -0.7,-0.1 -1.1,-0.4z" id="svg_142"/>
   <path d="m297.9,119.2l-0.7,-1l-1,0l0,1l-0.5,0l0,-3.2l1.3,0c0.9,0 1.4,0.4 1.4,1.1c0,0.5 -0.3,0.9 -0.7,1l0.8,1.1l-0.6,0zm0,-2.1c0,-0.5 -0.3,-0.7 -0.9,-0.7l-0.8,0l0,1.4l0.8,0c0.5,0 0.9,-0.2 0.9,-0.7z" id="svg_143"/>
   <path d="m298.8,117.6c0,-0.9 0.7,-1.6 1.6,-1.7l0.1,0c0.5,0 0.9,0.2 1.2,0.5l-0.3,0.3c-0.2,-0.3 -0.6,-0.4 -0.9,-0.4c-0.7,0 -1.2,0.6 -1.2,1.2s0.6,1.2 1.2,1.2c0.3,0 0.7,-0.1 0.9,-0.4l0.3,0.3c-0.3,0.3 -0.8,0.5 -1.2,0.5c-0.9,0 -1.7,-0.7 -1.7,-1.5c0,0.1 0,0 0,0z" id="svg_144"/>
   <path d="m302.2,116.8l2.1,0l0,0.4l-2.1,0l0,-0.4zm0,1.1l2.1,0l0,0.4l-2.1,0l0,-0.4z" id="svg_145"/>
   <path d="m306.2,116l0.4,0l0,1.2l-0.3,0l-0.1,-1.2zm0.8,0l0.4,0l0,1.2l-0.3,0l-0.1,-1.2z" id="svg_146"/>
   <path d="m308.2,116l0.5,0l0,2.9l1.8,0l0,0.4l-2.2,0l-0.1,-3.3l0,0z" id="svg_147"/>
   <path d="m310.6,118c0,-0.7 0.6,-1.3 1.3,-1.3c0.7,0 1.3,0.6 1.3,1.3s-0.6,1.3 -1.3,1.3l0,0c-0.7,0 -1.2,-0.5 -1.3,-1.2l0,-0.1zm2.1,0c0.1,-0.5 -0.3,-0.9 -0.7,-0.9c-0.5,-0.1 -0.9,0.3 -0.9,0.7c0,0.1 0,0.1 0,0.2c-0.1,0.5 0.3,0.9 0.7,0.9c0.5,0.1 0.9,-0.3 0.9,-0.7c0,-0.1 0,-0.1 0,-0.2z" id="svg_148"/>
   <path d="m315.1,116.8l0,0.4l-0.1,0c-0.4,0 -0.8,0.3 -0.8,0.7l0,0.1l0,1.2l-0.4,0l0,-2.4l0.4,0l0,0.4c0.2,-0.3 0.5,-0.5 0.9,-0.4z" id="svg_149"/>
   <path d="m317.8,118.2l-2,0c0.1,0.4 0.4,0.8 0.9,0.7c0.3,0 0.5,-0.1 0.7,-0.3l0.2,0.3c-0.5,0.5 -1.4,0.5 -1.9,0c-0.2,-0.2 -0.4,-0.5 -0.4,-0.9c0,-0.7 0.5,-1.2 1.2,-1.2c0,0 0,0 0.1,0c0.7,0 1.2,0.5 1.2,1.1l0,0.1l0,0.2l0,0zm-2,-0.4l1.6,0c-0.1,-0.4 -0.5,-0.7 -0.9,-0.7c-0.3,0.1 -0.6,0.4 -0.7,0.7z" id="svg_150"/>
   <path d="m322.5,117.8l0,1.4l-0.4,0l0,-1.4c0,-0.5 -0.2,-0.7 -0.6,-0.7s-0.7,0.3 -0.7,0.8l0,1.3l-0.4,0l0,-1.4c0,-0.5 -0.2,-0.7 -0.6,-0.7s-0.7,0.3 -0.7,0.7l0,0.1l0,1.3l-0.4,0l0,-2.4l0.5,0l0,0.4c0.2,-0.3 0.5,-0.4 0.8,-0.4c0.4,0 0.7,0.2 0.9,0.5c0.2,-0.3 0.6,-0.5 0.9,-0.5c0.6,0 1,0.5 1,1c-0.3,0 -0.3,0 -0.3,0z" id="svg_151"/>
   <path d="m324.5,116c0,-0.2 0.1,-0.3 0.3,-0.3l0,0c0.2,0 0.3,0.1 0.3,0.3s-0.1,0.3 -0.3,0.3c-0.1,0 -0.3,-0.1 -0.3,-0.3l0,0zm0.1,0.8l0.5,0l0,2.4l-0.5,0l0,-2.4z" id="svg_152"/>
   <path d="m328.4,118c0,0.7 -0.5,1.2 -1.1,1.3l-0.1,0c-0.3,0 -0.7,-0.1 -0.9,-0.4l0,1.3l-0.4,0l0,-3.4l0.4,0l0,0.4c0.2,-0.3 0.5,-0.4 0.9,-0.4c0.7,0 1.2,0.5 1.2,1.2c0,-0.1 0,0 0,0zm-0.4,0c0,-0.5 -0.4,-0.8 -0.9,-0.8s-0.8,0.4 -0.8,0.9c0,0.4 0.4,0.8 0.8,0.8c0.5,0 0.9,-0.4 0.9,-0.9c0,0.1 0,0 0,0z" id="svg_153"/>
   <path d="m328.7,119l0.2,-0.4c0.3,0.2 0.6,0.3 0.9,0.3c0.4,0 0.6,-0.1 0.6,-0.3c0,-0.6 -1.6,-0.1 -1.6,-1c0,-0.4 0.4,-0.7 1,-0.7c0.3,0 0.6,0.1 0.9,0.2l-0.2,0.4c-0.2,-0.1 -0.5,-0.2 -0.7,-0.2c-0.4,0 -0.6,0.1 -0.6,0.3c0,0.6 1.5,0.1 1.5,1.1c0,0.4 -0.4,0.7 -1.1,0.7c-0.2,-0.1 -0.6,-0.2 -0.9,-0.4z" id="svg_154"/>
   <path d="m333.7,116.8l0,2.4l-0.4,0l0,-0.4c-0.2,0.3 -0.5,0.4 -0.8,0.4c-0.6,0 -1,-0.4 -1.1,-0.9l0,-0.1l0,-1.4l0.5,0l0,1.4c0,0.5 0.2,0.7 0.7,0.7c0.4,0 0.7,-0.3 0.8,-0.7c0,-0.1 0,-0.1 0,-0.2l0,-1.3l0.3,0.1z" id="svg_155"/>
   <path d="m338.6,117.8l0,1.4l-0.5,0l0,-1.4c0,-0.5 -0.2,-0.7 -0.6,-0.7s-0.7,0.3 -0.7,0.8l0,1.3l-0.5,0l0,-1.4c0,-0.5 -0.2,-0.7 -0.6,-0.7s-0.7,0.3 -0.7,0.8l0,1.3l-0.4,0l0,-2.4l0.4,0l0,0.4c0.2,-0.3 0.5,-0.4 0.9,-0.4c0.3,0 0.7,0.2 0.9,0.5c0.2,-0.3 0.6,-0.5 1,-0.5c0.6,0 1,0.4 1,1c-0.2,-0.1 -0.2,0 -0.2,0z" id="svg_156"/>
   <path d="m339.3,116l0.4,0l0,1.2l-0.3,0l-0.1,-1.2zm0.8,0l0.4,0l0,1.2l-0.3,0l-0.1,-1.2z" id="svg_157"/>
   <path d="m343.2,117.4l0,0.4l-2.1,0.8l0,-0.4l1.6,-0.6l-1.6,-0.6l0,-0.4l2.1,0.8z" id="svg_158"/>
   <path d="m345.9,117l-1.6,0.6l1.6,0.6l0,0.4l-2.1,-0.8l0,-0.4l2.1,-0.8l0,0.4z" id="svg_159"/>
   <path d="m347.6,115.3l0.4,0l-1.5,4.4l-0.4,0l1.5,-4.4z" id="svg_160"/>
   <path d="m350.9,117.1c0,0.7 -0.5,1.1 -1.4,1.1l-0.8,0l0,1l-0.5,0l0,-3.2l1.3,0c0.9,0 1.4,0.4 1.4,1.1zm-0.5,0c0,-0.5 -0.3,-0.7 -0.9,-0.7l-0.8,0l0,1.4l0.8,0c0.7,0 1,-0.2 0.9,-0.7l0,0z" id="svg_161"/>
   <path d="m353.6,117.4l0,0.4l-2.1,0.8l0,-0.4l1.7,-0.6l-1.7,-0.6l0,-0.4l2.1,0.8z" id="svg_162"/>
   <path d="m271.4,128.1l-1.6,0.6l1.6,0.6l0,0.4l-2.1,-0.8l0,-0.4l2.1,-0.8l0,0.4z" id="svg_163"/>
   <path d="m273.1,126.5l0.4,0l-1.6,4.4l-0.4,0l1.6,-4.4z" id="svg_164"/>
   <path d="m276.6,129.5c0,0.6 -0.4,0.9 -1.2,0.9l-1.5,0l0,-3.2l1.5,0c0.8,0 1.2,0.3 1.2,0.8c0,0.3 -0.2,0.6 -0.4,0.7c0.1,0.1 0.4,0.4 0.4,0.8zm-2.4,-2l0,1l1,0c0.5,0 0.8,-0.2 0.8,-0.5c0,-0.3 -0.3,-0.5 -0.8,-0.5l-1,0zm1.9,2c0,-0.4 -0.3,-0.5 -0.8,-0.5l-1.1,0l0,1.1l1.1,0c0.5,-0.1 0.8,-0.3 0.8,-0.6l0,0z" id="svg_165"/>
   <path d="m277,128.7c0,-1 0.7,-1.8 1.7,-1.8s1.8,0.7 1.8,1.7c0,1 -0.7,1.8 -1.7,1.8c0,0 0,0 -0.1,0c-0.9,0 -1.6,-0.7 -1.7,-1.7c0,0.1 0,0.1 0,0zm3,0c0,-0.7 -0.6,-1.3 -1.2,-1.3s-1.3,0.6 -1.3,1.2c0,0.7 0.6,1.3 1.2,1.3l0,0c0.7,0.1 1.3,-0.4 1.3,-1.2c0,0.1 0,0.1 0,0l0,0z" id="svg_166"/>
   <path d="m281.2,127.1l1.4,0c0.9,-0.1 1.7,0.6 1.8,1.5c0.1,0.9 -0.6,1.7 -1.5,1.8c-0.1,0 -0.2,0 -0.3,0l-1.4,0l0,-3.3zm1.3,2.9c0.7,0 1.2,-0.5 1.2,-1.2c0,-0.7 -0.5,-1.2 -1.2,-1.2l-0.9,0l0,2.4l0.9,0z" id="svg_167"/>
   <path d="m286.1,129.2l0,1.1l-0.5,0l0,-1.1l-1.3,-2.1l0.5,0l1,1.7l1,-1.7l0.5,0l-1.2,2.1z" id="svg_168"/>
   <path d="m289.8,128.5l0,0.4l-2.1,0.8l0,-0.4l1.6,-0.6l-1.6,-0.6l0,-0.4l2.1,0.8z" id="svg_169"/>
   <path class="st2" d="m396.1,41.2c0,0.1 -32.1,0.3 -71.7,0.3s-71.7,-0.1 -71.7,-0.3s32.1,-0.3 71.7,-0.3s71.7,0.2 71.7,0.3z" id="svg_170"/>
   <path class="st2" d="m257.1,36.1c0,0.5 -0.4,0.9 -0.9,0.9c-0.5,0 -0.9,-0.4 -0.9,-0.9s0.4,-0.9 0.9,-0.9c0.4,0 0.9,0.4 0.9,0.9z" id="svg_171"/>
   <circle class="st2" cx="259.7" cy="36.1" id="svg_172" r="0.9"/>
   <path class="st2" d="m264.1,36.1c0,0.5 -0.4,0.9 -0.9,0.9s-0.9,-0.4 -0.9,-0.9s0.4,-0.9 0.9,-0.9l0,0c0.5,0 0.9,0.4 0.9,0.9z" id="svg_173"/>
   <path class="st1" d="m261.9,149.6c-0.1,0 -0.3,-24.3 -0.3,-54.3s0.1,-54.3 0.3,-54.3s0.3,24.3 0.3,54.3s-0.2,54.3 -0.3,54.3z" id="svg_174"/>
   <rect class="st6" height="38.2" id="svg_175" width="53.6" x="383.3" y="97.1"/>
   <path class="st5" d="m401.4,114.8l0,7.6l-1.8,0l0,-3.1l-3.4,0l0,3.1l-1.8,0l0,-7.6l1.8,0l0,3l3.4,0l0,-3l1.8,0z" id="svg_176"/>
   <path class="st5" d="m404.7,116.3l-2.4,0l0,-1.5l6.6,0l0,1.4l-2.4,0l0,6.1l-1.8,0l0,-6l0,0z" id="svg_177"/>
   <path class="st5" d="m419,114.8l1.8,0l0,6.1l3.8,0l0,1.4l-5.6,0l0,-7.5z" id="svg_178"/>
   <path class="st5" d="m416.5,122.5l0,-4.5l-2.2,3.7l-0.8,0l-2.2,-3.6l0,4.4l-1.6,0l0,-7.6l1.5,0l2.8,4.7l2.8,-4.7l1.4,0l0,7.6l-1.7,0z" id="svg_179"/>
   <path class="st5" d="m437.3,102.8c0,0.1 -12.1,0.2 -27,0.2s-27,-0.1 -27,-0.2s12.1,-0.2 27,-0.2s27,0.1 27,0.2z" id="svg_180"/>
   <path class="st5" d="m387.7,100c-0.1,0.4 -0.4,0.7 -0.8,0.6c-0.3,-0.1 -0.5,-0.3 -0.6,-0.6c0.1,-0.4 0.4,-0.7 0.8,-0.6c0.3,0.1 0.5,0.3 0.6,0.6z" id="svg_181"/>
   <path class="st5" d="m390.3,100c-0.1,0.4 -0.4,0.7 -0.8,0.6c-0.3,-0.1 -0.5,-0.3 -0.6,-0.6c0.1,-0.4 0.4,-0.7 0.8,-0.6c0.3,0.1 0.5,0.3 0.6,0.6z" id="svg_182"/>
   <path class="st5" d="m392.9,100c0.1,0.4 -0.2,0.8 -0.6,0.8c-0.4,0.1 -0.8,-0.2 -0.8,-0.6c-0.1,-0.4 0.2,-0.8 0.6,-0.8l0.1,0c0.4,0 0.7,0.2 0.7,0.6z" id="svg_183"/>
   <rect class="st6" height="28.1" id="svg_184" width="39.5" x="32.7" y="96.6"/>
   <path class="st5" d="m72.5,100.8c0,0.1 -8.9,0.1 -19.9,0.1s-19.9,-0.1 -19.9,-0.1s8.9,-0.1 19.9,-0.1s19.9,0 19.9,0.1z" id="svg_185"/>
   <path class="st5" d="m35.9,98.7c0,0.3 -0.3,0.5 -0.5,0.5c-0.3,0 -0.5,-0.2 -0.5,-0.4l0,0c0,-0.3 0.3,-0.5 0.5,-0.5l0,0c0.3,-0.1 0.5,0.1 0.5,0.4l0,0z" id="svg_186"/>
   <path class="st5" d="m37.8,98.7c0,0.3 -0.3,0.5 -0.6,0.5c-0.2,0 -0.4,-0.2 -0.5,-0.5c0,-0.3 0.3,-0.5 0.6,-0.5c0.3,0.1 0.5,0.3 0.5,0.5z" id="svg_187"/>
   <path class="st5" d="m39.8,98.7c0,0.3 -0.2,0.6 -0.5,0.6s-0.6,-0.2 -0.6,-0.5s0.2,-0.6 0.5,-0.6c0,0 0,0 0.1,0c0.2,0 0.5,0.2 0.5,0.5z" id="svg_188"/>
   <path class="st6" d="m69,59c-0.1,-4.1 3.2,-7.5 7.3,-7.5c0.1,0 0.3,0 0.4,0c2,-0.1 3.9,0.6 5.3,2l-0.7,0.7c-1.2,-1.2 -2.9,-1.8 -4.5,-1.8c-3.6,-0.2 -6.7,2.5 -6.9,6.1c-0.2,3.6 2.5,6.7 6.1,6.9c0.2,0 0.5,0 0.7,0c1.7,0.1 3.3,-0.6 4.5,-1.8l0.7,0.7c-1.4,1.4 -3.3,2.1 -5.3,2.1c-4.1,0.2 -7.5,-3 -7.7,-7.1c0.1,-0.1 0.1,-0.2 0.1,-0.3z" id="svg_189"/>
   <path class="st6" d="m83.9,64.6l0.5,-0.8c1.3,1.2 3.1,1.9 4.9,1.9c3,0 4.3,-1.3 4.3,-2.9c0,-4.4 -9.2,-1.8 -9.2,-7.2c0,-2.1 1.6,-3.9 5.2,-3.9c1.6,0 3.1,0.5 4.5,1.3l-0.4,0.9c-1.2,-0.8 -2.6,-1.2 -4.1,-1.2c-2.9,0 -4.2,1.3 -4.2,3c0,4.4 9.2,1.8 9.2,7.2c0,2.1 -1.7,3.9 -5.3,3.9c-2,-0.2 -3.9,-0.9 -5.4,-2.2z" id="svg_190"/>
   <path class="st6" d="m96.8,64.6l0.5,-0.8c1.3,1.2 3.1,1.9 4.9,1.9c3,0 4.3,-1.3 4.3,-2.9c0,-4.4 -9.2,-1.8 -9.2,-7.2c0,-2.1 1.6,-3.9 5.2,-3.9c1.6,0 3.1,0.5 4.5,1.3l-0.4,0.9c-1.2,-0.8 -2.6,-1.2 -4.1,-1.2c-2.9,0 -4.2,1.3 -4.2,3c0,4.4 9.2,1.8 9.2,7.2c0,2.1 -1.7,3.9 -5.3,3.9c-2,-0.2 -4,-0.9 -5.4,-2.2z" id="svg_191"/>
   <path class="st6" d="m120.1,78.4c0,0 0,-0.3 0,-0.8s0,-1.3 0,-2.3c0,-2 0,-4.9 -0.1,-8.6c0,-7.4 -0.1,-18 -0.1,-31l0.2,0.2l-65.9,0l0,0l0.3,-0.3c0,15.1 0,29.5 0,42.6l-0.2,-0.2l47.4,0.1l13.6,0.1l3.6,0l0.9,0l0,0l-0.9,0l-3.6,0l-13.5,0.1l-47.6,0.1l-0.2,0l0,-0.2c0,-13 0,-27.4 0,-42.6l0,-0.1l0.3,0l65.9,0.1l0.2,0l0,0.2c0,13 -0.1,23.7 -0.1,31.1c0,3.7 0,6.5 0,8.5c0,1 0,1.7 0,2.2c-0.1,0.5 -0.2,0.8 -0.2,0.8z" id="svg_192"/>
   <path class="st6" d="m120.1,42c0,0.1 -14.8,0.3 -33,0.3s-33,-0.1 -33,-0.3s14.8,-0.3 33,-0.3s33,0.3 33,0.3z" id="svg_193"/>
   <path class="st6" d="m59.1,39c0.1,0.4 -0.2,0.9 -0.7,0.9c-0.4,0.1 -0.9,-0.2 -0.9,-0.7c-0.1,-0.4 0.2,-0.9 0.7,-0.9l0.1,0c0.4,-0.1 0.8,0.2 0.8,0.7l0,0z" id="svg_194"/>
   <path class="st6" d="m62,39c0.1,0.4 -0.2,0.9 -0.7,0.9c-0.4,0.1 -0.9,-0.2 -0.9,-0.7c-0.1,-0.4 0.2,-0.9 0.7,-0.9l0.1,0c0.4,-0.1 0.8,0.2 0.8,0.7l0,0z" id="svg_195"/>
   <path class="st6" d="m64.9,39c0.1,0.4 -0.2,0.9 -0.7,0.9c-0.4,0.1 -0.9,-0.2 -0.9,-0.7c-0.1,-0.4 0.2,-0.9 0.7,-0.9l0.1,0c0.4,-0.1 0.8,0.2 0.8,0.7l0,0z" id="svg_196"/>
  </g>
  <g id="freepik--Character--inject-5">
   <path class="st7" d="m128.8,152.8l26.1,88.1c1.2,3.9 4.8,6.6 8.8,6.6l106,0.3c5.4,0 9.8,-4.4 9.8,-9.8c0,-0.2 0,-0.4 0,-0.5l0,0c-0.3,-5.2 -4.6,-9.3 -9.8,-9.3l-40.5,0l-32.5,-90.4l-56.7,0c-6.4,0 -11.7,5.2 -11.7,11.7c0,1.1 0.2,2.3 0.5,3.3z" id="svg_197"/>
   <path class="st2" d="m218.5,235.5c0,0.2 -10.8,0.4 -24.1,0.4s-24.1,-0.2 -24.1,-0.4s10.8,-0.4 24.1,-0.4s24.1,0.2 24.1,0.4z" id="svg_198"/>
   <path class="st2" d="m136.6,140.6c0.2,-0.1 7.4,21 16.1,47.2s15.6,47.3 15.4,47.4s-7.4,-21 -16.1,-47.2s-15.6,-47.3 -15.4,-47.4z" id="svg_199"/>
   <polygon class="st7" id="svg_200" points="214.1,325.9 207.6,325.8 207.6,247.6 214.1,247.6  "/>
   <polygon class="st7" id="svg_201" points="180.8,325.6 240.9,325.6 213.7,316.1 207.2,316.1  "/>
   <path class="st6" d="m165.6,117.6l9.9,49.7l-1.8,37.2l66.9,-11.1l-2.6,-32.6l-0.1,-27l16.4,31.8l12.8,-24.7l-23.4,-42.3l0,0c-4.3,-4.4 -9.5,-7.8 -15.3,-9.9c-3.1,-1.1 -6.3,-1.7 -9.6,-1.8l0,0c-7.5,2.4 -15.6,2.4 -23.1,0c-0.9,0.1 -2.2,0.2 -3.9,0.4l-0.3,0c-14.2,1.8 -25.1,13.5 -25.8,27.8l-0.1,2.5z" id="svg_202"/>
   <path class="st6" d="m191.8,87.3c0,0 -27.5,0.2 -30.9,29.2l-0.5,21.3l23.7,-0.2l7.7,-50.3z" id="svg_203"/>
   <path class="st8" d="m257.4,124.6c0,0.2 -21.6,0.4 -48.3,0.4s-48.2,-0.2 -48.2,-0.4s21.6,-0.4 48.3,-0.4s48.2,0.2 48.2,0.4z" id="svg_204"/>
   <path class="st8" d="m257.4,129.3c0,0.2 -21.6,0.4 -48.3,0.4s-48.3,-0.2 -48.3,-0.4c0,-0.2 21.6,-0.4 48.3,-0.4s48.3,0.1 48.3,0.4z" id="svg_205"/>
   <path class="st8" d="m255.9,120.8c0,0.2 -21.3,0.4 -47.5,0.4s-47.5,-0.2 -47.5,-0.4s21.3,-0.4 47.5,-0.4s47.5,0.2 47.5,0.4z" id="svg_206"/>
   <path class="st2" d="m237.6,165.6c-0.2,0 -0.1,-11.8 0.2,-26.3s0.8,-26.3 1,-26.3s0.1,11.8 -0.2,26.3s-0.8,26.3 -1,26.3z" id="svg_207"/>
   <path class="st9" d="m228.2,146.5c0,0 13,0.9 15.3,4.4s5.9,13.2 4.6,13.3c-0.8,0 -1.7,-0.2 -2.3,-0.7l-3.6,-6.3c0,0 0.6,6.1 -1.6,6.2c-2.2,0.1 -12.7,2.2 -12.7,2.2l0.3,-19.1z" id="svg_208"/>
   <path class="st6" d="m160.5,132.2l-0.1,33.5c0.4,7 6.4,12.4 13.4,12c0.7,0 1.4,-0.1 2,-0.3l52.4,-10.8l-0.1,-21.5l-45.2,8.7l-0.6,-22.8l-21.8,1.2z" id="svg_209"/>
   <path class="st2" d="m190.4,174.7c0.2,-0.1 0.5,-0.1 0.7,-0.2l2,-0.5l7.7,-1.6l27.3,-5.6l-0.3,0.3c0,-6.7 0,-14.2 0,-22.1l0.4,0.4l-9.2,1.8l-36,6.9l-0.4,0.1l0,-0.3c0.3,-10 0.6,-18.3 0.8,-24.2c0.1,-2.9 0.2,-5.1 0.3,-6.8c0,-0.7 0.1,-1.3 0.1,-1.8c0,-0.2 0,-0.4 0.1,-0.6c0,0.2 0,0.4 0,0.6c0,0.5 0,1 0,1.8c0,1.6 -0.1,3.9 -0.1,6.8c-0.1,5.9 -0.3,14.2 -0.6,24.2l-0.4,-0.3l36,-7l9.2,-1.8l0.4,-0.1l0,0.5c0,7.9 0,15.3 0,22.1l0,0.3l-0.3,0l-27.4,5.3l-7.7,1.5l-2.1,0.4c0,-0.1 -0.3,-0.1 -0.5,-0.1z" id="svg_210"/>
   <path class="st2" d="m220.4,87.3c0,0 0.1,0.2 0.2,0.5c0.2,0.5 0.3,1 0.4,1.5c0.4,1.9 0.3,3.8 -0.2,5.6c-0.8,2.7 -2.4,5.1 -4.5,7c-2.6,2.3 -6,3.6 -9.5,3.6c-3.5,0.1 -6.9,-1.3 -9.4,-3.8c-2,-2.1 -3.2,-4.7 -3.5,-7.6c-0.2,-1.9 0,-3.8 0.7,-5.6c0.2,-0.5 0.4,-0.9 0.7,-1.4c0.2,-0.3 0.3,-0.4 0.3,-0.4s-0.3,0.7 -0.7,1.9c-0.5,1.8 -0.7,3.6 -0.4,5.4c0.4,2.7 1.6,5.2 3.5,7.2c2.4,2.3 5.6,3.6 8.9,3.6c3.3,0 6.6,-1.2 9.1,-3.4c2.1,-1.8 3.7,-4.1 4.5,-6.7c0.5,-1.8 0.7,-3.6 0.5,-5.4c-0.4,-1.3 -0.7,-2 -0.6,-2z" id="svg_211"/>
   <path class="st8" d="m223,168.4c-0.1,-1.1 -0.1,-2.2 0,-3.3c0.1,-2 0.2,-4.8 0.2,-7.9c0,-3.1 0,-5.9 -0.1,-8c-0.1,-1.1 -0.1,-2.2 0,-3.3c0.3,1.1 0.5,2.2 0.5,3.3c0.2,2 0.3,4.9 0.3,8s-0.2,5.9 -0.4,8c-0.1,1.1 -0.2,2.1 -0.5,3.2z" id="svg_212"/>
   <path class="st8" d="m220.2,168.9c-0.1,-1.1 -0.2,-2.2 -0.1,-3.3c0,-2.3 0.1,-5 0.1,-7.9l0,-7.9c-0.1,-1.1 0,-2.2 0.1,-3.3c0.3,1.1 0.4,2.2 0.4,3.3c0.1,2 0.2,4.8 0.2,7.9c0,3.1 -0.1,5.9 -0.3,7.9c0.1,1.2 -0.1,2.3 -0.4,3.3z" id="svg_213"/>
   <path class="st6" d="m272.7,302.1l9.9,27.3l14.1,19.3c1,1.3 0.6,3.2 -0.7,4.2l-0.1,0.1l0,0c-0.8,0.5 -1.8,0.6 -2.7,0.2c-5.7,-2.4 -26.5,-11.1 -27.1,-13.1c-0.7,-2.4 -14.1,-31.7 -14.1,-31.7l20.7,-6.3z" id="svg_214"/>
   <g class="st10" id="svg_215">
    <path class="st5" d="m295.9,352.9l-30.5,-14.7l0.5,1.1c0.4,1 1.1,1.8 2,2.3c2.5,1.4 9.5,4.9 25.2,11.5c0.9,0.5 1.9,0.4 2.8,-0.2l0,0z" id="svg_216"/>
   </g>
   <g class="st10" id="svg_217">
    <path class="st5" d="m267.5,327.3c0.9,0.2 1.4,1.1 1.3,2c-0.2,0.9 -1.1,1.5 -2,1.3s-1.5,-1.2 -1.4,-2.1c0.3,-0.9 1.3,-1.4 2.2,-1.1" id="svg_218"/>
   </g>
   <path class="st2" d="m285.1,343.5c0.3,-1.1 0.9,-2.1 1.6,-3c1.3,-1.4 2.9,-1.6 2.9,-1.8s-0.4,-0.1 -1.1,0c-1.8,0.5 -3.1,1.9 -3.4,3.7c-0.2,0.7 -0.1,1.1 0,1.1z" id="svg_219"/>
   <path class="st2" d="m288.4,346.4c0.2,0.1 0.7,-1.1 1.9,-2.1c0.8,-0.5 1.6,-1 2.5,-1.4c0,-0.2 -1.5,-0.2 -2.9,0.9s-1.6,2.6 -1.5,2.6z" id="svg_220"/>
   <path class="st2" d="m279.7,340.3c0.2,0.1 1,-1.8 2.8,-3.4s3.7,-2.3 3.6,-2.5s-2.2,0.2 -4.1,2s-2.5,3.9 -2.3,3.9z" id="svg_221"/>
   <path class="st2" d="m276,332.2c0.1,0.1 1.4,-1.1 3.3,-1.9s3.6,-1 3.6,-1.1s-1.8,-0.3 -3.9,0.6s-3.1,2.4 -3,2.4z" id="svg_222"/>
   <path class="st2" d="m272.9,324.3c0.1,0.1 1.3,-1.4 3.4,-2.1s3.9,-0.3 3.9,-0.5s-0.4,-0.3 -1.2,-0.4c-2,-0.3 -4.1,0.4 -5.5,1.9c-0.5,0.6 -0.7,1.1 -0.6,1.1z" id="svg_223"/>
   <path class="st2" d="m275.6,320.8c-0.1,-0.4 -0.2,-0.7 -0.4,-1c-0.5,-0.9 -1.1,-1.7 -1.9,-2.4c-0.5,-0.5 -1.2,-0.9 -1.9,-1c-0.5,0 -1,0.3 -1.2,0.7c-0.2,0.4 -0.2,0.9 0,1.4c0.8,1.9 2.9,2.8 4.9,2.3c1.9,-0.5 3.3,-2.1 3.5,-4.1c0.1,-0.5 -0.1,-1 -0.4,-1.3c-0.4,-0.3 -0.9,-0.4 -1.4,-0.1c-0.6,0.4 -1.1,1 -1.4,1.6c-0.5,0.9 -0.8,1.8 -1,2.8c-0.1,0.4 -0.1,0.7 0,1.1c0.3,-1.3 0.8,-2.5 1.5,-3.7c0.3,-0.6 0.7,-1 1.3,-1.4c0.2,-0.1 0.5,-0.1 0.8,0.1c0.2,0.3 0.3,0.6 0.2,0.9c-0.3,1.7 -1.5,3.1 -3.1,3.5c-1.7,0.4 -3.4,-0.4 -4.1,-1.9c-0.2,-0.3 -0.2,-0.7 -0.1,-1s0.4,-0.4 0.6,-0.4c0.6,0.1 1.2,0.4 1.6,0.8c1.1,0.9 1.9,1.9 2.5,3.1z" id="svg_224"/>
   <path class="st6" d="m314.5,294.9l-0.9,22.2c0,0 22.2,8.3 22.5,12.4l-43,-0.1l-0.1,-34.6l21.5,0.1z" id="svg_225"/>
   <g class="st10" id="svg_226">
    <path class="st5" d="m300.4,315.2c-0.9,0.3 -1.4,1.1 -1.2,2c0.2,0.9 1.1,1.4 2,1.2c0.9,-0.3 1.5,-1.2 1.3,-2.1c-0.3,-0.9 -1.3,-1.3 -2.2,-1" id="svg_227"/>
   </g>
   <g class="st10" id="svg_228">
    <path class="st5" d="m293.1,329.4l0,-3.5l41.4,1.4c0,0 1.9,0.8 1.7,2.2l-43.1,-0.1z" id="svg_229"/>
   </g>
   <path class="st2" d="m314.4,316.9c0,0.2 -1,0.3 -2.1,1s-1.6,1.6 -1.8,1.5s0.1,-1.3 1.4,-2.1s2.5,-0.6 2.5,-0.4z" id="svg_230"/>
   <path class="st2" d="m318.9,318.8c0,0.2 -0.9,0.6 -1.6,1.5s-0.9,1.8 -1.1,1.8s-0.3,-1.2 0.6,-2.3s2.1,-1.2 2.1,-1z" id="svg_231"/>
   <path class="st2" d="m321.4,324.2c-0.2,0 -0.5,-1 0.1,-2.1s1.5,-1.6 1.6,-1.4s-0.5,0.8 -1,1.7s-0.4,1.8 -0.7,1.8z" id="svg_232"/>
   <path class="st2" d="m314,311.8c-0.1,0.2 -1,-0.1 -2.2,0s-2.1,0.5 -2.2,0.3s0.8,-0.9 2.2,-1s2.3,0.6 2.2,0.7z" id="svg_233"/>
   <g class="st0" id="svg_234">
    <polygon id="svg_235" points="314.4,299.3 314.2,303.3 293.1,303 293.1,299.5   "/>
   </g>
   <path class="st2" d="m314.1,307.4c-0.7,0.2 -1.5,0.2 -2.2,0c-0.8,-0.1 -1.5,-0.4 -2.2,-0.7c-0.4,-0.2 -0.8,-0.4 -1.2,-0.7c-0.2,-0.1 -0.5,-0.3 -0.6,-0.5c-0.3,-0.3 -0.3,-0.8 -0.1,-1.1c0.2,-0.3 0.6,-0.5 0.9,-0.5s0.5,0 0.8,0.1c0.5,0.1 0.9,0.3 1.3,0.5c0.7,0.3 1.4,0.8 2,1.3c1,0.9 1.3,1.7 1.3,1.8s-0.6,-0.6 -1.6,-1.4c-0.6,-0.4 -1.2,-0.8 -1.9,-1.1c-0.4,-0.2 -0.8,-0.3 -1.2,-0.4c-0.5,-0.1 -0.9,-0.1 -1,0.1s0,0.1 0,0.2c0.1,0.1 0.3,0.3 0.5,0.4c0.4,0.2 0.7,0.5 1.1,0.6c0.7,0.3 1.4,0.6 2.1,0.8c0.6,0.2 1.3,0.3 2,0.6z" id="svg_236"/>
   <path class="st2" d="m313.8,307.7c-0.4,-0.6 -0.6,-1.4 -0.6,-2.1c0,-0.8 0.1,-1.6 0.3,-2.4c0.1,-0.4 0.3,-0.9 0.5,-1.3c0.2,-0.6 0.8,-1 1.4,-1.1c0.4,0 0.7,0.2 0.9,0.6c0.1,0.3 0.2,0.5 0.2,0.8c0.1,0.5 0.1,1 0,1.5c-0.1,0.8 -0.4,1.6 -0.9,2.2c-0.8,1.1 -1.7,1.4 -1.7,1.3s0.7,-0.5 1.3,-1.6c0.4,-0.6 0.6,-1.3 0.7,-2c0.1,-0.4 0.1,-0.8 0,-1.2c-0.1,-0.5 -0.2,-0.8 -0.4,-0.8s-0.6,0.3 -0.8,0.7c-0.2,0.4 -0.4,0.8 -0.5,1.2c-0.2,0.7 -0.4,1.4 -0.4,2.1c-0.1,1.2 0.2,2 0,2.1z" id="svg_237"/>
   <path class="st2" d="m293.1,188.7c-25.4,2.6 -59.1,6.1 -59.1,6.1l4.6,41.4c0,0 49.5,-13.1 49.2,-12s2.3,88.1 2.3,88.1l29.8,0l0.6,-98.5c0.2,-13.7 -10.7,-24.9 -24.4,-25.1c-1.1,-0.2 -2,-0.1 -3,0z" id="svg_238"/>
   <path class="st2" d="m173.1,205.4l0,12.8c0,8.7 9.9,18 18.7,18l6.8,0c5.3,0 13.7,-3.9 18,-7l2.6,-1.9l31.1,96.2c0,0 35.5,-6.4 35.5,-7.5s-24.1,-78.8 -35.2,-114.9c-4.5,-14.7 -20.3,-23.3 -34.9,-18.3c-0.5,0.2 -1,0.4 -1.5,0.6c-16,6.4 -41.1,22 -41.1,22z" id="svg_239"/>
   <path class="st7" d="m285.7,316c-0.1,-0.1 -0.1,-0.2 -0.1,-0.3c-0.1,-0.3 -0.2,-0.6 -0.4,-1c-0.3,-0.9 -0.8,-2.2 -1.4,-4c-1.2,-3.5 -2.8,-8.5 -4.8,-14.8c-4,-12.5 -9.3,-29.9 -15.1,-49.1c-2.9,-9.6 -5.6,-18.8 -8.1,-27.1c-1.2,-4.2 -2.4,-8.1 -3.5,-11.8c-0.6,-1.9 -1.1,-3.6 -1.6,-5.4c-0.5,-1.7 -1,-3.3 -1.6,-4.9c-1.1,-2.7 -2.8,-5.1 -5,-7.1c-1.6,-1.5 -3.4,-2.9 -5.3,-4.1c-1.5,-1 -2.7,-1.8 -3.6,-2.3l-0.9,-0.6c-0.1,-0.1 -0.2,-0.1 -0.3,-0.2c0.1,0 0.2,0.1 0.3,0.2l1,0.5c0.9,0.5 2.1,1.2 3.6,2.2c1.9,1.2 3.7,2.5 5.4,4c2.3,2 4,4.4 5.2,7.2c0.6,1.6 1.2,3.2 1.7,4.9c0.5,1.7 1.1,3.5 1.6,5.4l3.6,11.8c2.5,8.3 5.3,17.5 8.2,27.1c5.8,19.2 11,36.5 14.8,49.2l4.6,14.8l1.3,4c0.1,0.4 0.2,0.8 0.3,1s0.1,0.4 0.1,0.4z" id="svg_240"/>
   <path class="st7" d="m293.2,211.7c0.2,0.1 -1.5,2.7 -2.9,6.1s-2,6.4 -2.3,6.4s0.1,-3.1 1.6,-6.7s3.4,-5.9 3.6,-5.8z" id="svg_241"/>
   <path class="st7" d="m298.9,215.7c0.1,0.2 -2.5,1.3 -5.1,3.4s-4.4,4.3 -4.6,4.2s1.3,-2.6 4.1,-4.8s5.5,-3 5.6,-2.8z" id="svg_242"/>
   <path class="st7" d="m250.5,323.5c-0.2,0.1 -8.6,-25.7 -18.7,-57.5s-18.2,-57.7 -18,-57.7s8.6,25.7 18.7,57.5s18.2,57.7 18,57.7z" id="svg_243"/>
   <polygon class="st7" fill="black" id="svg_244" points="212.4,173.4 314,174.4 333,120.8 259,121.3 241.9,169.5 212.4,170  "/>
   <path class="st2" d="m204.1,28.4c1,-3.6 3.6,-5.3 7.1,-6.5c3.6,-1.2 7.5,-0.6 10.5,1.7c2,1.5 3.5,3.7 5.8,4.5c3.8,1.3 8.3,-1.5 12,0.2c2.6,1.2 3.8,4.3 2.6,6.9c-0.9,2 -2.9,3.2 -5.1,3.1c2.5,0.9 3.3,4.5 1.8,6.7s-4.5,3.1 -7.1,2.6c-2.6,-0.6 -5,-2 -6.9,-3.9c-2,-1.8 -3.8,-3.8 -5.9,-5.4c-2.1,-1.7 -4.7,-2.7 -7.4,-2.7c-3.6,0.2 -6.7,2.9 -8.3,6.1s-2,6.9 -2.2,10.5s-0.3,7.3 -1.3,10.7c-0.1,0.4 -0.3,0.9 -0.7,1c-0.6,0.2 -1.1,-0.4 -1.4,-1c-3.3,-6.1 -5.3,-12.8 -6.1,-19.7c-0.4,-4 -0.3,-7.8 1.9,-11.1s7.9,-5.8 10.7,-3.7" id="svg_246"/>
   <path class="st9" d="m197.1,45.1l-1.9,40.5c-0.3,6.9 0.6,17.1 11.5,17.1l0,0c9.5,-0.7 12.2,-9.6 12.5,-16c0.1,-3 0.2,-5.6 0.3,-5.9c0,0 10.3,-0.5 11.6,-10.7c0.6,-4.9 1,-15.1 1.2,-24.4c0.2,-9.9 -7.1,-18.4 -17,-19.4l-1,-0.1c-10.6,-0.5 -17,8.3 -17.2,18.9z" id="svg_247"/>
   <path class="st11" d="m219.7,80.6c-4.7,-0.4 -9.2,-2.2 -12.9,-5.2c0,0 2.4,7.6 12.6,7.8l0.3,-2.6z" id="svg_248"/>
   <path class="st2" d="m228.7,52.3c-0.1,0.8 -0.8,1.4 -1.6,1.3c-0.8,0 -1.4,-0.7 -1.4,-1.4l0,0c0.1,-0.8 0.8,-1.4 1.6,-1.3c0.8,-0.1 1.4,0.5 1.4,1.4c0,-0.1 0,-0.1 0,0z" id="svg_249"/>
   <path class="st2" d="m229.7,50.5c-0.2,0.2 -1.2,-0.8 -2.8,-0.9s-2.8,0.5 -2.9,0.3s0.1,-0.4 0.7,-0.7c0.7,-0.4 1.6,-0.6 2.4,-0.5c0.8,0.1 1.6,0.4 2.2,1c0.3,0.4 0.5,0.8 0.4,0.8z" id="svg_250"/>
   <path class="st2" d="m213.3,51.2c-0.1,0.8 -0.8,1.4 -1.6,1.3c-0.8,0 -1.4,-0.7 -1.4,-1.5l0,0c0.1,-0.8 0.8,-1.4 1.6,-1.3c0.8,0 1.4,0.7 1.4,1.5c0,-0.1 0,-0.1 0,0z" id="svg_251"/>
   <path class="st2" d="m214.3,49.2c-0.2,0.2 -1.2,-0.8 -2.8,-0.9s-2.8,0.5 -2.9,0.3s0.1,-0.4 0.7,-0.7c0.7,-0.4 1.6,-0.6 2.4,-0.5c0.8,0.1 1.6,0.4 2.2,1c0.3,0.3 0.5,0.7 0.4,0.8z" id="svg_252"/>
   <path class="st2" d="m218.7,61.4c0.9,-0.2 1.7,-0.2 2.6,-0.2c0.4,0 0.8,0 0.9,-0.3c0.1,-0.4 0,-0.8 -0.1,-1.2c-0.3,-1 -0.6,-2.1 -0.9,-3.2c-1.2,-4.5 -2,-8.2 -1.8,-8.2s1.3,3.6 2.5,8.1c0.3,1.1 0.6,2.2 0.8,3.2c0.2,0.5 0.2,1.1 0,1.6c-0.1,0.3 -0.4,0.5 -0.7,0.5c-0.2,0 -0.5,0 -0.7,0c-0.9,-0.1 -1.8,-0.1 -2.6,-0.3z" id="svg_253"/>
   <path class="st2" d="m214,62c0.2,0 0.1,1.7 1.4,3.1s3.1,1.4 3.1,1.6s-0.4,0.3 -1.2,0.2c-1,-0.1 -1.9,-0.5 -2.6,-1.2c-0.7,-0.7 -1.1,-1.6 -1.1,-2.6c0,-0.7 0.3,-1.1 0.4,-1.1z" id="svg_254"/>
   <path class="st2" d="m215.3,43.1c-0.2,0.4 -1.7,0 -3.6,0.1s-3.4,0.4 -3.6,0c-0.1,-0.2 0.2,-0.6 0.9,-0.9c1.7,-0.9 3.8,-0.9 5.5,0c0.6,0.2 0.9,0.6 0.8,0.8z" id="svg_255"/>
   <path class="st2" d="m229.6,45.9c-0.3,0.3 -1.4,-0.2 -2.6,-0.3s-2.4,0 -2.6,-0.4c-0.1,-0.2 0.1,-0.5 0.6,-0.8c0.7,-0.3 1.5,-0.5 2.2,-0.4s1.4,0.4 2,0.9c0.4,0.5 0.5,0.9 0.4,1z" id="svg_256"/>
   <path class="st9" d="m197.1,52.8c-0.2,-0.1 -6.8,-2.8 -7.3,4.2s6.6,6.1 6.6,5.9s0.7,-10.1 0.7,-10.1z" id="svg_257"/>
   <path class="st11" d="m194.5,60c0,0 -0.1,0.1 -0.3,0.2c-0.3,0.1 -0.6,0.1 -0.9,-0.1c-0.9,-0.7 -1.3,-1.7 -1.2,-2.8c0,-0.6 0.2,-1.2 0.5,-1.7c0.2,-0.4 0.5,-0.8 1,-0.9c0.3,0 0.6,0.1 0.7,0.4c0.1,0.2 0,0.3 0.1,0.4s0.2,-0.1 0.1,-0.4c0,-0.2 -0.1,-0.3 -0.2,-0.4c-0.2,-0.2 -0.4,-0.2 -0.7,-0.2c-0.6,0.1 -1.1,0.5 -1.4,1c-0.3,0.6 -0.5,1.2 -0.6,1.9c-0.1,1.4 0.6,2.8 1.6,3.1c0.4,0.1 0.8,0.1 1.1,-0.1c0.2,-0.2 0.3,-0.4 0.2,-0.4z" id="svg_258"/>
   <path class="st2" d="m234.8,43.8c-4.7,0.7 -9.4,-0.9 -12.7,-4.3c-2.2,-2.4 -3.8,-5.6 -6.8,-6.9c-2.1,-0.8 -4.4,-0.7 -6.4,0.2c-2,0.9 -3.8,2.3 -5.3,3.9c1.4,5.4 -0.5,11 -2.4,16.2c-0.2,0.6 -0.5,1.1 -1,1.5c-0.9,0.6 -2.1,-0.1 -2.7,-0.9c-0.9,-1.4 -1.4,-3.1 -1.4,-4.7c-0.3,-3.8 0.1,-7.6 1.3,-11.3c1.2,-3.6 3.4,-6.9 6.4,-9.3c3.9,-2.9 8.7,-4.1 13.5,-3.5c4.7,0.6 9.2,2.8 12.6,6.1c1.7,1.5 3,3.3 3.8,5.4" id="svg_259"/>
  </g>
  <g id="freepik--Plant--inject-5">
   <path class="st6" d="m39.2,258.9c3.6,-1.7 7.7,-2.2 11.7,-1.4c2.1,0.4 4.3,1 5.8,2.6s1.7,4.4 0.1,5.8c-1.1,0.7 -2.4,1 -3.7,0.9c-3.1,0 -6.5,-0.6 -9,1.3c-1.4,1.1 -2.4,2.8 -4,3.4c-1.7,0.4 -3.5,-0.4 -4.4,-2c-0.8,-1.5 -1,-3.3 -0.5,-5c0.4,-2.4 1.9,-4.5 4,-5.6z" id="svg_260"/>
   <path class="st6" d="m31.1,243.1c2.2,3.1 6.4,2.1 8.4,0.2s2.8,-4.6 3.5,-7.3c1.7,-6 3.5,-12.3 2.2,-18.4c-0.3,-1.9 -1.1,-3.6 -2.4,-5c-1.3,-1.4 -3.2,-2.1 -5.1,-1.7c-2.1,0.6 -3.5,2.7 -4.4,4.6c-2.8,5.9 -4.3,12.3 -4.3,18.8c0,3.1 0.3,6.3 2.1,8.8" id="svg_261"/>
   <path class="st6" d="m25.1,247.6c2.3,-3 2.9,-6.9 1.8,-10.4c-1.2,-3.5 -3.3,-6.6 -6.2,-9c-3.2,-2.9 -6.9,-5.1 -11,-6.5c-1.6,-0.6 -3.3,-0.9 -5,-0.8s-3.3,1 -4.2,2.5c-1.2,2.2 0,4.9 1.2,7.1c2.1,3.9 4.6,7.6 7.3,11.1c2.2,2.8 4.7,5.6 8,6.8s6.8,1.1 8.5,-1.2" id="svg_262"/>
   <path class="st2" d="m30.9,290.1c0.1,-0.5 0.2,-0.9 0.2,-1.4c0.1,-1 0.2,-2.3 0.4,-3.9c0.2,-1.9 0.5,-3.8 0.9,-5.7c0.5,-2.3 1.2,-4.5 2.1,-6.7c0.9,-2.2 2,-4.2 3.4,-6c1.1,-1.5 2.6,-2.8 4.3,-3.6c1.1,-0.6 2.4,-1 3.6,-1.1c0.5,0 0.9,-0.1 1.4,-0.2c-0.5,0 -1,0 -1.4,0c-1.3,0.1 -2.6,0.4 -3.8,1c-1.8,0.8 -3.3,2.1 -4.5,3.6c-1.5,1.9 -2.6,3.9 -3.5,6.2c-0.9,2.2 -1.5,4.5 -2,6.8c-0.4,1.9 -0.6,3.8 -0.8,5.7c-0.1,1.6 -0.2,3 -0.2,3.9c-0.1,0.5 -0.1,0.9 -0.1,1.4z" id="svg_263"/>
   <path class="st2" d="m31.2,287.1c0,-0.2 0,-0.4 0,-0.6c0,-0.5 0,-1.1 0,-1.9c0,-1.6 0,-4 0.1,-6.9c0.1,-5.8 0.6,-12.1 1.6,-20.9c0.9,-8.3 2.2,-18 3.5,-24.3c0.3,-1.4 0.5,-2.7 0.8,-3.8s0.5,-2.1 0.7,-2.9s0.3,-1.4 0.4,-1.8c0.1,-0.2 0.1,-0.4 0.1,-0.6c-0.1,0.2 -0.2,0.4 -0.2,0.6c-0.2,0.5 -0.3,1.1 -0.5,1.8s-0.5,1.8 -0.8,2.9s-0.6,2.4 -0.9,3.8c-1.6,7.4 -2.8,14.9 -3.6,22.5c-0.9,8.9 -1.4,16.9 -1.4,22.8c0,2.9 0,5.3 0.1,6.9c0,0.8 0.1,1.4 0.1,1.9c-0.1,0.1 -0.1,0.3 0,0.5z" id="svg_264"/>
   <path class="st2" d="m31.2,271.6c0.1,-0.7 0.1,-1.3 0,-2c-0.1,-1.8 -0.3,-3.6 -0.6,-5.3c-0.4,-2.6 -1,-5.2 -1.7,-7.7c-0.8,-3.1 -1.9,-6.2 -3.2,-9.2c-2.2,-5.5 -5.5,-10.5 -9.5,-14.8c-0.7,-0.7 -1.5,-1.4 -2.2,-2.1c-0.3,-0.3 -0.7,-0.6 -1,-0.8l-0.9,-0.6c-0.5,-0.4 -1.1,-0.8 -1.6,-1.1c1.9,1.5 3.7,3.1 5.4,4.8c3.9,4.4 7,9.3 9.3,14.8c1.3,2.9 2.4,6 3.3,9.1c0.8,2.9 1.4,5.5 1.8,7.7s0.6,4 0.8,5.3c-0.1,0.6 0,1.3 0.1,1.9z" id="svg_265"/>
   <polygon class="st2" id="svg_266" points="16.2,299 17.7,320.4 45.2,320.4 46.7,299  "/>
   <rect class="st2" height="8.4" id="svg_267" width="36.5" x="13.5" y="290.6"/>
   <polygon class="st7" id="svg_268" points="13.5,319.5 13.5,321.9 15.2,321.9 49.4,321.9 49.4,319.5  "/>
   <polygon class="st7" id="svg_269" points="16.9,326 15.2,321.9 48.1,321.9 46.1,326  "/>
   <path class="st1" d="m46.2,306c0,0.1 -0.1,0.1 -0.1,0.2l-0.4,0.5l-1.6,2l-0.1,0.1l-0.1,-0.1l-3.9,-5.4l0.2,0l-3.9,5.5l-0.1,0.2l-0.1,-0.2c-1.4,-1.7 -3,-3.5 -4.6,-5.5l0.3,0c-0.1,0.1 -0.2,0.2 -0.2,0.3l-4.1,5.1l-0.1,0.2l-0.1,-0.2l-3.9,-5.5l0.2,0l-4.8,5.5l-0.1,0.1l-0.1,-0.1c-0.6,-1 -1.1,-1.9 -1.5,-2.5l-0.4,-0.7l-0.1,-0.2c0,0 0.1,0.1 0.2,0.2l0.4,0.6l1.6,2.5l-0.2,0l4.7,-5.5l0.1,-0.1l0.1,0.1l3.9,5.4l-0.3,0l4.1,-5.1l0.2,-0.3l0.1,-0.2l0.1,0.2l4.6,5.5l-0.3,0l3.9,-5.4l0.1,-0.2l0.1,0.2l3.8,5.5l-0.2,0l1.7,-2l0.4,-0.5c0.4,-0.2 0.5,-0.2 0.5,-0.2z" id="svg_270"/>
   <path class="st7" d="m47.1,298.8c0,0.1 -6.9,0.2 -15.3,0.2s-15.3,-0.1 -15.3,-0.2s6.9,-0.2 15.3,-0.2s15.3,0.2 15.3,0.2z" id="svg_271"/>
   <path class="st2" d="m48.5,322.1c0,0.1 -7.5,0.2 -16.7,0.2s-16.7,-0.1 -16.7,-0.2s7.5,-0.2 16.7,-0.2s16.7,0.1 16.7,0.2z" id="svg_272"/>
  </g>
  <g id="freepik--Devices--inject-5">
   <polygon class="st2" id="svg_273" points="372.6,76.4 353.6,156.1 358.9,156.1 377.7,76.4  "/>
   <path class="st2" d="m365.3,128.8c-0.3,1.5 8.6,44.9 8.6,44.9l-4.3,0l-6.8,-34.4l2.5,-10.5z" id="svg_274"/>
   <rect class="st6" height="94.6" id="svg_275" width="89.2" x="339.5" y="231.2"/>
   <rect class="st2" height="4.4" id="svg_276" width="4.4" x="428.7" y="245"/>
   <rect class="st2" height="4.4" id="svg_277" width="4.4" x="428.7" y="258.9"/>
   <rect class="st2" height="4.4" id="svg_278" width="4.4" x="428.7" y="272.8"/>
   <rect class="st2" height="4.4" id="svg_279" width="4.4" x="428.7" y="286.7"/>
   <path class="st2" d="m433.3,274.1c0.4,-0.1 0.9,-0.2 1.3,-0.3c1.2,-0.2 2.5,-0.4 3.8,-0.4c1.9,0 3.8,0.5 5.4,1.4c2.1,1.3 3.2,3.6 3,6c-0.1,1.2 -0.5,2.4 -1.1,3.4s-1.4,1.8 -2.3,2.4c-1.5,1.1 -3.3,1.8 -5.2,2.1c-1.2,0.2 -2.5,0.2 -3.8,0.1c-0.5,0 -0.9,-0.1 -1.4,-0.2c0.5,0 0.9,0 1.4,0c1.2,0 2.5,-0.1 3.7,-0.3c1.8,-0.3 3.5,-1 5,-2.1c1.8,-1.3 3,-3.3 3.2,-5.5s-0.8,-4.4 -2.8,-5.6c-1.6,-1 -3.3,-1.5 -5.2,-1.5c-1.2,0 -2.5,0 -3.7,0.2c-0.4,0.3 -0.9,0.3 -1.3,0.3z" id="svg_280"/>
   <path class="st2" d="m432.2,260.3c0.1,-0.1 0.3,-0.2 0.4,-0.2c0.4,-0.2 0.9,-0.4 1.3,-0.5c1.7,-0.5 3.4,-0.6 5.1,-0.3c0.6,0.1 1.1,0.3 1.6,0.6c0.6,0.4 1,0.9 1.1,1.6c0.5,2.2 -0.7,4.5 -2.9,5.4c-0.8,0.3 -1.7,0.3 -2.4,-0.1c-0.8,-0.4 -1.3,-1.2 -1.4,-2.1c0,-0.9 0.6,-1.8 1.4,-2.2c0.8,-0.4 1.7,-0.5 2.5,-0.3s1.6,0.5 2.2,1.1c1.2,1 2,2.4 2.2,4c0.1,1.4 -0.3,2.9 -1.1,4c-0.7,1 -1.7,1.8 -2.7,2.3c-1.6,0.8 -3.3,1.2 -5,1.3c-0.6,0 -1.1,0.1 -1.4,0.1c-0.2,0 -0.3,0 -0.5,0c0,0 0.7,-0.1 1.9,-0.2c1.7,-0.2 3.3,-0.7 4.8,-1.4c1,-0.6 1.9,-1.3 2.6,-2.2c0.8,-1 1.1,-2.4 1,-3.6c-0.2,-1.4 -0.9,-2.7 -2.1,-3.6c-0.6,-0.5 -1.3,-0.8 -2,-1s-1.5,-0.1 -2.2,0.2c-0.7,0.3 -1.1,1 -1.1,1.7c0.1,0.7 0.5,1.3 1.1,1.6c0.6,0.3 1.3,0.4 2,0.1c0.6,-0.2 1.2,-0.7 1.6,-1.2c0.9,-1 1.3,-2.3 1,-3.6c-0.4,-1.1 -1.3,-1.9 -2.5,-2c-1.7,-0.4 -3.4,-0.3 -5,0.1c-0.9,0.1 -1.5,0.4 -1.5,0.4z" id="svg_281"/>
   <path class="st2" d="m432.2,246.7c0.3,-0.1 0.7,-0.2 1,-0.2c0.9,-0.1 1.8,0 2.7,0.3c1.3,0.4 2.4,1.2 3.3,2.2c1.1,1.3 1.7,2.9 1.7,4.6c0.1,1.7 -0.4,3.3 -1.4,4.7c-0.8,1.1 -1.9,1.9 -3.2,2.4c-0.8,0.4 -1.7,0.5 -2.6,0.5c-0.3,0 -0.7,0 -1,-0.1c1.2,0 2.4,-0.3 3.5,-0.8c1.2,-0.5 2.2,-1.4 3,-2.4c1.8,-2.6 1.7,-6.2 -0.3,-8.7c-0.8,-1 -1.9,-1.7 -3.1,-2.2c-1.2,-0.2 -2.4,-0.4 -3.6,-0.3z" id="svg_282"/>
   <path class="st2" d="m366,180.9c0.3,0.6 0.6,1.2 0.8,1.8c0.5,1.8 0.9,3.6 1.2,5.4c0.4,2.4 0.7,5.3 1,8.6s0.6,7.2 1.1,11.5c0.1,1 0.3,2.1 0.5,3.2s0.5,2.2 1,3.2c0.6,1 1.3,1.9 2.2,2.7c2.7,2.6 6.3,4.3 10.1,4.7c2.7,0.3 5.4,-0.2 7.9,-1.4c2.6,-1.3 4.4,-3.6 5.1,-6.4c0.3,-1.4 0.2,-2.9 -0.3,-4.2c-0.6,-1.4 -1.5,-2.5 -2.8,-3.4c-1.3,-0.8 -2.7,-1.3 -4.2,-1.4s-3,0.4 -4.3,1.2c-0.6,0.4 -1.1,1 -1.5,1.7c-0.3,0.7 -0.4,1.4 -0.3,2.2c0.4,1.5 1.4,2.8 2.8,3.5s3,1.1 4.6,1.3c1.6,0.2 3.2,0.3 4.7,0.3c3.1,0 6.2,-0.2 9.3,-0.5c6.1,-0.7 12,-1.7 17.6,-1.7s11.1,0.7 15.7,3c2.2,1.1 4.2,2.5 5.8,4.4c1.5,1.7 2.5,3.8 3,6c0.8,3.8 0.2,7.8 -1.8,11.2c-1.5,2.5 -3.5,4.7 -5.9,6.3c-1.5,1 -3.2,1.9 -4.9,2.5c-0.6,0.2 -1.2,0.4 -1.8,0.5l0.5,-0.2c0.3,-0.1 0.8,-0.3 1.3,-0.5c1.7,-0.7 3.3,-1.5 4.8,-2.6c2.4,-1.6 4.4,-3.8 5.8,-6.3c1.8,-3.4 2.4,-7.3 1.6,-11c-0.5,-2.2 -1.5,-4.2 -3,-5.8c-1.6,-1.8 -3.6,-3.2 -5.7,-4.2c-4.5,-2.2 -9.9,-3 -15.5,-2.9s-11.5,1 -17.6,1.7c-3.1,0.4 -6.2,0.6 -9.4,0.5c-1.6,0 -3.2,-0.1 -4.8,-0.3c-1.6,-0.1 -3.3,-0.6 -4.7,-1.3c-1.5,-0.8 -2.6,-2.2 -3,-3.9c-0.2,-0.8 0,-1.7 0.3,-2.5c0.4,-0.8 0.9,-1.4 1.6,-1.9c1.3,-1 3,-1.4 4.6,-1.4c1.6,0.1 3.2,0.6 4.5,1.5s2.3,2.1 3,3.6c0.6,1.5 0.7,3 0.3,4.5c-0.7,2.9 -2.7,5.4 -5.4,6.7c-2.5,1.2 -5.4,1.7 -8.1,1.4c-2.6,-0.3 -5.1,-1.1 -7.4,-2.5c-1.1,-0.7 -2.1,-1.4 -3,-2.3c-0.9,-0.8 -1.7,-1.8 -2.3,-2.8c-0.5,-1.1 -0.8,-2.2 -1,-3.3c-0.2,-1.1 -0.4,-2.2 -0.5,-3.2c-0.5,-4.2 -0.8,-8.1 -1.1,-11.5s-0.6,-6.3 -0.9,-8.6c-0.2,-1.8 -0.6,-3.6 -1.1,-5.4c-0.1,-0.5 -0.3,-0.9 -0.5,-1.4c0.2,0.1 0.1,-0.1 0.1,-0.3z" id="svg_283"/>
   <path class="st2" d="m423.7,321.8c0,0 0,-0.1 0,-0.4s0,-0.7 0,-1.2c0,-1.1 0,-2.6 0,-4.7c0,-4.1 0,-10.1 -0.1,-17.7c0,-15.2 -0.1,-36.9 -0.1,-62.9l0.2,0.2l-80.6,0l0,0l0.3,-0.3c0,32 0,61.8 0,86.9l-0.2,-0.2l58.4,0.1l16.4,0.1l4.3,0l1.5,0l-1.5,0l-4.4,0.1l-16.3,0.1l-58.6,0.1l-0.2,0l0,-0.2c0,-25.1 0,-55 0,-86.9l0,-0.3l0.3,0l80.6,0l0.2,0l0,0.2c0,26 -0.1,47.8 -0.1,63c0,7.6 0,13.6 -0.1,17.7c0,2 0,3.6 0,4.6c0,0.5 0,0.9 0,1.2s0,0.5 0,0.5z" id="svg_284"/>
   <path class="st2" d="m400.9,245.6c0,0.2 -0.2,0.4 -0.4,0.4l0,0c-0.2,0 -0.4,-0.1 -0.5,-0.4s0.1,-0.4 0.4,-0.5l0.1,0c0.2,0.1 0.4,0.2 0.4,0.5z" id="svg_285"/>
   <path class="st2" d="m403.2,245.6c0,0.2 -0.2,0.4 -0.4,0.4l0,0c-0.2,0 -0.4,-0.1 -0.5,-0.4s0.1,-0.4 0.4,-0.5l0.1,0c0.2,0.1 0.4,0.2 0.4,0.5z" id="svg_286"/>
   <path class="st2" d="m405.5,245.6c0,0.2 -0.2,0.4 -0.4,0.4l0,0c-0.2,0 -0.4,-0.1 -0.5,-0.4s0.1,-0.4 0.4,-0.5l0.1,0c0.2,0.1 0.4,0.2 0.4,0.5z" id="svg_287"/>
   <path class="st2" d="m407.8,245.6c0,0.2 -0.2,0.4 -0.4,0.4s-0.4,-0.2 -0.4,-0.4s0.2,-0.4 0.4,-0.4l0,0c0.2,0 0.4,0.1 0.4,0.4z" id="svg_288"/>
   <path class="st2" d="m410.1,245.6c0,0.2 -0.2,0.4 -0.4,0.4l0,0c-0.2,0 -0.4,-0.3 -0.4,-0.5s0.2,-0.3 0.4,-0.4c0.2,0.1 0.4,0.2 0.4,0.5z" id="svg_289"/>
   <path class="st2" d="m412.3,245.6c0,0.2 -0.2,0.4 -0.4,0.4l0,0c-0.2,0 -0.4,-0.3 -0.4,-0.5s0.2,-0.3 0.4,-0.4c0.2,0.1 0.4,0.2 0.4,0.5z" id="svg_290"/>
   <path class="st2" d="m414.6,245.6c0,0.2 -0.2,0.4 -0.4,0.4l0,0c-0.2,0 -0.4,-0.3 -0.4,-0.5s0.2,-0.3 0.4,-0.4c0.2,0.1 0.4,0.2 0.4,0.5z" id="svg_291"/>
   <circle class="st2" cx="413.1" cy="247.1" id="svg_292" r="0.4"/>
   <circle class="st2" cx="410.8" cy="247.1" id="svg_293" r="0.4"/>
   <path class="st2" d="m408.9,247.1c0,0.2 -0.2,0.4 -0.4,0.4l0,0c-0.2,0 -0.4,-0.2 -0.4,-0.4l0,0c0,-0.2 0.2,-0.4 0.4,-0.4l0,0c0.2,0 0.4,0.2 0.4,0.4l0,0z" id="svg_294"/>
   <circle class="st2" cx="406.2" cy="247.1" id="svg_295" r="0.4"/>
   <circle class="st2" cx="403.8" cy="247.1" id="svg_296" r="0.4"/>
   <path class="st2" d="m401.9,247.1c0,0.2 -0.2,0.4 -0.4,0.4l0,0c-0.2,0 -0.4,-0.2 -0.4,-0.4l0,0c0,-0.2 0.2,-0.4 0.4,-0.4l0,0c0.2,0 0.4,0.2 0.4,0.4l0,0z" id="svg_297"/>
   <path class="st2" d="m400.9,248.8c0,0.2 -0.2,0.4 -0.4,0.4l0,0c-0.2,0 -0.4,-0.2 -0.4,-0.4l0,0c0,-0.2 0.2,-0.4 0.4,-0.4l0,0c0.2,0 0.4,0.2 0.4,0.4l0,0z" id="svg_298"/>
   <path class="st2" d="m403.2,248.8c0,0.2 -0.2,0.4 -0.4,0.4l0,0c-0.2,0 -0.4,-0.2 -0.4,-0.4l0,0c0,-0.2 0.2,-0.4 0.4,-0.4l0,0c0.2,0 0.4,0.2 0.4,0.4l0,0z" id="svg_299"/>
   <path class="st2" d="m405.5,248.8c0,0.2 -0.2,0.4 -0.4,0.4l0,0c-0.2,0 -0.4,-0.2 -0.4,-0.4l0,0c0,-0.2 0.2,-0.4 0.4,-0.4l0,0c0.2,0 0.4,0.2 0.4,0.4l0,0z" id="svg_300"/>
   <path class="st2" d="m407.8,248.8c0,0.2 -0.3,0.4 -0.5,0.4s-0.3,-0.2 -0.4,-0.4c0,-0.2 0.1,-0.4 0.4,-0.5s0.4,0.1 0.5,0.4c0,0.1 0,0.1 0,0.1z" id="svg_301"/>
   <path class="st2" d="m410.1,248.8c0,0.2 -0.2,0.4 -0.4,0.4l0,0c-0.2,0 -0.4,-0.2 -0.4,-0.4l0,0c0,-0.2 0.2,-0.4 0.4,-0.4l0,0c0.2,0 0.4,0.2 0.4,0.4l0,0z" id="svg_302"/>
   <path class="st2" d="m412.3,248.8c0,0.2 -0.2,0.4 -0.4,0.4l0,0c-0.2,0 -0.4,-0.2 -0.4,-0.4l0,0c0,-0.2 0.2,-0.4 0.4,-0.4l0,0c0.3,0 0.4,0.2 0.4,0.4l0,0z" id="svg_303"/>
   <path class="st2" d="m414.6,248.8c0,0.2 -0.2,0.4 -0.4,0.4l0,0c-0.2,0 -0.4,-0.2 -0.4,-0.4l0,0c0,-0.2 0.2,-0.4 0.4,-0.4l0,0c0.2,0 0.4,0.2 0.4,0.4l0,0z" id="svg_304"/>
   <path class="st2" d="m413.6,250.4c0,0.2 -0.2,0.4 -0.4,0.4l0,0c-0.2,0 -0.4,-0.2 -0.4,-0.4l0,0c0,-0.2 0.2,-0.4 0.4,-0.4l0,0c0.2,0 0.4,0.1 0.4,0.4l0,0z" id="svg_305"/>
   <path class="st2" d="m411.2,250.4c0,0.2 -0.2,0.4 -0.4,0.4l0,0c-0.2,0 -0.4,-0.2 -0.4,-0.4l0,0c0,-0.2 0.2,-0.4 0.4,-0.4l0,0c0.2,0 0.4,0.1 0.4,0.4l0,0z" id="svg_306"/>
   <path class="st2" d="m408.9,250.4c0,0.2 -0.2,0.4 -0.4,0.4l0,0c-0.2,0 -0.4,-0.2 -0.4,-0.4l0,0c0,-0.2 0.2,-0.4 0.4,-0.4l0,0c0.2,0 0.4,0.1 0.4,0.4l0,0z" id="svg_307"/>
   <path class="st2" d="m406.6,250.4c0,0.2 -0.2,0.4 -0.4,0.4l0,0c-0.2,0 -0.4,-0.2 -0.4,-0.4l0,0c0,-0.2 0.2,-0.4 0.4,-0.4l0,0c0.2,0 0.4,0.1 0.4,0.4l0,0z" id="svg_308"/>
   <path class="st2" d="m404.2,250.4c0,0.2 -0.1,0.4 -0.4,0.5s-0.4,-0.1 -0.5,-0.4l0,-0.1c0,-0.2 0.3,-0.4 0.5,-0.4c0.3,0 0.4,0.2 0.4,0.4z" id="svg_309"/>
   <path class="st2" d="m401.9,250.4c0,0.2 -0.2,0.4 -0.4,0.4l0,0c-0.2,0 -0.4,-0.2 -0.4,-0.4l0,0c0,-0.2 0.2,-0.4 0.4,-0.4l0,0c0.2,0 0.4,0.1 0.4,0.4l0,0z" id="svg_310"/>
   <path class="st2" d="m400.9,252.1c0,0.2 -0.2,0.4 -0.4,0.4l0,0c-0.2,0 -0.4,-0.2 -0.4,-0.4l0,0c0,-0.2 0.2,-0.4 0.4,-0.4l0,0c0.2,0 0.4,0.2 0.4,0.4l0,0z" id="svg_311"/>
   <path class="st2" d="m403.2,252.1c0,0.2 -0.2,0.4 -0.4,0.4l0,0c-0.2,0 -0.4,-0.2 -0.4,-0.4l0,0c0,-0.2 0.2,-0.4 0.4,-0.4l0,0c0.2,0 0.4,0.2 0.4,0.4l0,0z" id="svg_312"/>
   <path class="st2" d="m405.5,252.1c0,0.2 -0.2,0.4 -0.4,0.4l0,0c-0.2,0 -0.4,-0.2 -0.4,-0.4l0,0c0,-0.2 0.2,-0.4 0.4,-0.4l0,0c0.2,0 0.4,0.2 0.4,0.4l0,0z" id="svg_313"/>
   <path class="st2" d="m407.8,252.1c0,0.2 -0.1,0.4 -0.4,0.5s-0.4,-0.1 -0.5,-0.4l0,-0.1c0,-0.2 0.3,-0.4 0.5,-0.4c0.2,0.1 0.4,0.2 0.4,0.4z" id="svg_314"/>
   <path class="st2" d="m410.1,252.1c0,0.2 -0.2,0.4 -0.4,0.4l0,0c-0.2,0 -0.4,-0.2 -0.4,-0.4l0,0c0,-0.2 0.2,-0.4 0.4,-0.4l0,0c0.2,0 0.4,0.2 0.4,0.4l0,0z" id="svg_315"/>
   <path class="st2" d="m412.3,252.1c0,0.2 -0.2,0.4 -0.4,0.4l0,0c-0.2,0 -0.4,-0.2 -0.4,-0.4l0,0c0,-0.2 0.2,-0.4 0.4,-0.4l0,0c0.2,0 0.4,0.2 0.4,0.4l0,0z" id="svg_316"/>
   <path class="st2" d="m414.6,252.1c0,0.2 -0.2,0.4 -0.4,0.4l0,0c-0.2,0 -0.4,-0.2 -0.4,-0.4l0,0c0,-0.2 0.2,-0.4 0.4,-0.4l0,0c0.2,0 0.4,0.2 0.4,0.4l0,0z" id="svg_317"/>
   <circle class="st2" cx="413.1" cy="253.6" id="svg_318" r="0.4"/>
   <circle class="st2" cx="410.8" cy="253.6" id="svg_319" r="0.4"/>
   <path class="st2" d="m408.9,253.6c0,0.2 -0.2,0.4 -0.4,0.4l0,0c-0.2,0 -0.4,-0.1 -0.5,-0.4s0.1,-0.4 0.4,-0.5l0.1,0c0.2,0.1 0.4,0.3 0.4,0.5l0,0z" id="svg_320"/>
   <circle class="st2" cx="406.2" cy="253.6" id="svg_321" r="0.4"/>
   <circle class="st2" cx="403.8" cy="253.6" id="svg_322" r="0.4"/>
   <path class="st2" d="m401.9,253.6c0,0.2 -0.2,0.4 -0.4,0.4c-0.2,0 -0.4,-0.3 -0.4,-0.5s0.2,-0.3 0.4,-0.4c0.2,0.1 0.4,0.3 0.4,0.5z" id="svg_323"/>
   <path class="st1" d="m369.4,152.1c0.6,0 1.1,0.1 1.6,0.3c1.5,0.5 2.9,1.4 3.9,2.6c1.6,1.9 2.8,4.2 3.5,6.6c1,3.2 1.7,6.4 2.2,9.7c1.1,8.5 1.3,17.2 0.6,25.8c-0.1,2.5 -0.9,5 -2.2,7.1c-0.7,1.1 -1.7,2 -2.8,2.7c-1.2,0.7 -2.5,1.1 -3.9,0.9c-1.4,-0.1 -2.7,-0.7 -3.7,-1.7c-0.5,-0.5 -0.9,-1.1 -1.1,-1.8c-0.2,-0.7 -0.2,-1.4 0,-2.1c0.4,-1.4 1.4,-2.6 2.8,-3.1c0.7,-0.3 1.5,-0.3 2.2,0s1.3,0.7 1.8,1.3c0.9,1.2 1.2,2.7 1,4.1s-0.7,2.7 -1.5,3.9c-4.1,7.2 -13.2,9.9 -20.5,5.9c-2.1,-1.2 -3.9,-2.7 -5.4,-4.6c-1.4,-1.8 -2.5,-3.7 -3.3,-5.8c-1.3,-3.8 -2.1,-7.8 -2.2,-11.8c-0.2,-3.7 0,-7 -0.4,-9.9c-0.2,-1.3 -0.5,-2.6 -0.9,-3.9c-0.4,-1.1 -1,-2 -1.7,-2.9c-1,-1.2 -2.2,-2.2 -3.7,-2.8c-0.5,-0.2 -1.1,-0.3 -1.6,-0.4c0.6,0 1.1,0.1 1.6,0.3c1.5,0.5 2.8,1.5 3.8,2.7c0.7,0.9 1.3,1.9 1.8,3c0.5,1.3 0.8,2.6 1,4c0.4,2.9 0.2,6.2 0.4,9.9c0.1,4 0.9,7.9 2.2,11.7c0.8,2.1 1.9,4 3.2,5.7c1.4,1.8 3.2,3.4 5.3,4.5c7.1,3.8 15.9,1.2 19.8,-5.8c0.7,-1.2 1.2,-2.4 1.4,-3.8c0.2,-1.3 -0.1,-2.7 -0.9,-3.8c-0.4,-0.5 -0.9,-0.9 -1.5,-1.2c-0.6,-0.2 -1.3,-0.2 -1.9,0c-1.2,0.5 -2.1,1.5 -2.5,2.8c-0.3,1.3 0.1,2.6 1,3.5s2.1,1.5 3.4,1.6s2.5,-0.2 3.6,-0.9c1.1,-0.7 2,-1.5 2.7,-2.6c1.3,-2.1 2,-4.5 2.2,-6.9c0.7,-8.5 0.5,-17.1 -0.5,-25.6c-0.5,-3.3 -1.2,-6.5 -2.1,-9.6c-0.6,-2.4 -1.8,-4.6 -3.4,-6.5c-1,-1.2 -2.3,-2.1 -3.8,-2.6c-0.4,-0.2 -0.9,-0.3 -1.5,-0.5z" id="svg_324"/>
   <rect class="st1" height="6.3" id="svg_325" width="33.2" x="328.3" y="166.6"/>
   <rect class="st2" height="93.3" id="svg_326" width="43.3" x="78.4" y="232"/>
   <path class="st7" d="m118,315.5c0,0 0,-0.1 0,-0.4s0,-0.7 0,-1.2c0,-1 0,-2.5 0,-4.5c0,-3.9 0,-9.5 -0.1,-16.7c0,-14.2 -0.1,-34.2 -0.1,-57.5l0.2,0.2l-36.2,0l0,0l0.3,-0.3c0,31.2 0,59.5 -0.1,80.2l-0.2,-0.2l26.5,0.1l7.2,0l1.9,0c0.5,0.2 0.7,0.2 0.6,0.3l-0.5,-0.1l-1.9,0l-7.2,0l-26.6,0.1l-0.2,0l0,-0.2c0,-20.8 0,-49.1 -0.1,-80.2l0,-0.3l36.8,0l0,0.2c0,23.4 -0.1,43.4 -0.1,57.7c0,7.1 0,12.7 -0.1,16.6c0,1.9 0,3.4 0,4.4c0,0.5 0,0.9 0,1.1s-0.1,0.7 -0.1,0.7z" id="svg_327"/>
   <path class="st7" d="m115.8,242.1c0,0 0,-0.4 0,-1s0,-1.6 -0.1,-2.7l0.1,0.1c-5.6,0.1 -17.6,0.1 -31.5,0.1l0,0l0.3,-0.3l0,0l0,1.9c0,0.6 0,1.2 0,1.8l-0.2,-0.3c8.8,0 16.7,0.1 22.3,0.1l6.7,0.1l1.8,0c0.2,0 0.4,0 0.7,0c-0.2,0 -0.4,0 -0.6,0l-1.8,0l-6.6,0.1c-5.7,0.1 -13.6,0.1 -22.5,0.1l-0.3,0l0,-3.9l0,0l0.3,-0.3l0,0c13.9,0 25.9,0.1 31.5,0.1l0,0l0,0.1c0,1.2 0,2.1 -0.1,2.8c0.1,0.4 0,0.8 0,1.2z" id="svg_328"/>
   <path class="st7" d="m87.4,244.7c0,0.1 -0.7,0.3 -1.4,0.3s-1.5,-0.1 -1.5,-0.3s0.7,-0.3 1.5,-0.3s1.4,0.1 1.4,0.3z" id="svg_329"/>
   <path class="st7" d="m115,249.5c0,0.1 -6.7,0.3 -15,0.3s-15,-0.1 -15,-0.3s6.7,-0.3 15,-0.3s15,0.2 15,0.3z" id="svg_330"/>
   <path class="st7" d="m115.1,255.3c0,0.1 -6.6,0.3 -14.7,0.3s-14.7,-0.1 -14.7,-0.3s6.6,-0.3 14.7,-0.3s14.7,0.2 14.7,0.3z" id="svg_331"/>
   <circle class="st6" cx="100" cy="268.9" id="svg_332" r="2.4"/>
   <path class="st7" d="m93.2,268.8c-1,0.3 -2.1,0.3 -3.2,0.3c-1.1,0.1 -2.1,0 -3.1,-0.3c1,-0.3 2.1,-0.3 3.2,-0.3c1.1,0 2.1,0.1 3.1,0.3z" id="svg_333"/>
   <path class="st7" d="m112.6,268.2c-1,0.3 -2,0.3 -3,0.3c-1,0.1 -2,0 -3,-0.3c1,-0.3 2,-0.3 3,-0.3c1,-0.1 2,0 3,0.3z" id="svg_334"/>
   <path class="st2" d="m79.9,278.8c-0.5,-0.1 -1.1,-0.2 -1.6,-0.3c-1.5,-0.4 -3,-1.1 -4.3,-2c-2.1,-1.4 -3.8,-3.3 -5.2,-5.4c-1.7,-2.8 -3,-5.9 -3.8,-9.2c-1,-3.9 -1.4,-7.9 -1.2,-11.9c0.3,-4.7 1.8,-9.1 4.6,-12.9c1.5,-2 3.3,-3.8 5.4,-5.2c1.1,-0.7 2.3,-1.3 3.5,-1.7c1.3,-0.4 2.5,-0.7 3.9,-0.9c2.6,-0.4 5.3,-0.3 8,-0.5c2.7,-0.1 5.4,-0.7 7.9,-1.8c2.5,-1.1 4.3,-3.4 4.9,-6c1,-4.5 -1.8,-9.1 -6.3,-10.1c-0.7,-0.2 -1.4,-0.2 -2.1,-0.2c-1.2,0.1 -2.4,0.5 -3.3,1.2s-1.4,1.8 -1.4,3c0.3,2.3 2.1,4.1 4.5,4.3c2.2,0 4.3,-0.9 5.7,-2.6c1.3,-1.6 2.3,-3.4 2.8,-5.4c0.5,-1.8 0.9,-3.7 1.2,-5.6c0.7,-5.7 0.9,-11.5 0.5,-17.3c-0.1,-2 -0.2,-3.6 -0.2,-4.7c0,-0.5 0,-0.9 -0.1,-1.2c0,-0.1 0,-0.3 0,-0.4c0,0.1 0.1,0.3 0.1,0.4c0,0.3 0.1,0.7 0.1,1.2c0.1,1.1 0.2,2.7 0.3,4.7c0.4,5.8 0.3,11.6 -0.4,17.4c-0.3,1.9 -0.6,3.8 -1.1,5.7c-0.5,2.1 -1.5,4 -2.8,5.6c-1.5,1.8 -3.7,2.8 -6.1,2.7c-2.6,-0.2 -4.6,-2.2 -4.9,-4.7c-0.1,-1.3 0.5,-2.6 1.6,-3.4c1,-0.8 2.3,-1.3 3.6,-1.4c5,-0.1 9,3.9 9.1,8.9c0,2.1 -0.7,4.1 -2,5.8c-0.9,1.1 -2.1,2 -3.3,2.6c-2.5,1.2 -5.3,1.8 -8.1,1.9c-2.7,0.2 -5.4,0.1 -8,0.5c-1.3,0.2 -2.5,0.5 -3.8,0.9c-1.2,0.4 -2.3,1 -3.4,1.7c-2.1,1.3 -3.9,3 -5.3,5c-2.7,3.7 -4.2,8.1 -4.5,12.7c-0.3,4 0.1,8 1.1,11.8c0.7,3.2 2,6.3 3.7,9.1c1.3,2.1 3,3.9 5,5.4c1.3,0.9 2.7,1.6 4.2,2.1c0.5,0.1 0.9,0.2 1.2,0.3c0,-0.2 0.2,-0.1 0.3,-0.1z" id="svg_335"/>
   <rect class="st2" height="70.5" id="svg_336" width="102.6" x="65.2" y="87.4"/>
   <rect class="st2" height="26.6" id="svg_337" width="14" x="108.5" y="148.2"/>
  </g>
  <g id="freepik--Desk--inject-5">
   <polygon class="st2" id="svg_338" points="75.4,173.8 75.4,183.3 128.3,183.3 128.3,325.8 133.2,325.8 133.2,183.3 354.3,184.4 354.3,325.8    359,325.8 359,184.1 393.2,184.4 393.2,172.9  "/>
   <polygon class="st2" id="svg_339" points="109.2,181.5 130.1,196.5 128.3,198.2 107.3,182.4  "/>
   <polygon class="st2" id="svg_340" points="378.7,182.9 354.5,200.1 356.3,201.8 380.7,183.8  "/>
   <rect class="st2" height="4" id="svg_341" width="54.7" x="152.3" y="170.2"/>
  </g>
  <g fill="none" fill-rule="evenodd" id="svg_342">
   <path class="fill-nuxt-lightgreen" d="m292.27238,154.20885l-2.02929,-2.02929l-1.13623,-1.13635l-1.2222,-1.2222c-0.38073,-0.38073 -0.99801,-0.38073 -1.37875,0l-4.38784,4.38784c-0.38073,0.38073 -0.38073,0.99801 0,1.37875l4.38784,4.38784c0.38073,0.38073 0.99801,0.38073 1.37875,0l4.38784,-4.38784c0.38051,-0.38073 0.38051,-0.99801 -0.00012,-1.37875z" fill="#00C58E" id="svg_343"/>
   <path class="fill-nuxt-lightgreen" d="m285.33299,147.26956l-4.38784,-4.38784c-0.38073,-0.38073 -0.99801,-0.38073 -1.37875,0l-4.38784,4.38784c-0.38073,0.38073 -0.38073,0.99801 0,1.37875l4.38784,4.38784c0.38073,0.38073 0.99801,0.38073 1.37875,0l4.38784,-4.38784c0.38073,-0.38084 0.38073,-0.99801 0,-1.37875z" fill="#00C58E" id="svg_344"/>
   <path class="fill-nuxt-green" d="m292.27238,140.33017l-4.38784,-4.38784c-0.38073,-0.38073 -0.99801,-0.38073 -1.37875,0l-1.15402,1.15402l-1.13646,1.13646l-2.09724,2.09736c-0.38073,0.38073 -0.38073,0.99801 0,1.37875l4.38784,4.38784c0.38073,0.38073 0.99801,0.38073 1.37875,0l4.38784,-4.38784c0.38051,-0.38073 0.38051,-0.99801 -0.00012,-1.37875l-0.00001,0.00001l0.00001,-0.00001z" fill="#108775" id="svg_345"/>
   <path class="fill-current" d="m299.21167,147.26956l-4.38784,-4.38784c-0.38073,-0.38073 -0.99801,-0.38073 -1.37864,0l-4.38784,4.38784c-0.38073,0.38073 -0.38073,0.99801 0,1.37875l4.38784,4.38784c0.38073,0.38073 0.99801,0.38073 1.37864,0l4.38784,-4.38784c0.38073,-0.38084 0.38073,-0.99801 0,-1.37875z" fill="#2f495e" fill-rule="nonzero" id="svg_346"/>
  </g>
  <g fill="none" fill-rule="evenodd" id="svg_347">
   <path class="fill-nuxt-lightgreen" d="m120.27238,129.20885l-2.02929,-2.02929l-1.13623,-1.13635l-1.2222,-1.2222c-0.38073,-0.38073 -0.99801,-0.38073 -1.37875,0l-4.38784,4.38784c-0.38073,0.38073 -0.38073,0.99801 0,1.37875l4.38784,4.38784c0.38073,0.38073 0.99801,0.38073 1.37875,0l4.38784,-4.38784c0.38051,-0.38073 0.38051,-0.99801 -0.00012,-1.37875z" fill="#00C58E" id="svg_348"/>
   <path class="fill-nuxt-lightgreen" d="m113.33299,122.26956l-4.38784,-4.38784c-0.38073,-0.38073 -0.99801,-0.38073 -1.37875,0l-4.38784,4.38784c-0.38073,0.38073 -0.38073,0.99801 0,1.37875l4.38784,4.38784c0.38073,0.38073 0.99801,0.38073 1.37875,0l4.38784,-4.38784c0.38073,-0.38084 0.38073,-0.99801 0,-1.37875z" fill="#00C58E" id="svg_349"/>
   <path class="fill-nuxt-green" d="m120.27238,115.33017l-4.38784,-4.38784c-0.38073,-0.38073 -0.99801,-0.38073 -1.37875,0l-1.15402,1.15402l-1.13646,1.13646l-2.09724,2.09736c-0.38073,0.38073 -0.38073,0.99801 0,1.37875l4.38784,4.38784c0.38073,0.38073 0.99801,0.38073 1.37875,0l4.38784,-4.38784c0.38051,-0.38073 0.38051,-0.99801 -0.00012,-1.37875l-0.00001,0.00001l0.00001,-0.00001z" fill="#108775" id="svg_350"/>
   <path class="fill-current" d="m127.21167,122.26956l-4.38784,-4.38784c-0.38073,-0.38073 -0.99801,-0.38073 -1.37864,0l-4.38784,4.38784c-0.38073,0.38073 -0.38073,0.99801 0,1.37875l4.38784,4.38784c0.38073,0.38073 0.99801,0.38073 1.37864,0l4.38784,-4.38784c0.38073,-0.38084 0.38073,-0.99801 0,-1.37875z" fill="#2f495e" fill-rule="nonzero" id="svg_351"/>
  </g>
 </g>
</svg>