<?xml version="1.0" encoding="UTF-8"?>
<!DOCTYPE svg PUBLIC "-//W3C//DTD SVG 1.1//EN" "http://www.w3.org/Graphics/SVG/1.1/DTD/svg11.dtd">
<!-- Creator: CorelDRAW -->
<svg xmlns="http://www.w3.org/2000/svg" xml:space="preserve" width="2400px" height="5211px" version="1.1" style="shape-rendering:geometricPrecision; text-rendering:geometricPrecision; image-rendering:optimizeQuality; fill-rule:evenodd; clip-rule:evenodd"
viewBox="0 0 548.23 1190.42"
 xmlns:xlink="http://www.w3.org/1999/xlink"
 xmlns:xodm="http://www.corel.com/coreldraw/odm/2003">
 <defs>
  <style type="text/css">
   <![CDATA[
    .fil0 {fill:none}
    .fil11 {fill:#AECFC9;fill-rule:nonzero}
    .fil12 {fill:#AEEBE8;fill-rule:nonzero}
    .fil13 {fill:#B6DBD3;fill-rule:nonzero}
    .fil8 {fill:#BFE6DF;fill-rule:nonzero}
    .fil10 {fill:#C0E0DA;fill-rule:nonzero}
    .fil17 {fill:#C4CAFF;fill-rule:nonzero}
    .fil9 {fill:#C7E3DE;fill-rule:nonzero}
    .fil15 {fill:#C8DCEB;fill-rule:nonzero}
    .fil14 {fill:#C8EBE3;fill-rule:nonzero}
    .fil7 {fill:#C9E5FF;fill-rule:nonzero}
    .fil6 {fill:#CDDDF7;fill-rule:nonzero}
    .fil1 {fill:#D4F7F2;fill-rule:nonzero}
    .fil3 {fill:#DFDFDF;fill-rule:nonzero}
    .fil18 {fill:#E1E8F1;fill-rule:nonzero}
    .fil2 {fill:#EBE6E6;fill-rule:nonzero}
    .fil16 {fill:#F5DFD2;fill-rule:nonzero}
    .fil5 {fill:#FFF2D9;fill-rule:nonzero}
    .fil4 {fill:#FFF5C4;fill-rule:nonzero}
    .fil19 {fill:white;fill-rule:nonzero}
   ]]>
  </style>
 </defs>
 <g id="Layer_x0020_1">
  <metadata id="CorelCorpID_0Corel-Layer"/>
  <rect class="fil0" width="547.8" height="1190.42"/>
  <polygon class="fil1" points="86.94,258.99 171.52,216.56 171.52,301.05 "/>
  <polygon class="fil2" points="246.4,976.4 330.99,933.96 330.99,1018.45 285.74,995.96 "/>
  <polygon class="fil3" points="2.55,573.59 87.14,531.15 87.14,615.64 41.89,593.15 "/>
  <polygon class="fil4" points="415.73,1061.86 329.31,1104.96 329.84,1019.05 416.72,975.95 "/>
  <polygon class="fil5" points="243.91,1061.86 330.33,1104.96 329.8,1019.05 242.92,975.95 "/>
  <polygon class="fil6" points="84.26,785.12 0,827.14 0.52,743.38 85.22,701.36 "/>
  <polygon class="fil7" points="463.97,363.76 548.23,405.78 547.71,322.02 463,280 "/>
  <polygon class="fil8" points="500.97,1105.41 416.38,1062.97 416.38,1147.46 "/>
  <polygon class="fil3" points="461.1,278.14 376.51,235.7 376.51,320.19 "/>
  <polygon class="fil9" points="416.42,1148.37 331.83,1105.93 331.83,1190.42 "/>
  <polygon class="fil10" points="171.22,658.27 86.63,615.83 86.63,700.32 "/>
  <polygon class="fil11" points="462.06,451.24 377.48,408.81 377.48,493.3 "/>
  <polygon class="fil12" points="377.45,408.07 462.04,365.63 462.04,450.12 "/>
  <polygon class="fil13" points="331.52,1105.41 416.11,1062.97 416.11,1147.46 "/>
  <polygon class="fil14" points="501.69,1105.3 547.8,1082.17 547.8,1128.22 "/>
  <polygon class="fil15" points="255.75,614.9 171.16,572.47 171.16,656.96 "/>
  <polygon class="fil3" points="291.78,362.96 376.37,320.53 376.37,405.02 "/>
  <polygon class="fil16" points="376.37,320.53 291.78,278.09 291.78,362.96 "/>
  <polygon class="fil17" points="85.22,700.95 0.63,658.52 0.63,743.01 "/>
  <g id="_105553538926208">
   <g>
    <path class="fil18" d="M91.69 73.55c5.04,-2.82 11.73,-10.01 8.41,-12.98 -6.46,-5.79 -10.1,-4.85 -13.77,-2.43 4.55,-3.07 -2.66,-6.31 -5.67,-6.52 -3,-0.2 -6.77,1.9 -9.78,5.46 -0.51,-3.41 2.78,-4.42 0.88,-6.31 -1.9,-1.89 -9.82,-4.14 -12.9,-2.72 -1.88,0.86 -3.77,2.43 -5.51,4.28 -6.54,6.96 -10.07,17.86 -9.21,25.91 -3.53,1.12 -7.2,3.46 -10.6,6.96 -4.88,5.02 -5.88,8.68 -6.88,13.35 -1.73,8.05 5.39,12.86 9.92,10.32 4.54,-2.53 50.07,-32.51 55.11,-35.32z"/>
   </g>
   <g>
    <path class="fil19" d="M96.04 75.61c5.03,-2.82 6.56,-11.36 4.06,-15.04 -1.89,-2.78 -5.76,-2.79 -9.43,-0.38 -0.48,-3.8 -2.65,-6.3 -5.66,-6.51 -3.01,-0.2 -6.77,1.9 -9.79,5.46 -0.51,-3.41 -1.56,-6.48 -3.46,-8.37 -1.9,-1.89 -5.48,-2.08 -8.55,-0.66 -1.88,0.86 -3.77,2.43 -5.52,4.28 -6.53,6.95 -10.07,17.86 -9.21,25.9 -3.53,1.13 -7.3,3.38 -10.6,6.97 -3.3,3.59 -6.07,8.64 -6.88,13.35 -0.8,4.72 1.05,10.8 5.58,8.26 4.54,-2.53 54.42,-30.45 59.46,-33.26z"/>
   </g>
  </g>
  <g id="_105553538927872">
   <g>
    <path class="fil18" d="M499.4 733.1c6.43,-3.59 14.95,-12.77 10.73,-16.56 -8.24,-7.38 -12.89,-6.18 -17.57,-3.1 5.81,-3.91 -3.39,-8.05 -7.23,-8.31 -3.84,-0.26 -8.63,2.42 -12.48,6.97 -0.65,-4.36 3.55,-5.65 1.13,-8.06 -2.43,-2.41 -12.53,-5.28 -16.46,-3.47 -2.39,1.1 -4.81,3.11 -7.03,5.47 -8.34,8.87 -12.85,22.77 -11.76,33.04 -4.5,1.44 -9.18,4.42 -13.52,8.88 -6.22,6.4 -7.49,11.07 -8.77,17.04 -2.21,10.26 6.87,16.39 12.66,13.16 5.78,-3.23 63.87,-41.47 70.3,-45.06z"/>
   </g>
   <g>
    <path class="fil19" d="M504.94 735.72c6.43,-3.59 8.38,-14.49 5.19,-19.18 -2.41,-3.55 -7.35,-3.55 -12.03,-0.48 -0.61,-4.85 -3.39,-8.04 -7.23,-8.31 -3.83,-0.26 -8.63,2.42 -12.48,6.97 -0.65,-4.36 -1.99,-8.27 -4.41,-10.68 -2.43,-2.41 -6.99,-2.65 -10.92,-0.84 -2.39,1.1 -4.81,3.1 -7.03,5.46 -8.34,8.87 -12.85,22.78 -11.75,33.04 -4.51,1.44 -9.31,4.31 -13.52,8.89 -4.22,4.58 -7.75,11.02 -8.78,17.03 -1.03,6.01 1.33,13.77 7.12,10.54 5.78,-3.23 69.41,-38.85 75.84,-42.44z"/>
   </g>
  </g>
  <g id="_105553538935456">
   <g>
    <path class="fil18" d="M387.24 76.1c7.34,-3.88 17.18,-14.01 12.51,-18.39 -9.09,-8.53 -14.36,-7.29 -19.71,-3.94 6.64,-4.26 -3.62,-9.16 -7.94,-9.55 -4.31,-0.4 -9.79,2.5 -14.25,7.53 -0.61,-4.93 4.16,-6.27 1.48,-9.05 -2.67,-2.78 -13.98,-6.27 -18.45,-4.33 -2.73,1.18 -5.5,3.37 -8.07,5.98 -9.62,9.78 -15.06,25.33 -14.09,36.93 -5.11,1.51 -10.46,4.75 -15.46,9.67 -7.18,7.05 -8.73,12.28 -10.33,18.97 -2.75,11.52 7.33,18.65 13.93,15.16 6.6,-3.49 73.04,-45.1 80.38,-48.98z"/>
   </g>
   <g>
    <path class="fil19" d="M393.42 79.2c7.33,-3.88 9.81,-16.12 6.33,-21.49 -2.62,-4.06 -8.18,-4.19 -13.54,-0.84 -0.56,-5.49 -3.61,-9.16 -7.93,-9.55 -4.32,-0.4 -9.79,2.5 -14.25,7.53 -0.62,-4.93 -2.02,-9.37 -4.7,-12.15 -2.67,-2.78 -7.8,-3.17 -12.27,-1.23 -2.73,1.18 -5.5,3.37 -8.07,5.98 -9.63,9.78 -15.06,25.33 -14.09,36.93 -5.11,1.51 -10.6,4.61 -15.46,9.67 -4.87,5.06 -9.01,12.22 -10.33,18.97 -1.31,6.75 1.15,15.55 7.75,12.06 6.6,-3.49 79.22,-42 86.56,-45.88z"/>
   </g>
  </g>
 </g>
</svg>
