<?xml version="1.0" encoding="UTF-8"?>
<!DOCTYPE svg PUBLIC "-//W3C//DTD SVG 1.1//EN" "http://www.w3.org/Graphics/SVG/1.1/DTD/svg11.dtd">
<!-- Creator: CorelDRAW -->
<svg xmlns="http://www.w3.org/2000/svg" xml:space="preserve" width="607px" height="125px" version="1.1" style="shape-rendering:geometricPrecision; text-rendering:geometricPrecision; image-rendering:optimizeQuality; fill-rule:evenodd; clip-rule:evenodd"
viewBox="0 0 22.79 4.7"
 xmlns:xlink="http://www.w3.org/1999/xlink"
 xmlns:xodm="http://www.corel.com/coreldraw/odm/2003">
 <defs>
  <style type="text/css">
   <![CDATA[
    .fil1 {fill:#108775;fill-rule:nonzero}
    .fil0 {fill:#2F495E;fill-rule:nonzero}
   ]]>
  </style>
 </defs>
 <g id="Layer_x0020_1">
  <metadata id="CorelCorpID_0Corel-Layer"/>
  <path class="fil0" d="M6.04 4.03c0.01,0 0,-0.02 -0.01,-0.03 -0.01,-0.03 -0.02,-0.03 -0.03,-0.02 -0.04,0.12 -0.14,0.21 -0.29,0.26 -0.15,0.05 -0.3,0.05 -0.46,0 -0.15,-0.05 -0.37,-0.15 -0.63,-0.29 -0.24,-0.12 -0.51,-0.28 -0.8,-0.46 -0.35,-0.23 -0.69,-0.46 -1.01,-0.69 -0.33,-0.24 -0.57,-0.44 -0.73,-0.59 0.28,-0.02 0.54,-0.06 0.79,-0.11 0.23,-0.04 0.45,-0.1 0.65,-0.17 0.19,-0.06 0.36,-0.13 0.52,-0.21 0.14,-0.08 0.27,-0.15 0.39,-0.23 0.25,-0.18 0.4,-0.39 0.45,-0.63 0.05,-0.26 -0.08,-0.47 -0.38,-0.6 -0.23,-0.11 -0.56,-0.17 -0.97,-0.18 -0.37,-0.02 -0.72,0.01 -1.05,0.07 -0.47,0.09 -0.92,0.24 -1.37,0.46 -0.46,0.23 -0.81,0.47 -1.05,0.74 -0.1,0.12 -0.08,0.22 0.08,0.3 0.14,0.08 0.29,0.1 0.45,0.05 -0.05,-0.03 -0.06,-0.08 -0.05,-0.15 0.03,-0.11 0.11,-0.24 0.25,-0.38 0.06,-0.05 0.12,-0.11 0.19,-0.16 0.05,-0.05 0.11,-0.09 0.18,-0.13 0.2,-0.14 0.43,-0.26 0.69,-0.36 0.24,-0.1 0.49,-0.17 0.75,-0.22 0.53,-0.11 0.97,-0.12 1.32,-0.03 0.19,0.05 0.31,0.15 0.38,0.3 0.07,0.17 0.04,0.35 -0.09,0.54 -0.15,0.23 -0.43,0.44 -0.85,0.64 -0.43,0.19 -0.84,0.3 -1.24,0.3 0.3,-0.43 0.67,-0.86 1.1,-1.3 0.03,-0.04 0.01,-0.06 -0.07,-0.08 -0.07,-0.01 -0.13,0 -0.18,0.04 -0.22,0.19 -0.45,0.41 -0.68,0.65 -0.19,0.21 -0.4,0.44 -0.63,0.7l-0.22 0.26c-0.09,0.13 -0.18,0.24 -0.26,0.35 -0.1,0.13 -0.18,0.25 -0.23,0.34 -0.06,0.11 -0.1,0.19 -0.1,0.23 0.01,0.08 0.1,0.1 0.27,0.07 0.15,-0.03 0.3,-0.09 0.45,-0.16 0.02,-0.01 0.02,-0.02 0.01,-0.03 -0.04,-0.05 -0.04,-0.14 0.01,-0.25 0.06,-0.14 0.17,-0.32 0.35,-0.55 0.28,0.3 0.57,0.6 0.87,0.88 0.27,0.25 0.54,0.48 0.82,0.69 0.6,0.46 1.07,0.73 1.39,0.8 0.17,0.03 0.36,-0.02 0.58,-0.15 0.22,-0.14 0.37,-0.31 0.44,-0.51zm-1.16 -1.98c-0.06,0.07 -0.15,0.15 -0.26,0.22 -0.14,0.09 -0.27,0.15 -0.4,0.18 0.05,-0.28 0.21,-0.48 0.5,-0.6 0.13,-0.06 0.21,-0.06 0.24,-0.02 0.02,0.04 0,0.12 -0.08,0.22zm0.48 0.28c0.02,-0.02 0.02,-0.04 0.01,-0.07 -0.01,-0.02 -0.02,-0.03 -0.03,-0.02 -0.06,0.07 -0.13,0.15 -0.2,0.22 -0.1,0.1 -0.2,0.18 -0.3,0.24 -0.25,0.17 -0.45,0.18 -0.58,0.04 0,-0.01 -0.01,-0.02 -0.02,-0.03l-0.02 -0.04c-0.02,-0.04 -0.02,-0.08 -0.02,-0.11 0.09,-0.01 0.22,-0.06 0.38,-0.14 0.15,-0.08 0.29,-0.17 0.43,-0.27 0.26,-0.2 0.35,-0.35 0.25,-0.44 -0.09,-0.09 -0.28,-0.08 -0.56,0.02 -0.27,0.1 -0.49,0.26 -0.67,0.47 -0.18,0.21 -0.24,0.4 -0.2,0.56 0.04,0.2 0.17,0.3 0.39,0.3 0.16,-0.01 0.33,-0.06 0.51,-0.15 0.1,-0.06 0.21,-0.15 0.34,-0.27 0.11,-0.1 0.2,-0.2 0.29,-0.31zm1.18 -1.47c0.04,-0.05 -0.01,-0.06 -0.16,-0.04 -0.16,0.02 -0.25,0.05 -0.29,0.1 -0.07,0.09 -0.21,0.3 -0.41,0.64l-0.12 0.18 -0.19 0c-0.03,0 -0.05,0.02 -0.08,0.06 -0.03,0.04 -0.03,0.06 0,0.06l0.19 0 -0.24 0.4 -0.2 0.37 -0.07 0.12c-0.01,0.05 -0.02,0.08 -0.03,0.1 -0.01,0.09 0.02,0.14 0.1,0.16 0.03,0.01 0.06,0.01 0.11,0.01 0.01,0 0.03,0 0.05,-0.01 0.02,0 0.04,0 0.05,0 0.08,-0.02 0.19,-0.08 0.34,-0.18 0.13,-0.09 0.25,-0.19 0.35,-0.29 0.01,-0.01 0.02,-0.02 0.02,-0.03 0.01,-0.03 0.01,-0.06 -0.01,-0.08 -0.01,0 -0.02,0 -0.03,0 -0.06,0.06 -0.14,0.14 -0.25,0.23l-0.13 0.1c-0.04,0.03 -0.07,0.05 -0.08,0.06 -0.09,0.02 -0.12,0 -0.1,-0.08 0.02,-0.12 0.08,-0.28 0.19,-0.48l0.25 -0.4 0.26 0c0.03,0 0.06,-0.02 0.08,-0.06 0.03,-0.04 0.03,-0.06 0.01,-0.06l-0.28 0c0.11,-0.16 0.23,-0.32 0.34,-0.48l0.12 -0.15c0.01,-0.02 0.03,-0.04 0.04,-0.06 0.07,-0.08 0.12,-0.15 0.17,-0.19zm1.01 -0.29c0.05,-0.03 0.05,-0.05 0,-0.06 -0.05,-0.01 -0.14,0 -0.24,0.02 -0.11,0.02 -0.19,0.05 -0.21,0.09 -0.17,0.21 -0.38,0.5 -0.62,0.87 -0.21,0.32 -0.39,0.6 -0.53,0.85 -0.16,0.28 -0.25,0.47 -0.28,0.58 0,0.05 0.04,0.08 0.14,0.1 0.04,0 0.07,0.01 0.11,0 0.03,0 0.06,-0.01 0.07,-0.03 0.16,-0.24 0.33,-0.46 0.5,-0.64 0.2,-0.22 0.36,-0.33 0.47,-0.35 0.02,-0.01 0.02,0 0.01,0.01 -0.08,0.12 -0.15,0.22 -0.21,0.31 -0.09,0.13 -0.16,0.24 -0.22,0.34 -0.04,0.07 -0.06,0.14 -0.07,0.21 -0.01,0.07 0.01,0.11 0.04,0.13 0.11,0.07 0.28,0.04 0.5,-0.08 0.08,-0.05 0.17,-0.11 0.26,-0.19l0.19 -0.17c0.01,-0.01 0.02,-0.04 0.02,-0.08 0,-0.04 -0.01,-0.06 -0.02,-0.04 -0.09,0.08 -0.18,0.16 -0.29,0.25 -0.1,0.07 -0.17,0.12 -0.2,0.13 -0.1,0.02 -0.13,-0.03 -0.1,-0.15 0.02,-0.06 0.06,-0.13 0.12,-0.22 0.04,-0.07 0.1,-0.15 0.18,-0.25 0.01,-0.01 0.03,-0.03 0.05,-0.05l0.13 -0.17 0.07 -0.09c0.02,-0.03 0.03,-0.05 0.04,-0.07 0.03,-0.09 -0.02,-0.14 -0.17,-0.15 -0.14,-0.01 -0.31,0.08 -0.53,0.24 -0.07,0.06 -0.16,0.14 -0.26,0.23l-0.23 0.22 0 -0.01c0.18,-0.29 0.37,-0.59 0.58,-0.91 0.2,-0.28 0.44,-0.57 0.7,-0.87zm0.74 1.16c0.04,-0.04 -0.01,-0.05 -0.15,-0.03 -0.14,0.02 -0.23,0.05 -0.27,0.1l-0.12 0.18c-0.07,0.1 -0.14,0.2 -0.19,0.29l-0.17 0.28c-0.07,0.13 -0.12,0.23 -0.13,0.3 -0.02,0.09 0.01,0.15 0.09,0.17 0.06,0.01 0.13,0.01 0.22,-0.01 0.08,-0.02 0.18,-0.07 0.32,-0.16 0.13,-0.09 0.24,-0.18 0.34,-0.27l0.02 -0.03c0.01,-0.02 0.01,-0.03 0.01,-0.05 0,-0.02 -0.01,-0.03 -0.02,-0.04 -0.01,-0.01 -0.02,-0.01 -0.03,0.01 -0.06,0.06 -0.14,0.13 -0.24,0.21 -0.05,0.04 -0.09,0.07 -0.12,0.09 -0.03,0.03 -0.06,0.04 -0.08,0.05 -0.09,0.03 -0.12,0 -0.1,-0.08 0.03,-0.12 0.08,-0.24 0.15,-0.37 0.06,-0.11 0.14,-0.22 0.22,-0.34 0.04,-0.06 0.09,-0.12 0.15,-0.18l0.1 -0.12zm0.21 -0.2c0.08,-0.06 0.11,-0.14 0.08,-0.22 -0.02,-0.09 -0.09,-0.14 -0.19,-0.15 -0.12,-0.02 -0.22,0.01 -0.29,0.08 -0.08,0.07 -0.11,0.15 -0.08,0.22 0.03,0.08 0.1,0.13 0.19,0.14 0.11,0.02 0.21,-0.01 0.29,-0.07zm1.25 1.02c0.01,-0.01 0.01,-0.03 0,-0.05 0,-0.02 0,-0.03 -0.01,-0.04 -0.01,-0.01 -0.02,-0.01 -0.03,0.01 -0.06,0.05 -0.13,0.12 -0.21,0.19 -0.09,0.07 -0.16,0.12 -0.2,0.14 -0.05,0.03 -0.09,0.03 -0.12,0 -0.03,-0.03 -0.03,-0.07 -0.02,-0.12 0.02,-0.06 0.06,-0.13 0.11,-0.22 0.04,-0.06 0.1,-0.13 0.17,-0.23l0.26 -0.33c0.02,-0.03 0.04,-0.06 0.04,-0.07 0.05,-0.1 -0.01,-0.16 -0.16,-0.16 -0.14,0 -0.32,0.08 -0.54,0.26 -0.09,0.06 -0.18,0.14 -0.28,0.24l-0.24 0.22 0 -0.01c0.05,-0.09 0.11,-0.19 0.19,-0.29 0.07,-0.11 0.16,-0.23 0.27,-0.35 0.03,-0.04 0.02,-0.05 -0.05,-0.04 -0.18,0.01 -0.3,0.05 -0.35,0.11 -0.14,0.18 -0.26,0.38 -0.39,0.6 -0.11,0.21 -0.19,0.38 -0.25,0.53 -0.02,0.05 0.03,0.08 0.13,0.08 0.04,0 0.08,0 0.11,-0.01 0.04,-0.01 0.07,-0.02 0.08,-0.04 0.16,-0.23 0.33,-0.44 0.51,-0.63 0.21,-0.21 0.37,-0.32 0.48,-0.34 0.01,-0.01 0.01,-0.01 0.01,0 0.01,0 0.01,0.01 0,0.01l-0.12 0.17c-0.05,0.08 -0.09,0.14 -0.13,0.2 -0.07,0.1 -0.13,0.19 -0.18,0.28 -0.09,0.18 -0.1,0.3 -0.02,0.35 0.05,0.03 0.14,0.04 0.26,0.01 0.18,-0.05 0.41,-0.19 0.66,-0.44 0,-0.01 0.01,-0.01 0.01,-0.02 0.01,0 0.01,-0.01 0.01,-0.01zm1.68 -0.08c-0.01,-0.01 -0.01,-0.01 -0.02,-0.01 -0.01,0 -0.02,0.01 -0.02,0.01 -0.09,0.1 -0.18,0.18 -0.28,0.25 -0.12,0.08 -0.2,0.12 -0.25,0.11 -0.11,-0.04 -0.18,-0.13 -0.21,-0.28 -0.01,-0.05 -0.02,-0.12 -0.02,-0.19 0,-0.05 0,-0.11 0,-0.17 0.05,-0.05 0.12,-0.1 0.2,-0.15 0.06,-0.04 0.12,-0.07 0.18,-0.09 0.1,-0.05 0.21,-0.07 0.34,-0.08 0.05,0 0.09,-0.02 0.1,-0.07 0.02,-0.04 -0.01,-0.09 -0.08,-0.12 -0.06,-0.03 -0.14,-0.04 -0.24,-0.01 -0.08,0.01 -0.15,0.04 -0.21,0.08 -0.09,0.06 -0.18,0.12 -0.26,0.19 -0.07,0.06 -0.15,0.12 -0.23,0.2 -0.02,0.02 -0.06,0.06 -0.1,0.1l-0.11 0.1c-0.08,0.09 -0.16,0.16 -0.23,0.22 0.17,-0.34 0.43,-0.73 0.76,-1.19 0.23,-0.31 0.44,-0.57 0.63,-0.78l0.02 -0.02c0.01,0 0.02,-0.01 0.02,-0.02 0.02,-0.02 0.01,-0.03 -0.01,-0.04 -0.09,-0.02 -0.22,-0.01 -0.36,0.05 -0.06,0.02 -0.11,0.06 -0.15,0.11 -0.08,0.11 -0.17,0.22 -0.26,0.35 -0.1,0.14 -0.2,0.28 -0.29,0.42 -0.17,0.24 -0.32,0.48 -0.46,0.71 -0.15,0.26 -0.28,0.49 -0.37,0.7 -0.04,0.08 -0.01,0.14 0.1,0.17 0.03,0.01 0.07,0.01 0.11,0.01 0.04,0 0.07,-0.01 0.08,-0.03 0.08,-0.1 0.15,-0.19 0.23,-0.28 0.11,-0.12 0.21,-0.22 0.31,-0.31 0,0.15 0.01,0.28 0.02,0.37 0.03,0.14 0.08,0.21 0.15,0.23 0.12,0.04 0.28,0 0.46,-0.1 0.17,-0.08 0.31,-0.2 0.44,-0.35 0.02,-0.02 0.02,-0.05 0.01,-0.09zm3.28 -2.39c0.01,-0.02 0,-0.04 -0.02,-0.05 -0.02,-0.02 -0.04,-0.02 -0.07,-0.03 -0.26,-0.02 -0.54,0.05 -0.84,0.19 -0.14,0.07 -0.3,0.21 -0.48,0.41 -0.06,0.07 -0.13,0.16 -0.2,0.25l-0.17 0.22 -0.44 0.67 -0.21 0c-0.03,0 -0.05,0.02 -0.08,0.06 -0.03,0.04 -0.03,0.06 0,0.06l0.21 0 -0.49 0.78 -0.65 1.1c-0.05,0.07 -0.01,0.14 0.11,0.21 0.1,0.05 0.17,0.05 0.2,-0.02 0.21,-0.41 0.44,-0.84 0.71,-1.29 0.07,-0.12 0.15,-0.25 0.24,-0.39l0.24 -0.39 0.38 0c0.03,0 0.05,-0.02 0.08,-0.06 0.03,-0.04 0.03,-0.06 0,-0.06l-0.39 0 0.48 -0.77c0.1,-0.17 0.2,-0.3 0.28,-0.4 0.1,-0.13 0.2,-0.22 0.29,-0.27 0.15,-0.12 0.34,-0.16 0.57,-0.12 0.06,0.01 0.1,0.03 0.12,0.08 0.07,-0.05 0.11,-0.1 0.13,-0.18zm-0.79 1.82c0.01,0.23 -0.07,0.45 -0.26,0.68 -0.12,0.13 -0.24,0.22 -0.36,0.26 -0.16,0.04 -0.26,0.01 -0.32,-0.09 -0.05,-0.08 -0.06,-0.19 -0.01,-0.33 0.05,-0.12 0.12,-0.23 0.22,-0.34 0.14,-0.14 0.27,-0.22 0.4,-0.24 -0.01,0.02 -0.02,0.04 -0.02,0.07 0,0.03 0.01,0.06 0.02,0.09l0.01 0.03c0.01,0.01 0.02,0.01 0.02,0.01 0.02,-0.07 0.07,-0.14 0.15,-0.2 0.09,-0.08 0.14,-0.06 0.15,0.06zm0.26 -0.29c-0.11,-0.07 -0.24,-0.04 -0.4,0.09 -0.04,-0.04 -0.13,-0.04 -0.26,0.01 -0.1,0.03 -0.21,0.09 -0.32,0.16 -0.38,0.25 -0.58,0.53 -0.59,0.84 0,0.21 0.1,0.33 0.33,0.33 0.17,0.01 0.35,-0.04 0.51,-0.13 0.12,-0.07 0.21,-0.14 0.28,-0.19 0.11,-0.09 0.22,-0.2 0.32,-0.33 0.11,-0.16 0.18,-0.31 0.21,-0.47 0.03,-0.16 0,-0.26 -0.08,-0.31zm1.18 0.88c0,-0.02 0,-0.03 -0.01,-0.03 -0.01,-0.01 -0.02,-0.01 -0.03,0 -0.04,0.04 -0.1,0.09 -0.17,0.16l-0.09 0.08c-0.03,0.02 -0.05,0.04 -0.06,0.05 -0.09,0.05 -0.15,0.06 -0.19,0.03 -0.03,-0.03 -0.03,-0.09 0.02,-0.18 0.05,-0.09 0.12,-0.19 0.21,-0.29l0.11 -0.12c0.04,-0.04 0.07,-0.08 0.09,-0.12 0.05,-0.07 0.05,-0.12 0,-0.15 -0.05,-0.03 -0.12,-0.03 -0.21,0.01l-0.33 0.12c-0.04,0.02 -0.06,0.03 -0.08,0.03 0.14,-0.13 0.27,-0.31 0.4,-0.54 0.13,-0.24 0.15,-0.38 0.06,-0.4 -0.1,-0.01 -0.25,0.11 -0.46,0.38 -0.09,0.12 -0.15,0.23 -0.19,0.34 -0.05,0.12 -0.05,0.21 -0.02,0.28 -0.03,0.05 -0.12,0.16 -0.27,0.33 -0.02,0.01 -0.03,0.03 -0.05,0.04 -0.02,0.02 -0.04,0.04 -0.05,0.06l-0.13 0.11c-0.1,0.08 -0.19,0.14 -0.27,0.17 -0.02,0.01 -0.02,0.02 0.01,0.04 0.03,0.02 0.05,0.02 0.07,0.02 0.09,-0.06 0.19,-0.12 0.29,-0.2 0.08,-0.07 0.15,-0.13 0.19,-0.17l0.16 -0.18c0.06,-0.07 0.1,-0.12 0.13,-0.17 0.02,0.01 0.04,0.01 0.08,0l0.11 -0.03c0.08,-0.02 0.12,-0.01 0.1,0.05 -0.01,0.02 -0.05,0.07 -0.11,0.15l-0.22 0.27c-0.12,0.14 -0.15,0.26 -0.09,0.36 0.07,0.11 0.23,0.1 0.48,-0.03 0.18,-0.1 0.35,-0.23 0.51,-0.4 0.01,-0.01 0.01,-0.02 0.01,-0.03l0 -0.04z"/>
  <path class="fil1" d="M17.37 2.04c-0.02,0.21 -0.11,0.4 -0.29,0.58 -0.19,0.18 -0.39,0.27 -0.6,0.27 -0.05,0 -0.07,-0.03 -0.05,-0.11 0.03,-0.1 0.09,-0.21 0.16,-0.33l0.28 -0.45c0.16,-0.12 0.28,-0.16 0.37,-0.15 0.09,0.02 0.13,0.08 0.13,0.19zm0.6 -1.48c0.05,-0.05 -0.01,-0.07 -0.17,-0.05 -0.16,0.02 -0.26,0.05 -0.3,0.1 -0.13,0.16 -0.26,0.34 -0.41,0.55l-0.4 0.57c-0.31,0.49 -0.52,0.83 -0.62,1.02 -0.11,0.24 0.01,0.33 0.39,0.28 0.26,-0.03 0.52,-0.15 0.79,-0.35 0.29,-0.21 0.44,-0.44 0.48,-0.67 0.02,-0.16 -0.03,-0.26 -0.16,-0.31 -0.14,-0.05 -0.33,-0.02 -0.57,0.09 0.23,-0.32 0.45,-0.62 0.66,-0.9 0.11,-0.13 0.21,-0.24 0.31,-0.33zm0.64 1.49c-0.06,0.07 -0.15,0.15 -0.26,0.22 -0.13,0.09 -0.26,0.15 -0.4,0.18 0.05,-0.28 0.22,-0.48 0.51,-0.6 0.12,-0.06 0.2,-0.06 0.23,-0.02 0.03,0.04 0,0.12 -0.08,0.22zm0.48 0.28c0.02,-0.02 0.03,-0.04 0.01,-0.07 -0.01,-0.02 -0.02,-0.03 -0.03,-0.02 -0.06,0.07 -0.13,0.15 -0.2,0.22 -0.1,0.1 -0.2,0.18 -0.29,0.24 -0.26,0.17 -0.45,0.18 -0.59,0.04 0,-0.01 -0.01,-0.02 -0.01,-0.03l-0.03 -0.04c-0.01,-0.04 -0.02,-0.08 -0.02,-0.11 0.09,-0.01 0.22,-0.06 0.38,-0.14 0.16,-0.08 0.3,-0.17 0.43,-0.27 0.27,-0.2 0.35,-0.35 0.25,-0.44 -0.09,-0.09 -0.28,-0.08 -0.56,0.02 -0.27,0.1 -0.49,0.26 -0.67,0.47 -0.17,0.21 -0.24,0.4 -0.2,0.56 0.04,0.2 0.17,0.3 0.39,0.3 0.16,-0.01 0.33,-0.06 0.51,-0.15 0.1,-0.06 0.22,-0.15 0.34,-0.27 0.11,-0.1 0.21,-0.2 0.29,-0.31zm1.18 -1.47c0.05,-0.05 -0.01,-0.06 -0.16,-0.04 -0.15,0.02 -0.25,0.05 -0.29,0.1 -0.07,0.09 -0.2,0.3 -0.41,0.64l-0.12 0.18 -0.19 0c-0.02,0 -0.05,0.02 -0.08,0.06 -0.03,0.04 -0.03,0.06 0,0.06l0.2 0 -0.24 0.4 -0.21 0.37 -0.06 0.12c-0.02,0.05 -0.03,0.08 -0.03,0.1 -0.02,0.09 0.01,0.14 0.09,0.16 0.03,0.01 0.07,0.01 0.11,0.01 0.02,0 0.04,0 0.06,-0.01 0.01,0 0.03,0 0.05,0 0.07,-0.02 0.18,-0.08 0.33,-0.18 0.14,-0.09 0.26,-0.19 0.36,-0.29 0.01,-0.01 0.01,-0.02 0.02,-0.03 0.01,-0.03 0,-0.06 -0.01,-0.08 -0.01,0 -0.03,0 -0.04,0 -0.06,0.06 -0.14,0.14 -0.25,0.23l-0.13 0.1c-0.04,0.03 -0.07,0.05 -0.08,0.06 -0.09,0.02 -0.12,0 -0.1,-0.08 0.02,-0.12 0.09,-0.28 0.2,-0.48l0.24 -0.4 0.26 0c0.03,0 0.06,-0.02 0.09,-0.06 0.03,-0.04 0.03,-0.06 0,-0.06l-0.28 0c0.11,-0.16 0.23,-0.32 0.35,-0.48l0.11 -0.15c0.02,-0.02 0.03,-0.04 0.04,-0.06 0.07,-0.08 0.13,-0.15 0.17,-0.19zm0.78 0c0.04,-0.05 -0.01,-0.06 -0.16,-0.04 -0.16,0.02 -0.25,0.05 -0.29,0.1 -0.07,0.09 -0.21,0.3 -0.41,0.64l-0.12 0.18 -0.19 0c-0.03,0 -0.05,0.02 -0.08,0.06 -0.03,0.04 -0.03,0.06 0,0.06l0.19 0 -0.24 0.4 -0.2 0.37 -0.06 0.12c-0.02,0.05 -0.03,0.08 -0.04,0.1 -0.01,0.09 0.02,0.14 0.1,0.16 0.03,0.01 0.06,0.01 0.11,0.01 0.01,0 0.03,0 0.05,-0.01 0.02,0 0.04,0 0.05,0 0.08,-0.02 0.19,-0.08 0.34,-0.18 0.13,-0.09 0.25,-0.19 0.35,-0.29 0.01,-0.01 0.02,-0.02 0.02,-0.03 0.01,-0.03 0.01,-0.06 -0.01,-0.08 -0.01,0 -0.02,0 -0.03,0 -0.06,0.06 -0.14,0.14 -0.25,0.23l-0.13 0.1c-0.04,0.03 -0.07,0.05 -0.08,0.06 -0.09,0.02 -0.12,0 -0.1,-0.08 0.02,-0.12 0.08,-0.28 0.19,-0.48l0.25 -0.4 0.26 0c0.03,0 0.06,-0.02 0.08,-0.06 0.03,-0.04 0.03,-0.06 0.01,-0.06l-0.28 0c0.11,-0.16 0.23,-0.32 0.34,-0.48l0.12 -0.15c0.01,-0.02 0.03,-0.04 0.04,-0.06 0.07,-0.08 0.12,-0.15 0.17,-0.19zm0.29 1.19c-0.06,0.07 -0.14,0.15 -0.26,0.22 -0.13,0.09 -0.26,0.15 -0.39,0.18 0.04,-0.28 0.21,-0.48 0.5,-0.6 0.13,-0.06 0.2,-0.06 0.23,-0.02 0.03,0.04 0,0.12 -0.08,0.22zm0.49 0.28c0.02,-0.02 0.02,-0.04 0.01,-0.07 -0.01,-0.02 -0.02,-0.03 -0.03,-0.02 -0.07,0.07 -0.13,0.15 -0.21,0.22 -0.1,0.1 -0.2,0.18 -0.29,0.24 -0.26,0.17 -0.45,0.18 -0.58,0.04 -0.01,-0.01 -0.02,-0.02 -0.02,-0.03l-0.02 -0.04c-0.02,-0.04 -0.03,-0.08 -0.03,-0.11 0.1,-0.01 0.22,-0.06 0.38,-0.14 0.16,-0.08 0.3,-0.17 0.43,-0.27 0.27,-0.2 0.35,-0.35 0.26,-0.44 -0.1,-0.09 -0.28,-0.08 -0.56,0.02 -0.27,0.1 -0.5,0.26 -0.68,0.47 -0.17,0.21 -0.24,0.4 -0.2,0.56 0.05,0.2 0.18,0.3 0.39,0.3 0.16,-0.01 0.33,-0.06 0.52,-0.15 0.1,-0.06 0.21,-0.15 0.34,-0.27 0.1,-0.1 0.2,-0.2 0.29,-0.31zm0.96 0.16c0,-0.02 0,-0.03 -0.01,-0.03 -0.01,-0.01 -0.02,-0.01 -0.03,0 -0.04,0.04 -0.1,0.09 -0.17,0.16l-0.09 0.08c-0.03,0.02 -0.05,0.04 -0.06,0.05 -0.08,0.05 -0.15,0.06 -0.18,0.03 -0.04,-0.03 -0.04,-0.09 0.02,-0.18 0.05,-0.09 0.12,-0.19 0.2,-0.29l0.11 -0.12c0.04,-0.04 0.07,-0.08 0.1,-0.12 0.04,-0.07 0.04,-0.12 -0.01,-0.15 -0.05,-0.03 -0.12,-0.03 -0.21,0.01l-0.33 0.12c-0.04,0.02 -0.06,0.03 -0.08,0.03 0.14,-0.13 0.27,-0.31 0.4,-0.54 0.13,-0.24 0.15,-0.38 0.06,-0.4 -0.1,-0.01 -0.25,0.11 -0.46,0.38 -0.09,0.12 -0.15,0.23 -0.19,0.34 -0.05,0.12 -0.05,0.21 -0.01,0.28 -0.04,0.05 -0.13,0.16 -0.28,0.33 -0.02,0.01 -0.03,0.03 -0.05,0.04 -0.02,0.02 -0.03,0.04 -0.05,0.06l-0.13 0.11c-0.1,0.08 -0.19,0.14 -0.27,0.17 -0.02,0.01 -0.01,0.02 0.01,0.04 0.03,0.02 0.05,0.02 0.07,0.02 0.09,-0.06 0.19,-0.12 0.29,-0.2 0.09,-0.07 0.15,-0.13 0.19,-0.17l0.16 -0.18c0.06,-0.07 0.1,-0.12 0.14,-0.17 0.01,0.01 0.03,0.01 0.07,0l0.11 -0.03c0.09,-0.02 0.12,-0.01 0.1,0.05 -0.01,0.02 -0.05,0.07 -0.11,0.15l-0.22 0.27c-0.12,0.14 -0.14,0.26 -0.08,0.36 0.06,0.11 0.22,0.1 0.47,-0.03 0.18,-0.1 0.35,-0.23 0.51,-0.4 0.01,-0.01 0.01,-0.02 0.01,-0.03l0 -0.04z"/>
 </g>
</svg>
