<?xml version="1.0" encoding="UTF-8"?>
<!DOCTYPE svg PUBLIC "-//W3C//DTD SVG 1.1//EN" "http://www.w3.org/Graphics/SVG/1.1/DTD/svg11.dtd">
<!-- Creator: CorelDRAW -->
<svg xmlns="http://www.w3.org/2000/svg" xml:space="preserve" width="1079px" height="446px" version="1.1" style="shape-rendering:geometricPrecision; text-rendering:geometricPrecision; image-rendering:optimizeQuality; fill-rule:evenodd; clip-rule:evenodd"
viewBox="0 0 77.9 32.2"
 xmlns:xlink="http://www.w3.org/1999/xlink"
 xmlns:xodm="http://www.corel.com/coreldraw/odm/2003">
 <defs>
  <style type="text/css">
   <![CDATA[
    .fil1 {fill:#00C58E}
    .fil2 {fill:#108775}
    .fil3 {fill:#108775;fill-rule:nonzero}
    .fil0 {fill:#2F495E;fill-rule:nonzero}
   ]]>
  </style>
 </defs>
 <g id="Layer_x0020_1">
  <metadata id="CorelCorpID_0Corel-Layer"/>
  <g id="_105554553784288">
   <polygon class="fil0" points="33.99,15.78 77.9,15.78 77.9,16.42 33.99,16.42 "/>
   <path class="fil0" d="M45.62 24.34c0.01,-0.02 0,-0.04 -0.02,-0.08 -0.03,-0.04 -0.04,-0.05 -0.05,-0.02 -0.09,0.23 -0.27,0.39 -0.57,0.49 -0.28,0.1 -0.57,0.1 -0.87,0 -0.31,-0.1 -0.72,-0.28 -1.22,-0.55 -0.47,-0.24 -0.98,-0.54 -1.54,-0.9 -0.68,-0.43 -1.33,-0.87 -1.94,-1.32 -0.63,-0.46 -1.1,-0.84 -1.4,-1.14 0.53,-0.04 1.03,-0.11 1.52,-0.2 0.43,-0.09 0.85,-0.2 1.25,-0.34 0.35,-0.11 0.68,-0.25 0.99,-0.4 0.27,-0.14 0.52,-0.29 0.74,-0.44 0.5,-0.35 0.79,-0.75 0.87,-1.21 0.09,-0.51 -0.15,-0.9 -0.72,-1.16 -0.45,-0.21 -1.07,-0.32 -1.88,-0.35 -0.71,-0.02 -1.38,0.03 -2.01,0.15 -0.9,0.16 -1.78,0.46 -2.64,0.88 -0.89,0.44 -1.56,0.91 -2.01,1.43 -0.2,0.22 -0.15,0.41 0.14,0.57 0.29,0.16 0.58,0.19 0.88,0.09 -0.09,-0.06 -0.12,-0.15 -0.1,-0.28 0.05,-0.22 0.21,-0.46 0.48,-0.73 0.11,-0.11 0.23,-0.21 0.36,-0.32 0.11,-0.08 0.22,-0.16 0.34,-0.25 0.4,-0.26 0.85,-0.49 1.34,-0.68 0.47,-0.19 0.95,-0.33 1.45,-0.43 1.01,-0.21 1.86,-0.22 2.53,-0.05 0.36,0.1 0.6,0.29 0.73,0.58 0.13,0.32 0.08,0.67 -0.17,1.04 -0.3,0.44 -0.84,0.84 -1.63,1.22 -0.83,0.38 -1.63,0.57 -2.39,0.58 0.58,-0.83 1.29,-1.66 2.11,-2.5 0.07,-0.07 0.03,-0.12 -0.12,-0.15 -0.15,-0.02 -0.27,0 -0.35,0.07 -0.43,0.38 -0.87,0.8 -1.31,1.26 -0.38,0.39 -0.78,0.84 -1.22,1.34l-0.41 0.51c-0.19,0.23 -0.36,0.46 -0.52,0.67 -0.18,0.25 -0.33,0.47 -0.43,0.64 -0.13,0.21 -0.19,0.37 -0.19,0.45 0.01,0.15 0.19,0.19 0.52,0.12 0.29,-0.05 0.58,-0.15 0.87,-0.3 0.03,-0.01 0.03,-0.03 0.01,-0.06 -0.08,-0.09 -0.07,-0.26 0.02,-0.48 0.11,-0.26 0.33,-0.61 0.68,-1.05 0.53,0.58 1.08,1.15 1.66,1.68 0.53,0.49 1.05,0.94 1.58,1.34 1.16,0.89 2.05,1.4 2.68,1.54 0.32,0.06 0.69,-0.04 1.11,-0.3 0.43,-0.27 0.71,-0.59 0.85,-0.96zm-2.24 -3.83c-0.11,0.15 -0.28,0.29 -0.5,0.43 -0.25,0.17 -0.51,0.29 -0.76,0.35 0.08,-0.53 0.41,-0.92 0.96,-1.15 0.25,-0.11 0.4,-0.12 0.45,-0.04 0.06,0.08 0.01,0.22 -0.15,0.41zm0.93 0.55c0.04,-0.04 0.04,-0.08 0.02,-0.13 -0.02,-0.05 -0.04,-0.07 -0.06,-0.05 -0.12,0.15 -0.25,0.29 -0.39,0.43 -0.2,0.18 -0.38,0.34 -0.56,0.45 -0.5,0.33 -0.87,0.36 -1.12,0.09 -0.02,-0.02 -0.03,-0.03 -0.04,-0.05l-0.04 -0.08c-0.03,-0.09 -0.05,-0.16 -0.04,-0.23 0.17,-0.01 0.42,-0.1 0.73,-0.26 0.29,-0.14 0.57,-0.32 0.82,-0.51 0.51,-0.39 0.67,-0.68 0.49,-0.85 -0.18,-0.17 -0.54,-0.16 -1.08,0.04 -0.52,0.19 -0.95,0.49 -1.29,0.9 -0.34,0.41 -0.47,0.77 -0.39,1.08 0.09,0.38 0.33,0.57 0.75,0.56 0.31,0 0.64,-0.1 0.99,-0.28 0.19,-0.11 0.41,-0.28 0.65,-0.51 0.21,-0.2 0.39,-0.4 0.56,-0.6zm2.27 -2.84c0.08,-0.08 -0.02,-0.11 -0.32,-0.07 -0.29,0.04 -0.47,0.11 -0.55,0.21 -0.13,0.17 -0.39,0.57 -0.79,1.21l-0.23 0.36 -0.37 0c-0.04,0 -0.1,0.04 -0.15,0.11 -0.06,0.08 -0.06,0.12 0,0.12l0.38 0 -0.47 0.77 -0.39 0.7 -0.12 0.23c-0.04,0.09 -0.06,0.16 -0.06,0.2 -0.04,0.16 0.02,0.27 0.18,0.31 0.06,0.01 0.13,0.02 0.21,0.01 0.03,0 0.07,0 0.11,-0.01 0.03,0 0.06,0 0.09,-0.01 0.15,-0.03 0.36,-0.15 0.65,-0.34 0.26,-0.18 0.49,-0.37 0.68,-0.55 0.02,-0.02 0.04,-0.04 0.04,-0.06 0.02,-0.07 0.01,-0.12 -0.02,-0.16 -0.02,-0.01 -0.04,-0.01 -0.06,0 -0.12,0.13 -0.28,0.27 -0.49,0.45l-0.25 0.19c-0.07,0.06 -0.13,0.09 -0.15,0.1 -0.17,0.05 -0.24,0 -0.2,-0.15 0.04,-0.22 0.17,-0.52 0.38,-0.91l0.47 -0.77 0.51 0c0.05,0 0.1,-0.04 0.16,-0.12 0.05,-0.07 0.05,-0.11 0,-0.11l-0.53 0c0.21,-0.32 0.43,-0.63 0.66,-0.92l0.22 -0.3c0.03,-0.04 0.06,-0.07 0.08,-0.1 0.13,-0.17 0.24,-0.29 0.33,-0.39zm1.95 -0.55c0.08,-0.06 0.08,-0.1 0,-0.11 -0.11,-0.02 -0.27,0 -0.47,0.04 -0.22,0.04 -0.36,0.1 -0.41,0.17 -0.32,0.41 -0.72,0.97 -1.19,1.68 -0.4,0.6 -0.74,1.14 -1.02,1.63 -0.31,0.54 -0.48,0.91 -0.52,1.11 -0.02,0.09 0.07,0.15 0.25,0.19 0.07,0.01 0.15,0.02 0.21,0.01 0.07,-0.01 0.11,-0.03 0.13,-0.06 0.32,-0.47 0.65,-0.88 0.97,-1.23 0.39,-0.42 0.69,-0.65 0.9,-0.68 0.04,-0.02 0.05,-0.01 0.03,0.03 -0.16,0.21 -0.29,0.41 -0.41,0.59 -0.17,0.25 -0.31,0.46 -0.42,0.64 -0.08,0.14 -0.12,0.28 -0.13,0.41 -0.02,0.14 0.01,0.22 0.08,0.26 0.21,0.13 0.53,0.08 0.96,-0.16 0.15,-0.09 0.31,-0.21 0.5,-0.36l0.35 -0.33c0.03,-0.03 0.04,-0.08 0.04,-0.16 0,-0.08 -0.02,-0.1 -0.04,-0.08 -0.16,0.16 -0.34,0.32 -0.55,0.48 -0.2,0.15 -0.32,0.24 -0.38,0.25 -0.19,0.05 -0.25,-0.04 -0.19,-0.27 0.03,-0.12 0.11,-0.27 0.22,-0.44 0.09,-0.12 0.2,-0.28 0.35,-0.47 0.03,-0.03 0.06,-0.06 0.09,-0.11l0.26 -0.31 0.13 -0.17c0.03,-0.06 0.06,-0.11 0.07,-0.14 0.07,-0.18 -0.04,-0.28 -0.32,-0.29 -0.26,-0.01 -0.6,0.14 -1.01,0.47 -0.15,0.11 -0.32,0.26 -0.5,0.44l-0.44 0.42 0 -0.02c0.33,-0.56 0.7,-1.14 1.11,-1.75 0.39,-0.53 0.83,-1.1 1.35,-1.68zm1.41 2.24c0.09,-0.08 -0.01,-0.1 -0.28,-0.07 -0.28,0.04 -0.45,0.11 -0.52,0.21l-0.23 0.34c-0.14,0.2 -0.26,0.38 -0.37,0.56l-0.33 0.54c-0.14,0.25 -0.22,0.43 -0.25,0.57 -0.03,0.17 0.03,0.28 0.18,0.32 0.11,0.03 0.25,0.02 0.42,-0.02 0.15,-0.03 0.35,-0.13 0.62,-0.3 0.24,-0.17 0.46,-0.34 0.65,-0.52l0.05 -0.06c0,-0.03 0.01,-0.06 0,-0.1 0,-0.04 -0.01,-0.06 -0.03,-0.07 -0.02,-0.02 -0.04,-0.01 -0.06,0.01 -0.12,0.12 -0.27,0.26 -0.46,0.41 -0.09,0.07 -0.16,0.13 -0.23,0.18 -0.07,0.05 -0.12,0.08 -0.15,0.08 -0.17,0.06 -0.24,0.01 -0.19,-0.15 0.05,-0.22 0.14,-0.45 0.28,-0.71 0.12,-0.21 0.26,-0.43 0.42,-0.65 0.08,-0.11 0.18,-0.23 0.28,-0.35l0.2 -0.22zm0.41 -0.39c0.15,-0.12 0.2,-0.26 0.15,-0.43 -0.04,-0.16 -0.16,-0.26 -0.35,-0.28 -0.24,-0.04 -0.43,0.01 -0.58,0.15 -0.15,0.14 -0.19,0.28 -0.14,0.43 0.06,0.15 0.18,0.24 0.36,0.26 0.21,0.04 0.4,-0.01 0.56,-0.13zm2.4 1.96c0.01,-0.03 0.02,-0.06 0.01,-0.1 0,-0.04 -0.01,-0.06 -0.03,-0.07 -0.02,-0.02 -0.04,-0.02 -0.06,0.01 -0.11,0.11 -0.25,0.23 -0.4,0.37 -0.18,0.14 -0.3,0.24 -0.37,0.28 -0.1,0.05 -0.18,0.04 -0.24,0 -0.06,-0.06 -0.07,-0.14 -0.04,-0.24 0.04,-0.12 0.11,-0.26 0.22,-0.42 0.07,-0.11 0.18,-0.26 0.33,-0.45l0.49 -0.63c0.04,-0.06 0.07,-0.11 0.08,-0.14 0.08,-0.19 -0.02,-0.29 -0.31,-0.29 -0.27,-0.02 -0.61,0.15 -1.05,0.48 -0.16,0.13 -0.34,0.28 -0.54,0.47l-0.45 0.42 0 -0.02c0.09,-0.17 0.21,-0.35 0.36,-0.56 0.14,-0.21 0.31,-0.44 0.53,-0.67 0.06,-0.06 0.02,-0.09 -0.11,-0.08 -0.34,0.02 -0.57,0.09 -0.67,0.23 -0.26,0.34 -0.5,0.72 -0.74,1.15 -0.22,0.39 -0.38,0.73 -0.48,1.02 -0.04,0.09 0.04,0.14 0.24,0.15 0.08,0 0.16,-0.01 0.22,-0.03 0.08,-0.01 0.13,-0.04 0.15,-0.08 0.3,-0.44 0.63,-0.84 0.98,-1.2 0.4,-0.4 0.7,-0.62 0.91,-0.66 0.02,-0.01 0.03,-0.01 0.04,0 0,0.01 0,0.02 0,0.03l-0.24 0.33c-0.1,0.14 -0.18,0.26 -0.25,0.37 -0.14,0.2 -0.25,0.38 -0.35,0.55 -0.18,0.34 -0.19,0.57 -0.04,0.66 0.11,0.07 0.27,0.08 0.5,0.03 0.36,-0.09 0.79,-0.38 1.28,-0.85 0,-0.01 0.01,-0.02 0.02,-0.04 0.01,-0.01 0.01,-0.01 0.01,-0.02zm3.23 -0.16c-0.01,-0.01 -0.02,-0.02 -0.04,-0.01 -0.01,0 -0.03,0.01 -0.03,0.02 -0.17,0.18 -0.35,0.34 -0.54,0.48 -0.23,0.16 -0.39,0.23 -0.49,0.2 -0.2,-0.06 -0.34,-0.23 -0.4,-0.52 -0.02,-0.11 -0.04,-0.23 -0.04,-0.37 0,-0.1 0,-0.21 0.01,-0.33 0.1,-0.09 0.23,-0.19 0.38,-0.28 0.12,-0.08 0.23,-0.14 0.34,-0.18 0.19,-0.09 0.41,-0.14 0.65,-0.15 0.11,0 0.18,-0.05 0.21,-0.13 0.03,-0.1 -0.02,-0.17 -0.15,-0.24 -0.13,-0.06 -0.28,-0.07 -0.47,-0.03 -0.16,0.04 -0.3,0.09 -0.41,0.17 -0.17,0.11 -0.34,0.23 -0.5,0.36 -0.13,0.11 -0.28,0.23 -0.43,0.38 -0.05,0.05 -0.12,0.12 -0.2,0.19l-0.21 0.21c-0.17,0.16 -0.31,0.3 -0.45,0.41 0.34,-0.65 0.83,-1.41 1.47,-2.29 0.43,-0.6 0.83,-1.09 1.21,-1.5l0.03 -0.03c0.03,-0.02 0.04,-0.03 0.05,-0.04 0.02,-0.04 0.01,-0.07 -0.03,-0.08 -0.18,-0.05 -0.41,-0.02 -0.7,0.09 -0.11,0.05 -0.2,0.12 -0.28,0.22 -0.15,0.21 -0.32,0.43 -0.49,0.66 -0.19,0.27 -0.38,0.54 -0.56,0.81 -0.32,0.47 -0.62,0.93 -0.88,1.37 -0.3,0.5 -0.54,0.95 -0.73,1.35 -0.06,0.15 0,0.26 0.19,0.32 0.08,0.02 0.15,0.03 0.23,0.02 0.07,0 0.13,-0.02 0.15,-0.05 0.15,-0.19 0.29,-0.37 0.45,-0.55 0.19,-0.22 0.39,-0.42 0.58,-0.59 0,0.3 0.02,0.54 0.05,0.71 0.05,0.26 0.15,0.41 0.28,0.45 0.24,0.07 0.54,0 0.89,-0.19 0.32,-0.17 0.6,-0.4 0.84,-0.68 0.04,-0.03 0.04,-0.09 0.02,-0.18zm6.31 -4.58c0.02,-0.05 0,-0.09 -0.04,-0.11 -0.03,-0.02 -0.07,-0.04 -0.12,-0.05 -0.51,-0.03 -1.05,0.08 -1.62,0.36 -0.27,0.14 -0.58,0.4 -0.93,0.78 -0.12,0.15 -0.26,0.31 -0.39,0.49l-0.32 0.43 -0.84 1.29 -0.42 0c-0.04,0 -0.1,0.04 -0.15,0.11 -0.06,0.08 -0.06,0.12 0,0.12l0.41 0 -0.94 1.5 -1.26 2.1c-0.08,0.14 -0.01,0.27 0.22,0.41 0.19,0.1 0.32,0.09 0.38,-0.03 0.4,-0.79 0.85,-1.62 1.36,-2.48 0.14,-0.23 0.3,-0.48 0.46,-0.76l0.47 -0.74 0.74 0c0.04,0 0.09,-0.04 0.15,-0.12 0.05,-0.07 0.05,-0.11 0,-0.11l-0.75 0 0.91 -1.49c0.2,-0.32 0.38,-0.58 0.55,-0.77 0.2,-0.25 0.38,-0.42 0.55,-0.51 0.29,-0.24 0.66,-0.32 1.1,-0.24 0.12,0.02 0.19,0.07 0.23,0.15 0.13,-0.08 0.21,-0.19 0.25,-0.33zm-1.52 3.49c0.03,0.44 -0.14,0.87 -0.49,1.31 -0.23,0.26 -0.46,0.42 -0.7,0.49 -0.3,0.09 -0.5,0.03 -0.62,-0.16 -0.1,-0.17 -0.1,-0.38 -0.01,-0.63 0.08,-0.23 0.22,-0.45 0.43,-0.66 0.25,-0.27 0.51,-0.42 0.75,-0.45 -0.02,0.02 -0.03,0.07 -0.03,0.13 0,0.06 0.02,0.11 0.03,0.17l0.04 0.05c0.01,0.01 0.02,0.02 0.03,0.02 0.04,-0.14 0.13,-0.27 0.28,-0.39 0.18,-0.14 0.27,-0.1 0.29,0.12zm0.5 -0.55c-0.21,-0.14 -0.47,-0.09 -0.77,0.16 -0.08,-0.08 -0.24,-0.07 -0.49,0.02 -0.2,0.07 -0.41,0.18 -0.62,0.32 -0.74,0.47 -1.11,1 -1.13,1.6 -0.01,0.42 0.19,0.64 0.62,0.65 0.34,0.01 0.67,-0.08 0.99,-0.26 0.23,-0.14 0.41,-0.26 0.54,-0.36 0.21,-0.18 0.42,-0.39 0.61,-0.64 0.22,-0.3 0.36,-0.6 0.41,-0.9 0.05,-0.3 0,-0.5 -0.16,-0.59zm2.28 1.69c-0.01,-0.03 -0.01,-0.05 -0.03,-0.06 -0.02,-0.02 -0.04,-0.02 -0.06,0 -0.08,0.08 -0.19,0.18 -0.32,0.3l-0.18 0.15c-0.05,0.05 -0.09,0.08 -0.12,0.1 -0.16,0.11 -0.27,0.13 -0.35,0.07 -0.07,-0.07 -0.06,-0.19 0.04,-0.35 0.1,-0.17 0.23,-0.36 0.4,-0.55l0.2 -0.23c0.08,-0.09 0.14,-0.17 0.19,-0.24 0.09,-0.14 0.09,-0.23 -0.01,-0.29 -0.09,-0.06 -0.23,-0.05 -0.4,0.01l-0.65 0.25c-0.06,0.02 -0.11,0.04 -0.14,0.05 0.26,-0.25 0.51,-0.6 0.76,-1.04 0.26,-0.47 0.3,-0.72 0.13,-0.76 -0.2,-0.04 -0.5,0.2 -0.89,0.72 -0.17,0.23 -0.3,0.45 -0.37,0.65 -0.09,0.24 -0.1,0.42 -0.03,0.55 -0.06,0.1 -0.24,0.3 -0.53,0.62 -0.03,0.03 -0.06,0.06 -0.09,0.09 -0.04,0.04 -0.07,0.07 -0.1,0.1l-0.24 0.22c-0.2,0.16 -0.37,0.27 -0.52,0.33 -0.04,0.01 -0.04,0.04 0.01,0.08 0.06,0.03 0.1,0.04 0.14,0.03 0.17,-0.1 0.36,-0.23 0.56,-0.39 0.16,-0.13 0.28,-0.23 0.36,-0.32l0.31 -0.34c0.11,-0.13 0.19,-0.24 0.26,-0.33 0.02,0.02 0.07,0.02 0.14,0l0.21 -0.06c0.16,-0.04 0.23,-0.01 0.19,0.09 -0.02,0.05 -0.09,0.15 -0.21,0.3l-0.42 0.51c-0.22,0.28 -0.28,0.51 -0.16,0.7 0.13,0.21 0.43,0.19 0.91,-0.06 0.35,-0.19 0.67,-0.45 0.97,-0.77 0.03,-0.02 0.04,-0.04 0.04,-0.06l0 -0.07zm3.85 -0.88c-0.02,0.41 -0.21,0.78 -0.56,1.13 -0.35,0.35 -0.73,0.52 -1.14,0.52 -0.11,0 -0.14,-0.07 -0.09,-0.22 0.06,-0.19 0.15,-0.4 0.29,-0.63l0.55 -0.87c0.3,-0.22 0.53,-0.31 0.72,-0.28 0.16,0.03 0.23,0.15 0.23,0.35zm1.16 -2.84c0.09,-0.09 -0.02,-0.12 -0.33,-0.09 -0.3,0.03 -0.49,0.1 -0.57,0.2 -0.24,0.3 -0.51,0.65 -0.8,1.06l-0.76 1.09c-0.6,0.94 -1,1.59 -1.19,1.95 -0.22,0.46 0.02,0.64 0.74,0.54 0.5,-0.06 1.01,-0.28 1.52,-0.66 0.56,-0.41 0.86,-0.85 0.92,-1.3 0.04,-0.31 -0.06,-0.5 -0.3,-0.6 -0.26,-0.1 -0.62,-0.04 -1.09,0.19 0.44,-0.63 0.86,-1.21 1.26,-1.73 0.21,-0.26 0.41,-0.47 0.6,-0.65zm1.23 2.86c-0.11,0.15 -0.28,0.29 -0.5,0.43 -0.25,0.17 -0.51,0.29 -0.76,0.35 0.09,-0.53 0.41,-0.92 0.97,-1.15 0.24,-0.11 0.39,-0.12 0.45,-0.04 0.05,0.08 0,0.22 -0.16,0.41zm0.93 0.55c0.04,-0.04 0.05,-0.08 0.02,-0.13 -0.02,-0.05 -0.04,-0.07 -0.06,-0.05 -0.12,0.15 -0.25,0.29 -0.39,0.43 -0.19,0.18 -0.38,0.34 -0.56,0.45 -0.5,0.33 -0.87,0.36 -1.12,0.09 -0.01,-0.02 -0.03,-0.03 -0.04,-0.05l-0.04 -0.08c-0.03,-0.09 -0.05,-0.16 -0.04,-0.23 0.18,-0.01 0.42,-0.1 0.73,-0.26 0.29,-0.14 0.57,-0.32 0.82,-0.51 0.51,-0.39 0.68,-0.68 0.49,-0.85 -0.18,-0.17 -0.54,-0.16 -1.08,0.04 -0.52,0.19 -0.95,0.49 -1.29,0.9 -0.34,0.41 -0.46,0.77 -0.39,1.08 0.09,0.38 0.34,0.57 0.75,0.56 0.31,0 0.64,-0.1 0.99,-0.28 0.2,-0.11 0.41,-0.28 0.65,-0.51 0.21,-0.2 0.4,-0.4 0.56,-0.6zm2.27 -2.84c0.09,-0.08 -0.02,-0.11 -0.32,-0.07 -0.29,0.04 -0.47,0.11 -0.55,0.21 -0.13,0.17 -0.39,0.57 -0.79,1.21l-0.23 0.36 -0.37 0c-0.04,0 -0.09,0.04 -0.15,0.11 -0.06,0.08 -0.06,0.12 0,0.12l0.38 0 -0.46 0.77 -0.4 0.7 -0.12 0.23c-0.03,0.09 -0.06,0.16 -0.06,0.2 -0.03,0.16 0.03,0.27 0.18,0.31 0.06,0.01 0.13,0.02 0.21,0.01 0.03,0 0.07,0 0.11,-0.01 0.03,0 0.06,0 0.1,-0.01 0.14,-0.03 0.35,-0.15 0.64,-0.34 0.26,-0.18 0.49,-0.37 0.68,-0.55 0.02,-0.02 0.04,-0.04 0.04,-0.06 0.02,-0.07 0.01,-0.12 -0.02,-0.16 -0.02,-0.01 -0.04,-0.01 -0.06,0 -0.12,0.13 -0.28,0.27 -0.49,0.45l-0.25 0.19c-0.07,0.06 -0.12,0.09 -0.15,0.1 -0.17,0.05 -0.24,0 -0.2,-0.15 0.04,-0.22 0.17,-0.52 0.39,-0.91l0.46 -0.77 0.51 0c0.05,0 0.1,-0.04 0.16,-0.12 0.06,-0.07 0.06,-0.11 0,-0.11l-0.53 0c0.21,-0.32 0.44,-0.63 0.66,-0.92l0.22 -0.3c0.03,-0.04 0.06,-0.07 0.08,-0.1 0.13,-0.17 0.24,-0.29 0.33,-0.39zm1.5 0c0.08,-0.08 -0.02,-0.11 -0.32,-0.07 -0.3,0.04 -0.48,0.11 -0.55,0.21 -0.13,0.17 -0.4,0.57 -0.79,1.21l-0.23 0.36 -0.37 0c-0.05,0 -0.1,0.04 -0.16,0.11 -0.05,0.08 -0.05,0.12 0,0.12l0.39 0 -0.47 0.77 -0.4 0.7 -0.12 0.23c-0.03,0.09 -0.05,0.16 -0.06,0.2 -0.03,0.16 0.03,0.27 0.18,0.31 0.06,0.01 0.13,0.02 0.21,0.01 0.04,0 0.08,0 0.12,-0.01 0.02,0 0.06,0 0.09,-0.01 0.15,-0.03 0.36,-0.15 0.64,-0.34 0.27,-0.18 0.5,-0.37 0.69,-0.55 0.02,-0.02 0.03,-0.04 0.04,-0.06 0.02,-0.07 0.01,-0.12 -0.02,-0.16 -0.02,-0.01 -0.04,-0.01 -0.07,0 -0.11,0.13 -0.27,0.27 -0.48,0.45l-0.25 0.19c-0.08,0.06 -0.13,0.09 -0.16,0.1 -0.17,0.05 -0.23,0 -0.19,-0.15 0.04,-0.22 0.17,-0.52 0.38,-0.91l0.46 -0.77 0.51 0c0.05,0 0.11,-0.04 0.16,-0.12 0.06,-0.07 0.06,-0.11 0.01,-0.11l-0.54 0c0.22,-0.32 0.44,-0.63 0.67,-0.92l0.22 -0.3c0.03,-0.04 0.06,-0.07 0.08,-0.1 0.12,-0.17 0.23,-0.29 0.33,-0.39zm0.56 2.29c-0.12,0.15 -0.28,0.29 -0.5,0.43 -0.26,0.17 -0.51,0.29 -0.76,0.35 0.08,-0.53 0.4,-0.92 0.96,-1.15 0.25,-0.11 0.4,-0.12 0.45,-0.04 0.05,0.08 0,0.22 -0.15,0.41zm0.93 0.55c0.04,-0.04 0.04,-0.08 0.02,-0.13 -0.02,-0.05 -0.04,-0.07 -0.06,-0.05 -0.12,0.15 -0.25,0.29 -0.39,0.43 -0.2,0.18 -0.39,0.34 -0.56,0.45 -0.5,0.33 -0.87,0.36 -1.12,0.09 -0.02,-0.02 -0.03,-0.03 -0.04,-0.05l-0.04 -0.08c-0.04,-0.09 -0.05,-0.16 -0.05,-0.23 0.18,-0.01 0.43,-0.1 0.73,-0.26 0.3,-0.14 0.57,-0.32 0.83,-0.51 0.51,-0.39 0.67,-0.68 0.48,-0.85 -0.17,-0.17 -0.53,-0.16 -1.07,0.04 -0.52,0.19 -0.95,0.49 -1.3,0.9 -0.33,0.41 -0.46,0.77 -0.38,1.08 0.08,0.38 0.33,0.57 0.75,0.56 0.31,0 0.64,-0.1 0.99,-0.28 0.19,-0.11 0.41,-0.28 0.65,-0.51 0.2,-0.2 0.39,-0.4 0.56,-0.6zm1.86 0.31c0,-0.03 -0.01,-0.05 -0.02,-0.06 -0.02,-0.02 -0.05,-0.02 -0.06,0 -0.08,0.08 -0.19,0.18 -0.33,0.3l-0.17 0.15c-0.05,0.05 -0.1,0.08 -0.13,0.1 -0.15,0.11 -0.27,0.13 -0.34,0.07 -0.08,-0.07 -0.07,-0.19 0.03,-0.35 0.1,-0.17 0.24,-0.36 0.41,-0.55l0.2 -0.23c0.07,-0.09 0.13,-0.17 0.18,-0.24 0.09,-0.14 0.09,-0.23 -0.01,-0.29 -0.09,-0.06 -0.22,-0.05 -0.4,0.01l-0.64 0.25c-0.07,0.02 -0.12,0.04 -0.15,0.05 0.27,-0.25 0.52,-0.6 0.76,-1.04 0.26,-0.47 0.3,-0.72 0.13,-0.76 -0.2,-0.04 -0.49,0.2 -0.89,0.72 -0.17,0.23 -0.29,0.45 -0.37,0.65 -0.09,0.24 -0.09,0.42 -0.02,0.55 -0.07,0.1 -0.24,0.3 -0.53,0.62 -0.03,0.03 -0.07,0.06 -0.1,0.09 -0.03,0.04 -0.07,0.07 -0.1,0.1l-0.24 0.22c-0.2,0.16 -0.37,0.27 -0.52,0.33 -0.04,0.01 -0.03,0.04 0.02,0.08 0.05,0.03 0.09,0.04 0.13,0.03 0.18,-0.1 0.36,-0.23 0.56,-0.39 0.16,-0.13 0.28,-0.23 0.37,-0.32l0.3 -0.34c0.11,-0.13 0.2,-0.24 0.26,-0.33 0.02,0.02 0.07,0.02 0.15,0l0.2 -0.06c0.17,-0.04 0.23,-0.01 0.19,0.09 -0.02,0.05 -0.09,0.15 -0.2,0.3l-0.42 0.51c-0.23,0.28 -0.29,0.51 -0.17,0.7 0.13,0.21 0.43,0.19 0.91,-0.06 0.35,-0.19 0.68,-0.45 0.98,-0.77 0.02,-0.02 0.03,-0.04 0.03,-0.06l0 -0.07z"/>
   <g>
    <path class="fil1" d="M22.74 24.28l-2.65 -2.66 -1.49 -1.49 -1.6 -1.6c-0.5,-0.49 -1.31,-0.49 -1.8,0l-5.75 5.75c-0.49,0.49 -0.49,1.3 0,1.8l5.75 5.74c0.49,0.5 1.3,0.5 1.8,0l5.74 -5.74c0.5,-0.5 0.5,-1.31 0,-1.8z"/>
    <path class="fil1" d="M13.66 15.2l-5.74 -5.75c-0.5,-0.49 -1.31,-0.49 -1.8,0l-5.75 5.75c-0.49,0.49 -0.49,1.3 0,1.8l5.75 5.74c0.49,0.5 1.3,0.5 1.8,0l5.74 -5.74c0.5,-0.5 0.5,-1.31 0,-1.8z"/>
    <path class="fil2" d="M22.74 6.12l-5.74 -5.75c-0.5,-0.49 -1.31,-0.49 -1.8,0l-1.51 1.51 -1.49 1.49 -2.75 2.75c-0.49,0.49 -0.49,1.3 0,1.8l5.75 5.74c0.49,0.5 1.3,0.5 1.8,0l5.74 -5.74c0.5,-0.5 0.5,-1.31 0,-1.8l0 0z"/>
    <path class="fil0" d="M31.82 15.2l-5.74 -5.75c-0.5,-0.49 -1.31,-0.49 -1.8,0l-5.75 5.75c-0.49,0.49 -0.49,1.3 0,1.8l5.75 5.74c0.49,0.5 1.3,0.5 1.8,0l5.74 -5.74c0.5,-0.5 0.5,-1.31 0,-1.8z"/>
   </g>
   <path class="fil3" d="M38.69 8.71c0,-0.27 -0.22,-0.48 -0.48,-0.48l-3.74 0c-0.27,0 -0.48,0.21 -0.48,0.48 0,0.26 0.21,0.49 0.48,0.49l1.38 0 0 4.67c0,0.28 0.22,0.49 0.48,0.49 0.27,0 0.48,-0.21 0.48,-0.49l0 -4.67 1.4 0c0.26,0 0.48,-0.23 0.48,-0.49zm1.48 1.28c-0.26,0 -0.47,0.2 -0.47,0.48l0 3.41c0,0.27 0.21,0.48 0.47,0.48 0.27,0 0.47,-0.21 0.47,-0.48l0 -3.41c0,-0.28 -0.2,-0.48 -0.47,-0.48zm0.47 -1.29c0,-0.26 -0.2,-0.47 -0.47,-0.47 -0.26,0 -0.47,0.21 -0.47,0.47l0 0.18c0,0.27 0.21,0.48 0.47,0.48 0.27,0 0.47,-0.21 0.47,-0.48l0 -0.18zm5.54 1.41c0,-1.04 -0.84,-1.88 -1.89,-1.88l-1.56 0c0,0 0,0 0,0 -0.27,0 -0.49,0.21 -0.49,0.48l0 5.16c0,0.27 0.22,0.49 0.49,0.49 0.27,0 0.49,-0.22 0.49,-0.49l0 -1.9 1.07 0c1.05,0 1.89,-0.84 1.89,-1.86zm-2.96 -0.91l1.07 0c0.51,0 0.91,0.4 0.91,0.91 0,0.49 -0.4,0.89 -0.91,0.89l-1.07 0 0 -1.8zm4.51 0.79c-0.26,0 -0.47,0.2 -0.47,0.48l0 3.41c0,0.27 0.21,0.48 0.47,0.48 0.28,0 0.48,-0.21 0.48,-0.48l0 -3.41c0,-0.28 -0.2,-0.48 -0.48,-0.48zm0.48 -1.29c0,-0.26 -0.2,-0.47 -0.48,-0.47 -0.26,0 -0.47,0.21 -0.47,0.47l0 0.18c0,0.27 0.21,0.48 0.47,0.48 0.28,0 0.48,-0.21 0.48,-0.48l0 -0.18zm4.54 5.66c0.77,0 1.47,-0.26 2.03,-0.69 0.21,-0.16 0.24,-0.48 0.08,-0.7 -0.17,-0.21 -0.5,-0.24 -0.7,-0.09 -0.39,0.31 -0.86,0.48 -1.41,0.48 -0.6,0 -1.16,-0.25 -1.57,-0.63 -0.4,-0.39 -0.64,-0.93 -0.64,-1.53 0,-0.59 0.24,-1.12 0.64,-1.52 0.41,-0.39 0.97,-0.63 1.57,-0.63 0.55,0 1.03,0.17 1.41,0.48 0.2,0.16 0.53,0.12 0.7,-0.1 0.16,-0.21 0.13,-0.52 -0.08,-0.7 -0.56,-0.43 -1.26,-0.68 -2.03,-0.68 -1.75,0.01 -3.2,1.42 -3.21,3.15 0.01,1.75 1.46,3.16 3.21,3.16zm4.2 -4.37c-0.27,0 -0.48,0.2 -0.48,0.48l0 3.41c0,0.27 0.21,0.48 0.48,0.48 0.27,0 0.47,-0.21 0.47,-0.48l0 -3.41c0,-0.28 -0.2,-0.48 -0.47,-0.48zm0.47 -1.29c0,-0.26 -0.2,-0.47 -0.47,-0.47 -0.27,0 -0.48,0.21 -0.48,0.47l0 0.18c0,0.27 0.21,0.48 0.48,0.48 0.27,0 0.47,-0.21 0.47,-0.48l0 -0.18zm4.08 3.55c-0.24,0.07 -0.39,0.34 -0.31,0.6 0.28,0.88 1.11,1.51 2.07,1.51 1.2,0 2.18,-0.98 2.18,-2.18l0 -3.47c0,-0.27 -0.22,-0.48 -0.48,-0.48 -0.27,0 -0.49,0.21 -0.49,0.48l0 3.47c0,0.66 -0.54,1.2 -1.21,1.2 -0.53,0 -0.99,-0.35 -1.15,-0.83 -0.08,-0.25 -0.35,-0.39 -0.61,-0.3zm5.23 1.22c0.5,0.4 1.29,0.87 2.24,0.88 0.62,0 1.19,-0.19 1.62,-0.5 0.44,-0.32 0.75,-0.8 0.75,-1.36 0,-0.27 -0.08,-0.53 -0.21,-0.74 -0.2,-0.33 -0.51,-0.56 -0.87,-0.73 -0.35,-0.17 -0.76,-0.28 -1.21,-0.37l-0.02 0c-0.47,-0.09 -0.87,-0.23 -1.09,-0.38 -0.12,-0.08 -0.2,-0.16 -0.24,-0.23 -0.04,-0.07 -0.06,-0.14 -0.06,-0.25 0,-0.18 0.1,-0.37 0.33,-0.55 0.24,-0.17 0.59,-0.3 0.98,-0.3 0.54,0 0.97,0.27 1.41,0.56 0.21,0.14 0.49,0.08 0.62,-0.13 0.14,-0.2 0.08,-0.48 -0.12,-0.62 -0.44,-0.29 -1.07,-0.7 -1.91,-0.7 -0.57,0 -1.1,0.17 -1.51,0.46 -0.4,0.3 -0.7,0.76 -0.7,1.28 0,0.27 0.07,0.51 0.2,0.72 0.19,0.31 0.48,0.53 0.81,0.68 0.34,0.16 0.72,0.27 1.13,0.35l0.02 0c0.52,0.09 0.95,0.24 1.2,0.41 0.13,0.09 0.21,0.17 0.26,0.26 0.06,0.09 0.08,0.17 0.08,0.28 0,0.22 -0.11,0.44 -0.37,0.63 -0.27,0.19 -0.66,0.33 -1.1,0.33 -0.62,0 -1.29,-0.36 -1.67,-0.68 -0.19,-0.16 -0.48,-0.13 -0.64,0.06 -0.15,0.19 -0.12,0.48 0.07,0.64zm8.9 0.89c0.78,0 1.48,-0.26 2.03,-0.69 0.21,-0.16 0.24,-0.48 0.09,-0.7 -0.18,-0.21 -0.5,-0.24 -0.71,-0.09 -0.39,0.31 -0.86,0.48 -1.41,0.48 -0.6,0 -1.16,-0.25 -1.57,-0.63 -0.4,-0.39 -0.64,-0.93 -0.64,-1.53 0,-0.59 0.24,-1.12 0.64,-1.52 0.41,-0.39 0.97,-0.63 1.57,-0.63 0.55,0 1.03,0.17 1.41,0.48 0.21,0.16 0.53,0.12 0.71,-0.1 0.15,-0.21 0.12,-0.52 -0.09,-0.7 -0.55,-0.43 -1.25,-0.68 -2.03,-0.68 -1.75,0.01 -3.2,1.42 -3.21,3.15 0.01,1.75 1.46,3.16 3.21,3.16z"/>
  </g>
 </g>
</svg>
